<svg width="418" height="45" viewBox="0 0 418 45" fill="none" xmlns="http://www.w3.org/2000/svg">
<path d="M21.0547 16.872C20.8947 18.344 20.3747 19.648 19.4947 20.784C18.6307 21.904 17.4947 22.776 16.0867 23.4C14.6787 24.024 13.0707 24.336 11.2627 24.336C9.24669 24.336 7.47869 23.944 5.95869 23.16C4.43869 22.376 3.25469 21.288 2.40669 19.896C1.55869 18.488 1.13469 16.856 1.13469 15C1.13469 13.144 1.55869 11.52 2.40669 10.128C3.25469 8.72 4.43869 7.624 5.95869 6.84C7.47869 6.056 9.24669 5.664 11.2627 5.664C13.0707 5.664 14.6787 5.976 16.0867 6.6C17.4947 7.224 18.6307 8.096 19.4947 9.216C20.3747 10.336 20.8947 11.64 21.0547 13.128H17.8627C17.6867 12.168 17.3027 11.344 16.7107 10.656C16.1347 9.968 15.3827 9.44 14.4547 9.072C13.5267 8.688 12.4547 8.496 11.2387 8.496C9.83069 8.496 8.60669 8.76 7.56669 9.288C6.54269 9.816 5.75069 10.568 5.19069 11.544C4.63069 12.52 4.35069 13.672 4.35069 15C4.35069 16.328 4.63069 17.48 5.19069 18.456C5.75069 19.432 6.54269 20.184 7.56669 20.712C8.60669 21.24 9.83069 21.504 11.2387 21.504C12.4547 21.504 13.5267 21.32 14.4547 20.952C15.3827 20.584 16.1347 20.056 16.7107 19.368C17.3027 18.664 17.6867 17.832 17.8627 16.872H21.0547ZM33.3213 24.336C31.2733 24.336 29.4733 23.944 27.9213 23.16C26.3693 22.376 25.1613 21.288 24.2973 19.896C23.4333 18.488 23.0013 16.856 23.0013 15C23.0013 13.144 23.4333 11.52 24.2973 10.128C25.1613 8.72 26.3693 7.624 27.9213 6.84C29.4733 6.056 31.2733 5.664 33.3213 5.664C35.3693 5.664 37.1693 6.056 38.7213 6.84C40.2733 7.624 41.4813 8.72 42.3453 10.128C43.2093 11.52 43.6413 13.144 43.6413 15C43.6413 16.856 43.2093 18.488 42.3453 19.896C41.4813 21.288 40.2733 22.376 38.7213 23.16C37.1693 23.944 35.3693 24.336 33.3213 24.336ZM33.3213 21.504C34.7773 21.504 36.0333 21.24 37.0893 20.712C38.1453 20.184 38.9613 19.432 39.5373 18.456C40.1293 17.48 40.4253 16.328 40.4253 15C40.4253 13.672 40.1293 12.52 39.5373 11.544C38.9613 10.568 38.1453 9.816 37.0893 9.288C36.0333 8.76 34.7773 8.496 33.3213 8.496C31.8813 8.496 30.6253 8.76 29.5533 9.288C28.4973 9.816 27.6733 10.568 27.0813 11.544C26.5053 12.52 26.2173 13.672 26.2173 15C26.2173 16.328 26.5053 17.48 27.0813 18.456C27.6733 19.432 28.4973 20.184 29.5533 20.712C30.6253 21.24 31.8813 21.504 33.3213 21.504ZM63.3991 22.08L62.1031 22.224V6H65.1751V24H61.1431L48.5191 7.776L49.7911 7.632V24H46.7191V6H50.8471L63.3991 22.08ZM78.5557 24.336C76.5077 24.336 74.7077 23.944 73.1557 23.16C71.6037 22.376 70.3957 21.288 69.5317 19.896C68.6677 18.488 68.2357 16.856 68.2357 15C68.2357 13.144 68.6677 11.52 69.5317 10.128C70.3957 8.72 71.6037 7.624 73.1557 6.84C74.7077 6.056 76.5077 5.664 78.5557 5.664C80.6037 5.664 82.4037 6.056 83.9557 6.84C85.5077 7.624 86.7157 8.72 87.5797 10.128C88.4437 11.52 88.8757 13.144 88.8757 15C88.8757 16.856 88.4437 18.488 87.5797 19.896C86.7157 21.288 85.5077 22.376 83.9557 23.16C82.4037 23.944 80.6037 24.336 78.5557 24.336ZM78.5557 21.504C80.0117 21.504 81.2677 21.24 82.3237 20.712C83.3797 20.184 84.1957 19.432 84.7717 18.456C85.3637 17.48 85.6597 16.328 85.6597 15C85.6597 13.672 85.3637 12.52 84.7717 11.544C84.1957 10.568 83.3797 9.816 82.3237 9.288C81.2677 8.76 80.0117 8.496 78.5557 8.496C77.1157 8.496 75.8597 8.76 74.7877 9.288C73.7317 9.816 72.9077 10.568 72.3157 11.544C71.7397 12.52 71.4517 13.672 71.4517 15C71.4517 16.328 71.7397 17.48 72.3157 18.456C72.9077 19.432 73.7317 20.184 74.7877 20.712C75.8597 21.24 77.1157 21.504 78.5557 21.504ZM110.938 16.872C110.778 18.344 110.258 19.648 109.378 20.784C108.514 21.904 107.378 22.776 105.97 23.4C104.562 24.024 102.954 24.336 101.146 24.336C99.1295 24.336 97.3615 23.944 95.8415 23.16C94.3215 22.376 93.1375 21.288 92.2895 19.896C91.4415 18.488 91.0175 16.856 91.0175 15C91.0175 13.144 91.4415 11.52 92.2895 10.128C93.1375 8.72 94.3215 7.624 95.8415 6.84C97.3615 6.056 99.1295 5.664 101.146 5.664C102.954 5.664 104.562 5.976 105.97 6.6C107.378 7.224 108.514 8.096 109.378 9.216C110.258 10.336 110.778 11.64 110.938 13.128H107.746C107.57 12.168 107.186 11.344 106.594 10.656C106.018 9.968 105.266 9.44 104.338 9.072C103.41 8.688 102.338 8.496 101.122 8.496C99.7135 8.496 98.4895 8.76 97.4495 9.288C96.4255 9.816 95.6335 10.568 95.0735 11.544C94.5135 12.52 94.2335 13.672 94.2335 15C94.2335 16.328 94.5135 17.48 95.0735 18.456C95.6335 19.432 96.4255 20.184 97.4495 20.712C98.4895 21.24 99.7135 21.504 101.122 21.504C102.338 21.504 103.41 21.32 104.338 20.952C105.266 20.584 106.018 20.056 106.594 19.368C107.186 18.664 107.57 17.832 107.746 16.872H110.938ZM128.22 13.68V16.32H115.644V13.68H128.22ZM117.732 15L116.46 23.04L114.948 21.264H128.916V24H113.22L114.66 15L113.22 6H128.796V8.736H114.948L116.46 6.96L117.732 15ZM155.251 22.08L153.955 22.224V6H157.027V24H152.995L140.371 7.776L141.643 7.632V24H138.571V6H142.699L155.251 22.08ZM163.975 16.272C163.975 17.344 164.191 18.272 164.623 19.056C165.055 19.84 165.671 20.448 166.471 20.88C167.287 21.296 168.255 21.504 169.375 21.504C170.511 21.504 171.479 21.296 172.279 20.88C173.079 20.448 173.695 19.84 174.127 19.056C174.559 18.272 174.775 17.344 174.775 16.272V6H177.943V16.392C177.943 17.976 177.583 19.368 176.863 20.568C176.143 21.752 175.143 22.68 173.863 23.352C172.583 24.008 171.087 24.336 169.375 24.336C167.679 24.336 166.183 24.008 164.887 23.352C163.607 22.68 162.607 21.752 161.887 20.568C161.167 19.368 160.807 17.976 160.807 16.392V6H163.975V16.272ZM196.119 13.68V16.32H183.543V13.68H196.119ZM185.631 15L184.359 23.04L182.847 21.264H196.815V24H181.119L182.559 15L181.119 6H196.695V8.736H182.847L184.359 6.96L185.631 15ZM199.014 18.144H202.23C202.326 18.864 202.622 19.496 203.118 20.04C203.63 20.584 204.302 21.008 205.134 21.312C205.966 21.6 206.926 21.744 208.014 21.744C209.63 21.744 210.91 21.496 211.854 21C212.798 20.488 213.27 19.8 213.27 18.936C213.27 18.232 212.998 17.704 212.454 17.352C211.91 17 210.926 16.736 209.502 16.56L205.614 16.056C203.438 15.768 201.854 15.232 200.862 14.448C199.886 13.648 199.398 12.52 199.398 11.064C199.398 9.96 199.726 9.008 200.382 8.208C201.054 7.392 201.998 6.768 203.214 6.336C204.43 5.888 205.854 5.664 207.486 5.664C209.102 5.664 210.534 5.904 211.782 6.384C213.03 6.864 214.022 7.536 214.758 8.4C215.51 9.248 215.918 10.248 215.982 11.4H212.766C212.686 10.76 212.414 10.208 211.95 9.744C211.502 9.28 210.894 8.92 210.126 8.664C209.358 8.392 208.454 8.256 207.414 8.256C205.942 8.256 204.766 8.496 203.886 8.976C203.006 9.456 202.566 10.112 202.566 10.944C202.566 11.584 202.822 12.08 203.334 12.432C203.862 12.768 204.774 13.024 206.07 13.2L210.006 13.752C211.622 13.976 212.894 14.28 213.822 14.664C214.766 15.032 215.438 15.536 215.838 16.176C216.238 16.8 216.438 17.608 216.438 18.6C216.438 19.752 216.086 20.76 215.382 21.624C214.678 22.488 213.686 23.16 212.406 23.64C211.142 24.104 209.662 24.336 207.966 24.336C206.238 24.336 204.71 24.08 203.382 23.568C202.07 23.04 201.03 22.312 200.262 21.384C199.494 20.456 199.078 19.376 199.014 18.144ZM224.465 7.464H227.633V24H224.465V7.464ZM217.025 6H235.073V8.784H217.025V6ZM239.685 14.112H247.005C248.061 14.112 248.893 13.872 249.501 13.392C250.125 12.912 250.437 12.256 250.437 11.424C250.437 10.576 250.125 9.92 249.501 9.456C248.893 8.976 248.061 8.736 247.005 8.736H239.229L240.645 6.96V24H237.477V6H247.293C248.557 6 249.661 6.232 250.605 6.696C251.565 7.144 252.309 7.776 252.837 8.592C253.381 9.392 253.653 10.336 253.653 11.424C253.653 12.48 253.381 13.416 252.837 14.232C252.309 15.032 251.565 15.664 250.605 16.128C249.661 16.576 248.557 16.8 247.293 16.8H239.685V14.112ZM243.237 15.576H246.957L254.109 24H250.317L243.237 15.576ZM258.908 19.872V17.256H271.484V19.872H258.908ZM267.26 6L275.9 24H272.516L264.668 7.2H265.892L258.044 24H254.66L263.3 6H267.26ZM283.508 6H286.676V24H283.508V6ZM298.148 6H301.316V24H298.148V6ZM285.212 13.536H299.66V16.32H285.212V13.536ZM305.352 6H308.52V24H305.352V6ZM311.443 18.144H314.659C314.755 18.864 315.051 19.496 315.547 20.04C316.059 20.584 316.731 21.008 317.563 21.312C318.395 21.6 319.355 21.744 320.443 21.744C322.059 21.744 323.339 21.496 324.283 21C325.227 20.488 325.699 19.8 325.699 18.936C325.699 18.232 325.427 17.704 324.883 17.352C324.339 17 323.355 16.736 321.931 16.56L318.043 16.056C315.867 15.768 314.283 15.232 313.291 14.448C312.315 13.648 311.827 12.52 311.827 11.064C311.827 9.96 312.155 9.008 312.811 8.208C313.483 7.392 314.427 6.768 315.643 6.336C316.859 5.888 318.283 5.664 319.915 5.664C321.531 5.664 322.963 5.904 324.211 6.384C325.459 6.864 326.451 7.536 327.187 8.4C327.939 9.248 328.347 10.248 328.411 11.4H325.195C325.115 10.76 324.843 10.208 324.379 9.744C323.931 9.28 323.323 8.92 322.555 8.664C321.787 8.392 320.883 8.256 319.843 8.256C318.371 8.256 317.195 8.496 316.315 8.976C315.435 9.456 314.995 10.112 314.995 10.944C314.995 11.584 315.251 12.08 315.763 12.432C316.291 12.768 317.203 13.024 318.499 13.2L322.435 13.752C324.051 13.976 325.323 14.28 326.251 14.664C327.195 15.032 327.867 15.536 328.267 16.176C328.667 16.8 328.867 17.608 328.867 18.6C328.867 19.752 328.515 20.76 327.811 21.624C327.107 22.488 326.115 23.16 324.835 23.64C323.571 24.104 322.091 24.336 320.395 24.336C318.667 24.336 317.139 24.08 315.811 23.568C314.499 23.04 313.459 22.312 312.691 21.384C311.923 20.456 311.507 19.376 311.443 18.144ZM336.894 7.464H340.062V24H336.894V7.464ZM329.454 6H347.502V8.784H329.454V6ZM358.329 24.336C356.281 24.336 354.481 23.944 352.929 23.16C351.377 22.376 350.169 21.288 349.305 19.896C348.441 18.488 348.009 16.856 348.009 15C348.009 13.144 348.441 11.52 349.305 10.128C350.169 8.72 351.377 7.624 352.929 6.84C354.481 6.056 356.281 5.664 358.329 5.664C360.377 5.664 362.177 6.056 363.729 6.84C365.281 7.624 366.489 8.72 367.353 10.128C368.217 11.52 368.649 13.144 368.649 15C368.649 16.856 368.217 18.488 367.353 19.896C366.489 21.288 365.281 22.376 363.729 23.16C362.177 23.944 360.377 24.336 358.329 24.336ZM358.329 21.504C359.785 21.504 361.041 21.24 362.097 20.712C363.153 20.184 363.969 19.432 364.545 18.456C365.137 17.48 365.433 16.328 365.433 15C365.433 13.672 365.137 12.52 364.545 11.544C363.969 10.568 363.153 9.816 362.097 9.288C361.041 8.76 359.785 8.496 358.329 8.496C356.889 8.496 355.633 8.76 354.561 9.288C353.505 9.816 352.681 10.568 352.089 11.544C351.513 12.52 351.225 13.672 351.225 15C351.225 16.328 351.513 17.48 352.089 18.456C352.681 19.432 353.505 20.184 354.561 20.712C355.633 21.24 356.889 21.504 358.329 21.504ZM373.935 14.112H381.255C382.311 14.112 383.143 13.872 383.751 13.392C384.375 12.912 384.687 12.256 384.687 11.424C384.687 10.576 384.375 9.92 383.751 9.456C383.143 8.976 382.311 8.736 381.255 8.736H373.479L374.895 6.96V24H371.727V6H381.543C382.807 6 383.911 6.232 384.855 6.696C385.815 7.144 386.559 7.776 387.087 8.592C387.631 9.392 387.903 10.336 387.903 11.424C387.903 12.48 387.631 13.416 387.087 14.232C386.559 15.032 385.815 15.664 384.855 16.128C383.911 16.576 382.807 16.8 381.543 16.8H373.935V14.112ZM377.487 15.576H381.207L388.359 24H384.567L377.487 15.576ZM391.18 6H394.348V24H391.18V6ZM400.775 19.872V17.256H413.351V19.872H400.775ZM409.127 6L417.767 24H414.383L406.535 7.2H407.759L399.911 24H396.527L405.167 6H409.127Z" fill="white"/>
<line x1="182" y1="44" x2="235" y2="44" stroke="white" stroke-width="2" stroke-linecap="round"/>
</svg>
