<svg width="514" height="45" viewBox="0 0 514 45" fill="none" xmlns="http://www.w3.org/2000/svg">
<path d="M13.1196 15.072L13.4316 14.376C14.8556 14.392 16.0156 14.608 16.9116 15.024C17.8236 15.44 18.4876 16 18.9036 16.704C19.3356 17.408 19.5516 18.2 19.5516 19.08C19.5516 20.04 19.3196 20.888 18.8556 21.624C18.4076 22.36 17.7436 22.944 16.8636 23.376C15.9836 23.792 14.8876 24 13.5756 24H1.57559L2.99159 14.76L1.57559 6H13.1436C14.8076 6 16.0876 6.392 16.9836 7.176C17.8956 7.944 18.3516 9.008 18.3516 10.368C18.3516 11.088 18.1756 11.792 17.8236 12.48C17.4876 13.152 16.9356 13.728 16.1676 14.208C15.4156 14.672 14.3996 14.96 13.1196 15.072ZM4.76759 23.112L3.54359 21.456H13.2156C14.2076 21.456 14.9756 21.232 15.5196 20.784C16.0796 20.32 16.3596 19.664 16.3596 18.816C16.3596 17.92 16.0316 17.224 15.3756 16.728C14.7356 16.232 13.7836 15.984 12.5196 15.984H4.71959V13.536H12.2076C13.0556 13.536 13.7596 13.304 14.3196 12.84C14.8796 12.36 15.1596 11.68 15.1596 10.8C15.1596 10.144 14.9276 9.608 14.4636 9.192C13.9996 8.76 13.3276 8.544 12.4476 8.544H3.54359L4.76759 6.888L6.03959 14.76L4.76759 23.112ZM36.8959 13.68V16.32H24.3199V13.68H36.8959ZM26.4079 15L25.1359 23.04L23.6239 21.264H37.5919V24H21.8959L23.3359 15L21.8959 6H37.4719V8.736H23.6239L25.1359 6.96L26.4079 15ZM57.5749 22.08L56.2789 22.224V6H59.3509V24H55.3189L42.6949 7.776L43.9669 7.632V24H40.8949V6H45.0229L57.5749 22.08ZM77.7475 13.68V16.32H65.1715V13.68H77.7475ZM67.2595 15L65.9875 23.04L64.4755 21.264H78.4435V24H62.7475L64.1875 15L62.7475 6H78.3235V8.736H64.4755L65.9875 6.96L67.2595 15ZM83.2825 13.872H96.2185V16.656H83.2825V13.872ZM96.6025 6V8.784H83.1865L84.9145 6.984V24H81.7465V6H96.6025ZM99.5121 6H102.68V24H99.5121V6ZM125.691 16.872C125.531 18.344 125.011 19.648 124.131 20.784C123.267 21.904 122.131 22.776 120.723 23.4C119.315 24.024 117.707 24.336 115.899 24.336C113.883 24.336 112.115 23.944 110.595 23.16C109.075 22.376 107.891 21.288 107.043 19.896C106.195 18.488 105.771 16.856 105.771 15C105.771 13.144 106.195 11.52 107.043 10.128C107.891 8.72 109.075 7.624 110.595 6.84C112.115 6.056 113.883 5.664 115.899 5.664C117.707 5.664 119.315 5.976 120.723 6.6C122.131 7.224 123.267 8.096 124.131 9.216C125.011 10.336 125.531 11.64 125.691 13.128H122.499C122.323 12.168 121.939 11.344 121.347 10.656C120.771 9.968 120.019 9.44 119.091 9.072C118.163 8.688 117.091 8.496 115.875 8.496C114.467 8.496 113.243 8.76 112.203 9.288C111.179 9.816 110.387 10.568 109.827 11.544C109.267 12.52 108.987 13.672 108.987 15C108.987 16.328 109.267 17.48 109.827 18.456C110.387 19.432 111.179 20.184 112.203 20.712C113.243 21.24 114.467 21.504 115.875 21.504C117.091 21.504 118.163 21.32 119.091 20.952C120.019 20.584 120.771 20.056 121.347 19.368C121.939 18.664 122.323 17.832 122.499 16.872H125.691ZM128.598 6H131.766V24H128.598V6ZM145.153 24.336C143.105 24.336 141.305 23.944 139.753 23.16C138.201 22.376 136.993 21.288 136.129 19.896C135.265 18.488 134.833 16.856 134.833 15C134.833 13.144 135.265 11.52 136.129 10.128C136.993 8.72 138.201 7.624 139.753 6.84C141.305 6.056 143.105 5.664 145.153 5.664C147.201 5.664 149.001 6.056 150.553 6.84C152.105 7.624 153.313 8.72 154.177 10.128C155.041 11.52 155.473 13.144 155.473 15C155.473 16.856 155.041 18.488 154.177 19.896C153.313 21.288 152.105 22.376 150.553 23.16C149.001 23.944 147.201 24.336 145.153 24.336ZM145.153 21.504C146.609 21.504 147.865 21.24 148.921 20.712C149.977 20.184 150.793 19.432 151.369 18.456C151.961 17.48 152.257 16.328 152.257 15C152.257 13.672 151.961 12.52 151.369 11.544C150.793 10.568 149.977 9.816 148.921 9.288C147.865 8.76 146.609 8.496 145.153 8.496C143.713 8.496 142.457 8.76 141.385 9.288C140.329 9.816 139.505 10.568 138.913 11.544C138.337 12.52 138.049 13.672 138.049 15C138.049 16.328 138.337 17.48 138.913 18.456C139.505 19.432 140.329 20.184 141.385 20.712C142.457 21.24 143.713 21.504 145.153 21.504ZM157.447 18.144H160.663C160.759 18.864 161.055 19.496 161.551 20.04C162.063 20.584 162.735 21.008 163.567 21.312C164.399 21.6 165.359 21.744 166.447 21.744C168.063 21.744 169.343 21.496 170.287 21C171.231 20.488 171.703 19.8 171.703 18.936C171.703 18.232 171.431 17.704 170.887 17.352C170.343 17 169.359 16.736 167.935 16.56L164.047 16.056C161.871 15.768 160.287 15.232 159.295 14.448C158.319 13.648 157.831 12.52 157.831 11.064C157.831 9.96 158.159 9.008 158.815 8.208C159.487 7.392 160.431 6.768 161.647 6.336C162.863 5.888 164.287 5.664 165.919 5.664C167.535 5.664 168.967 5.904 170.215 6.384C171.463 6.864 172.455 7.536 173.191 8.4C173.943 9.248 174.351 10.248 174.415 11.4H171.199C171.119 10.76 170.847 10.208 170.383 9.744C169.935 9.28 169.327 8.92 168.559 8.664C167.791 8.392 166.887 8.256 165.847 8.256C164.375 8.256 163.199 8.496 162.319 8.976C161.439 9.456 160.999 10.112 160.999 10.944C160.999 11.584 161.255 12.08 161.767 12.432C162.295 12.768 163.207 13.024 164.503 13.2L168.439 13.752C170.055 13.976 171.327 14.28 172.255 14.664C173.199 15.032 173.871 15.536 174.271 16.176C174.671 16.8 174.871 17.608 174.871 18.6C174.871 19.752 174.519 20.76 173.815 21.624C173.111 22.488 172.119 23.16 170.839 23.64C169.575 24.104 168.095 24.336 166.399 24.336C164.671 24.336 163.143 24.08 161.815 23.568C160.503 23.04 159.463 22.312 158.695 21.384C157.927 20.456 157.511 19.376 157.447 18.144ZM192.304 6C194.352 6 196.144 6.376 197.68 7.128C199.232 7.88 200.44 8.936 201.304 10.296C202.168 11.64 202.6 13.208 202.6 15C202.6 16.792 202.168 18.368 201.304 19.728C200.44 21.072 199.232 22.12 197.68 22.872C196.144 23.624 194.352 24 192.304 24H184.168V6H192.304ZM187.336 22.896L185.584 21.216H192.52C193.896 21.216 195.096 20.96 196.12 20.448C197.16 19.92 197.96 19.192 198.52 18.264C199.096 17.32 199.384 16.232 199.384 15C199.384 13.752 199.096 12.664 198.52 11.736C197.96 10.808 197.16 10.088 196.12 9.576C195.096 9.048 193.896 8.784 192.52 8.784H185.584L187.336 7.104V22.896ZM219.896 13.68V16.32H207.32V13.68H219.896ZM209.408 15L208.136 23.04L206.624 21.264H220.592V24H204.896L206.336 15L204.896 6H220.472V8.736H206.624L208.136 6.96L209.408 15ZM233.414 6V22.584L231.998 21.216H245.558V24H230.246V6H233.414ZM250.365 19.872V17.256H262.941V19.872H250.365ZM258.717 6L267.357 24H263.973L256.125 7.2H257.349L249.501 24H246.117L254.757 6H258.717ZM279.929 7.464H283.097V24H279.929V7.464ZM272.489 6H290.537V8.784H272.489V6ZM307.318 13.68V16.32H294.742V13.68H307.318ZM296.83 15L295.558 23.04L294.046 21.264H308.014V24H292.318L293.758 15L292.318 6H307.894V8.736H294.046L295.558 6.96L296.83 15ZM313.525 14.112H320.845C321.901 14.112 322.733 13.872 323.341 13.392C323.965 12.912 324.277 12.256 324.277 11.424C324.277 10.576 323.965 9.92 323.341 9.456C322.733 8.976 321.901 8.736 320.845 8.736H313.069L314.485 6.96V24H311.317V6H321.133C322.397 6 323.501 6.232 324.445 6.696C325.405 7.144 326.149 7.776 326.677 8.592C327.221 9.392 327.493 10.336 327.493 11.424C327.493 12.48 327.221 13.416 326.677 14.232C326.149 15.032 325.405 15.664 324.445 16.128C323.501 16.576 322.397 16.8 321.133 16.8H313.525V14.112ZM317.077 15.576H320.797L327.949 24H324.157L317.077 15.576ZM332.748 19.872V17.256H345.324V19.872H332.748ZM341.1 6L349.74 24H346.356L338.508 7.2H339.732L331.884 24H328.5L337.14 6H341.1ZM361.462 6C362.806 6 363.966 6.24 364.942 6.72C365.934 7.2 366.694 7.872 367.222 8.736C367.766 9.584 368.038 10.568 368.038 11.688C368.038 12.808 367.766 13.8 367.222 14.664C366.694 15.512 365.934 16.176 364.942 16.656C363.966 17.136 362.806 17.376 361.462 17.376H353.374V14.64H361.342C362.43 14.64 363.278 14.376 363.886 13.848C364.51 13.32 364.822 12.6 364.822 11.688C364.822 10.776 364.51 10.056 363.886 9.528C363.278 9 362.43 8.736 361.342 8.736H353.686L355.102 7.152V24H351.934V6H361.462ZM370.637 6H373.805V24H370.637V6ZM380.232 19.872V17.256H392.808V19.872H380.232ZM388.584 6L397.224 24H393.84L385.992 7.2H387.216L379.368 24H375.984L384.624 6H388.584ZM414.192 24.336C412.144 24.336 410.344 23.944 408.792 23.16C407.24 22.376 406.032 21.288 405.168 19.896C404.304 18.488 403.872 16.856 403.872 15C403.872 13.144 404.304 11.52 405.168 10.128C406.032 8.72 407.24 7.624 408.792 6.84C410.344 6.056 412.144 5.664 414.192 5.664C416.24 5.664 418.04 6.056 419.592 6.84C421.144 7.624 422.352 8.72 423.216 10.128C424.08 11.52 424.512 13.144 424.512 15C424.512 16.856 424.08 18.488 423.216 19.896C422.352 21.288 421.144 22.376 419.592 23.16C418.04 23.944 416.24 24.336 414.192 24.336ZM414.192 21.504C415.648 21.504 416.904 21.24 417.96 20.712C419.016 20.184 419.832 19.432 420.408 18.456C421 17.48 421.296 16.328 421.296 15C421.296 13.672 421 12.52 420.408 11.544C419.832 10.568 419.016 9.816 417.96 9.288C416.904 8.76 415.648 8.496 414.192 8.496C412.752 8.496 411.496 8.76 410.424 9.288C409.368 9.816 408.544 10.568 407.952 11.544C407.376 12.52 407.088 13.672 407.088 15C407.088 16.328 407.376 17.48 407.952 18.456C408.544 19.432 409.368 20.184 410.424 20.712C411.496 21.24 412.752 21.504 414.192 21.504ZM444.27 22.08L442.974 22.224V6H446.046V24H442.014L429.39 7.776L430.662 7.632V24H427.59V6H431.718L444.27 22.08ZM453.235 6V22.584L451.819 21.216H465.379V24H450.067V6H453.235ZM467.786 6H470.954V24H467.786V6ZM491.661 22.08L490.365 22.224V6H493.437V24H489.405L476.781 7.776L478.053 7.632V24H474.981V6H479.109L491.661 22.08ZM511.833 13.68V16.32H499.257V13.68H511.833ZM501.345 15L500.073 23.04L498.561 21.264H512.529V24H496.833L498.273 15L496.833 6H512.409V8.736H498.561L500.073 6.96L501.345 15Z" fill="#431C6B"/>
<line x1="231" y1="44" x2="284" y2="44" stroke="#431C6B" stroke-width="2" stroke-linecap="round"/>
</svg>
