<svg width="399" height="45" viewBox="0 0 399 45" fill="none" xmlns="http://www.w3.org/2000/svg">
<path d="M3.63403 13.872H16.57V16.656H3.63403V13.872ZM16.954 6V8.784H3.53803L5.26603 6.984V24H2.09803V6H16.954ZM20.5996 19.872V17.256H33.1756V19.872H20.5996ZM28.9516 6L37.5916 24H34.2076L26.3596 7.2H27.5836L19.7356 24H16.3516L24.9916 6H28.9516ZM45.8812 17.136H49.7452L57.7372 25.248H53.8012L45.8812 17.136ZM48.1612 24.336C46.1132 24.336 44.3132 23.944 42.7612 23.16C41.2092 22.376 40.0012 21.288 39.1372 19.896C38.2732 18.488 37.8412 16.856 37.8412 15C37.8412 13.144 38.2732 11.52 39.1372 10.128C40.0012 8.72 41.2092 7.624 42.7612 6.84C44.3132 6.056 46.1132 5.664 48.1612 5.664C50.2092 5.664 52.0092 6.056 53.5612 6.84C55.1132 7.624 56.3212 8.72 57.1852 10.128C58.0492 11.52 58.4812 13.144 58.4812 15C58.4812 16.856 58.0492 18.488 57.1852 19.896C56.3212 21.288 55.1132 22.376 53.5612 23.16C52.0092 23.944 50.2092 24.336 48.1612 24.336ZM48.1612 21.504C49.6172 21.504 50.8732 21.24 51.9292 20.712C52.9852 20.184 53.8012 19.432 54.3772 18.456C54.9692 17.48 55.2652 16.328 55.2652 15C55.2652 13.672 54.9692 12.52 54.3772 11.544C53.8012 10.568 52.9852 9.816 51.9292 9.288C50.8732 8.76 49.6172 8.496 48.1612 8.496C46.7212 8.496 45.4652 8.76 44.3932 9.288C43.3372 9.816 42.5132 10.568 41.9212 11.544C41.3452 12.52 41.0572 13.672 41.0572 15C41.0572 16.328 41.3452 17.48 41.9212 18.456C42.5132 19.432 43.3372 20.184 44.3932 20.712C45.4652 21.24 46.7212 21.504 48.1612 21.504ZM67.3105 14.28H72.9025V16.848H67.3105V14.28ZM92.2042 6C93.5482 6 94.7082 6.24 95.6842 6.72C96.6762 7.2 97.4362 7.872 97.9642 8.736C98.5082 9.584 98.7802 10.568 98.7802 11.688C98.7802 12.808 98.5082 13.8 97.9642 14.664C97.4362 15.512 96.6762 16.176 95.6842 16.656C94.7082 17.136 93.5482 17.376 92.2042 17.376H84.1162V14.64H92.0842C93.1722 14.64 94.0202 14.376 94.6282 13.848C95.2522 13.32 95.5642 12.6 95.5642 11.688C95.5642 10.776 95.2522 10.056 94.6282 9.528C94.0202 9 93.1722 8.736 92.0842 8.736H84.4282L85.8442 7.152V24H82.6762V6H92.2042ZM100.371 10.416H103.491L104.307 15.36V24H101.187V14.76L100.371 10.416ZM111.195 10.32V13.056C110.843 12.96 110.459 12.888 110.043 12.84C109.627 12.792 109.235 12.768 108.867 12.768C107.987 12.768 107.203 12.96 106.515 13.344C105.827 13.728 105.283 14.304 104.883 15.072C104.499 15.824 104.307 16.752 104.307 17.856L103.587 16.968C103.651 16.008 103.811 15.112 104.067 14.28C104.339 13.432 104.707 12.696 105.171 12.072C105.651 11.448 106.235 10.96 106.923 10.608C107.611 10.256 108.411 10.08 109.323 10.08C109.643 10.08 109.971 10.104 110.307 10.152C110.643 10.184 110.939 10.24 111.195 10.32ZM120.037 24.336C118.453 24.336 117.045 24.04 115.813 23.448C114.581 22.84 113.613 22 112.909 20.928C112.205 19.856 111.853 18.608 111.853 17.184C111.853 15.776 112.181 14.544 112.837 13.488C113.509 12.416 114.429 11.584 115.597 10.992C116.781 10.384 118.133 10.08 119.653 10.08C121.173 10.08 122.485 10.424 123.589 11.112C124.709 11.784 125.573 12.736 126.181 13.968C126.789 15.2 127.093 16.648 127.093 18.312H114.301V15.936H125.533L123.973 16.824C123.925 15.928 123.709 15.16 123.325 14.52C122.957 13.88 122.453 13.392 121.813 13.056C121.189 12.704 120.445 12.528 119.581 12.528C118.669 12.528 117.869 12.712 117.181 13.08C116.509 13.448 115.981 13.968 115.597 14.64C115.213 15.296 115.021 16.08 115.021 16.992C115.021 18 115.245 18.872 115.693 19.608C116.157 20.344 116.805 20.912 117.637 21.312C118.485 21.696 119.485 21.888 120.637 21.888C121.677 21.888 122.741 21.728 123.829 21.408C124.917 21.072 125.877 20.608 126.709 20.016V22.272C125.877 22.912 124.861 23.416 123.661 23.784C122.477 24.152 121.269 24.336 120.037 24.336ZM141.996 20.664V18.264L142.116 17.832V15.216L141.996 14.736V10.416H145.116V20.376C145.116 22.12 144.748 23.576 144.012 24.744C143.276 25.928 142.268 26.816 140.988 27.408C139.708 28 138.236 28.296 136.572 28.296C135.356 28.296 134.236 28.136 133.212 27.816C132.188 27.496 131.196 27.008 130.236 26.352V23.76C131.212 24.528 132.22 25.064 133.26 25.368C134.3 25.688 135.34 25.848 136.38 25.848C138.204 25.848 139.596 25.4 140.556 24.504C141.516 23.608 141.996 22.328 141.996 20.664ZM135.468 22.944C134.22 22.944 133.1 22.68 132.108 22.152C131.116 21.608 130.332 20.856 129.756 19.896C129.18 18.936 128.892 17.808 128.892 16.512C128.892 15.216 129.18 14.088 129.756 13.128C130.332 12.168 131.116 11.424 132.108 10.896C133.1 10.352 134.22 10.08 135.468 10.08C136.396 10.08 137.252 10.224 138.036 10.512C138.836 10.8 139.548 11.184 140.172 11.664C140.812 12.128 141.348 12.648 141.78 13.224C142.228 13.784 142.572 14.36 142.812 14.952C143.052 15.528 143.172 16.056 143.172 16.536C143.172 17.16 142.988 17.848 142.62 18.6C142.252 19.336 141.724 20.032 141.036 20.688C140.364 21.344 139.556 21.888 138.612 22.32C137.668 22.736 136.62 22.944 135.468 22.944ZM136.428 20.64C137.564 20.64 138.604 20.312 139.548 19.656C140.508 19 141.364 17.952 142.116 16.512C141.364 15.04 140.508 13.984 139.548 13.344C138.604 12.688 137.564 12.36 136.428 12.36C135.5 12.36 134.708 12.536 134.052 12.888C133.396 13.24 132.892 13.728 132.54 14.352C132.204 14.976 132.036 15.696 132.036 16.512C132.036 17.312 132.204 18.024 132.54 18.648C132.892 19.272 133.396 19.76 134.052 20.112C134.708 20.464 135.5 20.64 136.428 20.64ZM154.051 24.336C152.803 24.336 151.739 24.08 150.859 23.568C149.995 23.056 149.331 22.32 148.867 21.36C148.403 20.4 148.171 19.256 148.171 17.928V10.416H151.291V17.448C151.291 18.856 151.611 19.928 152.251 20.664C152.907 21.384 153.843 21.744 155.059 21.744C155.939 21.744 156.691 21.552 157.315 21.168C157.955 20.784 158.451 20.24 158.803 19.536C159.155 18.816 159.331 17.984 159.331 17.04L160.411 17.64C160.283 19.032 159.931 20.232 159.355 21.24C158.779 22.232 158.035 23 157.123 23.544C156.211 24.072 155.187 24.336 154.051 24.336ZM160.123 24L159.331 19.104V10.416H162.451V19.584L163.243 24H160.123ZM165.293 10.416H168.413L169.229 15.312V24H166.109V14.856L165.293 10.416ZM174.629 10.08C175.909 10.08 176.997 10.336 177.893 10.848C178.789 11.36 179.469 12.096 179.933 13.056C180.413 14 180.653 15.144 180.653 16.488V24H177.533V16.992C177.533 15.568 177.197 14.496 176.525 13.776C175.869 13.04 174.901 12.672 173.621 12.672C172.741 12.672 171.965 12.872 171.293 13.272C170.637 13.656 170.125 14.2 169.757 14.904C169.405 15.608 169.229 16.432 169.229 17.376L168.125 16.776C168.269 15.368 168.637 14.168 169.229 13.176C169.821 12.184 170.581 11.424 171.509 10.896C172.437 10.352 173.477 10.08 174.629 10.08ZM182.054 12.816V11.4L184.958 10.656L186.254 6.864H188.078V10.416H194.39V12.816H188.078V18.696C188.078 19.832 188.318 20.632 188.798 21.096C189.294 21.544 190.094 21.768 191.198 21.768C191.902 21.768 192.526 21.696 193.07 21.552C193.614 21.392 194.134 21.168 194.63 20.88V23.448C194.214 23.656 193.622 23.856 192.854 24.048C192.102 24.24 191.326 24.336 190.526 24.336C189.198 24.336 188.126 24.12 187.31 23.688C186.494 23.24 185.894 22.632 185.51 21.864C185.142 21.08 184.958 20.184 184.958 19.176V12.816H182.054ZM209.152 24L208.624 18.96L209.248 17.208L208.624 15.48L209.152 10.416H212.368L211.648 17.208L212.368 24H209.152ZM210.112 17.208C209.808 18.632 209.304 19.88 208.6 20.952C207.896 22.024 207.024 22.856 205.984 23.448C204.96 24.04 203.816 24.336 202.552 24.336C201.224 24.336 200.048 24.04 199.024 23.448C198 22.84 197.2 22 196.624 20.928C196.048 19.856 195.76 18.616 195.76 17.208C195.76 15.784 196.048 14.544 196.624 13.488C197.2 12.416 198 11.584 199.024 10.992C200.048 10.384 201.224 10.08 202.552 10.08C203.816 10.08 204.96 10.376 205.984 10.968C207.024 11.56 207.896 12.392 208.6 13.464C209.32 14.52 209.824 15.768 210.112 17.208ZM198.928 17.208C198.928 18.12 199.112 18.928 199.48 19.632C199.864 20.32 200.384 20.864 201.04 21.264C201.696 21.648 202.448 21.84 203.296 21.84C204.16 21.84 204.96 21.648 205.696 21.264C206.432 20.864 207.08 20.32 207.64 19.632C208.216 18.928 208.672 18.12 209.008 17.208C208.672 16.296 208.216 15.496 207.64 14.808C207.08 14.104 206.432 13.56 205.696 13.176C204.96 12.776 204.16 12.576 203.296 12.576C202.448 12.576 201.696 12.776 201.04 13.176C200.384 13.56 199.864 14.104 199.48 14.808C199.112 15.496 198.928 16.296 198.928 17.208ZM229.435 19.872C229.435 20.784 229.179 21.576 228.667 22.248C228.155 22.92 227.379 23.44 226.339 23.808C225.299 24.16 223.995 24.336 222.427 24.336C220.811 24.336 219.411 24.136 218.227 23.736C217.043 23.32 216.123 22.744 215.467 22.008C214.827 21.256 214.483 20.392 214.435 19.416H217.603C217.699 19.928 217.955 20.384 218.371 20.784C218.803 21.168 219.363 21.464 220.051 21.672C220.755 21.88 221.555 21.984 222.451 21.984C223.747 21.984 224.723 21.832 225.379 21.528C226.035 21.208 226.363 20.728 226.363 20.088C226.363 19.656 226.139 19.328 225.691 19.104C225.259 18.88 224.435 18.712 223.219 18.6L220.555 18.36C219.115 18.232 217.979 17.976 217.147 17.592C216.315 17.192 215.723 16.712 215.371 16.152C215.019 15.576 214.843 14.968 214.843 14.328C214.843 13.4 215.131 12.624 215.707 12C216.283 11.376 217.083 10.904 218.107 10.584C219.131 10.248 220.323 10.08 221.683 10.08C223.091 10.08 224.347 10.28 225.451 10.68C226.555 11.064 227.435 11.608 228.091 12.312C228.747 13 229.115 13.8 229.195 14.712H226.027C225.963 14.344 225.771 13.992 225.451 13.656C225.147 13.304 224.675 13.016 224.035 12.792C223.411 12.552 222.571 12.432 221.515 12.432C220.395 12.432 219.515 12.576 218.875 12.864C218.251 13.152 217.939 13.576 217.939 14.136C217.939 14.488 218.131 14.792 218.515 15.048C218.899 15.288 219.611 15.456 220.651 15.552L224.083 15.864C225.459 15.992 226.531 16.24 227.299 16.608C228.083 16.96 228.635 17.416 228.955 17.976C229.275 18.536 229.435 19.168 229.435 19.872ZM240.212 13.872H253.148V16.656H240.212V13.872ZM253.532 6V8.784H240.116L241.844 6.984V24H238.676V6H253.532ZM255.176 10.416H258.296L259.112 15.36V24H255.992V14.76L255.176 10.416ZM266 10.32V13.056C265.648 12.96 265.264 12.888 264.848 12.84C264.432 12.792 264.04 12.768 263.672 12.768C262.792 12.768 262.008 12.96 261.32 13.344C260.632 13.728 260.088 14.304 259.688 15.072C259.304 15.824 259.112 16.752 259.112 17.856L258.392 16.968C258.456 16.008 258.616 15.112 258.872 14.28C259.144 13.432 259.512 12.696 259.976 12.072C260.456 11.448 261.04 10.96 261.728 10.608C262.416 10.256 263.216 10.08 264.128 10.08C264.448 10.08 264.776 10.104 265.112 10.152C265.448 10.184 265.744 10.24 266 10.32ZM274.842 24.336C273.258 24.336 271.85 24.04 270.618 23.448C269.386 22.84 268.418 22 267.714 20.928C267.01 19.856 266.658 18.608 266.658 17.184C266.658 15.776 266.986 14.544 267.642 13.488C268.314 12.416 269.234 11.584 270.402 10.992C271.586 10.384 272.938 10.08 274.458 10.08C275.978 10.08 277.29 10.424 278.394 11.112C279.514 11.784 280.378 12.736 280.986 13.968C281.594 15.2 281.898 16.648 281.898 18.312H269.106V15.936H280.338L278.778 16.824C278.73 15.928 278.514 15.16 278.13 14.52C277.762 13.88 277.258 13.392 276.618 13.056C275.994 12.704 275.25 12.528 274.386 12.528C273.474 12.528 272.674 12.712 271.986 13.08C271.314 13.448 270.786 13.968 270.402 14.64C270.018 15.296 269.826 16.08 269.826 16.992C269.826 18 270.05 18.872 270.498 19.608C270.962 20.344 271.61 20.912 272.442 21.312C273.29 21.696 274.29 21.888 275.442 21.888C276.482 21.888 277.546 21.728 278.634 21.408C279.722 21.072 280.682 20.608 281.514 20.016V22.272C280.682 22.912 279.666 23.416 278.466 23.784C277.282 24.152 276.074 24.336 274.842 24.336ZM299.465 18.648C299.305 19.768 298.865 20.76 298.145 21.624C297.425 22.472 296.505 23.136 295.385 23.616C294.265 24.096 293.017 24.336 291.641 24.336C290.073 24.336 288.689 24.04 287.489 23.448C286.305 22.84 285.377 22 284.705 20.928C284.033 19.856 283.697 18.616 283.697 17.208C283.697 15.8 284.033 14.56 284.705 13.488C285.377 12.416 286.305 11.584 287.489 10.992C288.689 10.384 290.073 10.08 291.641 10.08C293.017 10.08 294.265 10.32 295.385 10.8C296.505 11.28 297.425 11.952 298.145 12.816C298.865 13.664 299.305 14.656 299.465 15.792H296.321C296.097 14.768 295.561 13.968 294.713 13.392C293.865 12.816 292.841 12.528 291.641 12.528C290.681 12.528 289.841 12.72 289.121 13.104C288.401 13.472 287.841 14.008 287.441 14.712C287.057 15.4 286.865 16.232 286.865 17.208C286.865 18.168 287.057 19 287.441 19.704C287.841 20.408 288.401 20.952 289.121 21.336C289.841 21.704 290.681 21.888 291.641 21.888C292.857 21.888 293.889 21.592 294.737 21C295.585 20.408 296.113 19.624 296.321 18.648H299.465ZM307.52 24.336C306.272 24.336 305.208 24.08 304.328 23.568C303.464 23.056 302.8 22.32 302.336 21.36C301.872 20.4 301.64 19.256 301.64 17.928V10.416H304.76V17.448C304.76 18.856 305.08 19.928 305.72 20.664C306.376 21.384 307.312 21.744 308.528 21.744C309.408 21.744 310.16 21.552 310.784 21.168C311.424 20.784 311.92 20.24 312.272 19.536C312.624 18.816 312.8 17.984 312.8 17.04L313.88 17.64C313.752 19.032 313.4 20.232 312.824 21.24C312.248 22.232 311.504 23 310.592 23.544C309.68 24.072 308.656 24.336 307.52 24.336ZM313.592 24L312.8 19.104V10.416H315.92V19.584L316.712 24H313.592ZM326.826 24.336C325.242 24.336 323.834 24.04 322.602 23.448C321.37 22.84 320.402 22 319.698 20.928C318.994 19.856 318.642 18.608 318.642 17.184C318.642 15.776 318.97 14.544 319.626 13.488C320.298 12.416 321.218 11.584 322.386 10.992C323.57 10.384 324.922 10.08 326.442 10.08C327.962 10.08 329.274 10.424 330.378 11.112C331.498 11.784 332.362 12.736 332.97 13.968C333.578 15.2 333.882 16.648 333.882 18.312H321.09V15.936H332.322L330.762 16.824C330.714 15.928 330.498 15.16 330.114 14.52C329.746 13.88 329.242 13.392 328.602 13.056C327.978 12.704 327.234 12.528 326.37 12.528C325.458 12.528 324.658 12.712 323.97 13.08C323.298 13.448 322.77 13.968 322.386 14.64C322.002 15.296 321.81 16.08 321.81 16.992C321.81 18 322.034 18.872 322.482 19.608C322.946 20.344 323.594 20.912 324.426 21.312C325.274 21.696 326.274 21.888 327.426 21.888C328.466 21.888 329.53 21.728 330.618 21.408C331.706 21.072 332.666 20.608 333.498 20.016V22.272C332.666 22.912 331.65 23.416 330.45 23.784C329.266 24.152 328.058 24.336 326.826 24.336ZM335.801 10.416H338.921L339.737 15.312V24H336.617V14.856L335.801 10.416ZM345.137 10.08C346.417 10.08 347.505 10.336 348.401 10.848C349.297 11.36 349.977 12.096 350.441 13.056C350.921 14 351.161 15.144 351.161 16.488V24H348.041V16.992C348.041 15.568 347.705 14.496 347.033 13.776C346.377 13.04 345.409 12.672 344.129 12.672C343.249 12.672 342.473 12.872 341.801 13.272C341.145 13.656 340.633 14.2 340.265 14.904C339.913 15.608 339.737 16.432 339.737 17.376L338.633 16.776C338.777 15.368 339.145 14.168 339.737 13.176C340.329 12.184 341.089 11.424 342.017 10.896C342.945 10.352 343.985 10.08 345.137 10.08ZM352.561 12.816V11.4L355.465 10.656L356.761 6.864H358.585V10.416H364.897V12.816H358.585V18.696C358.585 19.832 358.825 20.632 359.305 21.096C359.801 21.544 360.601 21.768 361.705 21.768C362.409 21.768 363.033 21.696 363.577 21.552C364.121 21.392 364.641 21.168 365.137 20.88V23.448C364.721 23.656 364.129 23.856 363.361 24.048C362.609 24.24 361.833 24.336 361.033 24.336C359.705 24.336 358.633 24.12 357.817 23.688C357.001 23.24 356.401 22.632 356.017 21.864C355.649 21.08 355.465 20.184 355.465 19.176V12.816H352.561ZM374.357 24.336C372.773 24.336 371.365 24.04 370.133 23.448C368.901 22.84 367.933 22 367.229 20.928C366.525 19.856 366.173 18.608 366.173 17.184C366.173 15.776 366.501 14.544 367.157 13.488C367.829 12.416 368.749 11.584 369.917 10.992C371.101 10.384 372.453 10.08 373.973 10.08C375.493 10.08 376.805 10.424 377.909 11.112C379.029 11.784 379.893 12.736 380.501 13.968C381.109 15.2 381.413 16.648 381.413 18.312H368.621V15.936H379.853L378.293 16.824C378.245 15.928 378.029 15.16 377.645 14.52C377.277 13.88 376.773 13.392 376.133 13.056C375.509 12.704 374.765 12.528 373.901 12.528C372.989 12.528 372.189 12.712 371.501 13.08C370.829 13.448 370.301 13.968 369.917 14.64C369.533 15.296 369.341 16.08 369.341 16.992C369.341 18 369.565 18.872 370.013 19.608C370.477 20.344 371.125 20.912 371.957 21.312C372.805 21.696 373.805 21.888 374.957 21.888C375.997 21.888 377.061 21.728 378.149 21.408C379.237 21.072 380.197 20.608 381.029 20.016V22.272C380.197 22.912 379.181 23.416 377.981 23.784C376.797 24.152 375.589 24.336 374.357 24.336ZM398.044 19.872C398.044 20.784 397.788 21.576 397.276 22.248C396.764 22.92 395.988 23.44 394.948 23.808C393.908 24.16 392.604 24.336 391.036 24.336C389.42 24.336 388.02 24.136 386.836 23.736C385.652 23.32 384.732 22.744 384.076 22.008C383.436 21.256 383.092 20.392 383.044 19.416H386.212C386.308 19.928 386.564 20.384 386.98 20.784C387.412 21.168 387.972 21.464 388.66 21.672C389.364 21.88 390.164 21.984 391.06 21.984C392.356 21.984 393.332 21.832 393.988 21.528C394.644 21.208 394.972 20.728 394.972 20.088C394.972 19.656 394.748 19.328 394.3 19.104C393.868 18.88 393.044 18.712 391.828 18.6L389.164 18.36C387.724 18.232 386.588 17.976 385.756 17.592C384.924 17.192 384.332 16.712 383.98 16.152C383.628 15.576 383.452 14.968 383.452 14.328C383.452 13.4 383.74 12.624 384.316 12C384.892 11.376 385.692 10.904 386.716 10.584C387.74 10.248 388.932 10.08 390.292 10.08C391.7 10.08 392.956 10.28 394.06 10.68C395.164 11.064 396.044 11.608 396.7 12.312C397.356 13 397.724 13.8 397.804 14.712H394.636C394.572 14.344 394.38 13.992 394.06 13.656C393.756 13.304 393.284 13.016 392.644 12.792C392.02 12.552 391.18 12.432 390.124 12.432C389.004 12.432 388.124 12.576 387.484 12.864C386.86 13.152 386.548 13.576 386.548 14.136C386.548 14.488 386.74 14.792 387.124 15.048C387.508 15.288 388.22 15.456 389.26 15.552L392.692 15.864C394.068 15.992 395.14 16.24 395.908 16.608C396.692 16.96 397.244 17.416 397.564 17.976C397.884 18.536 398.044 19.168 398.044 19.872Z" fill="white"/>
<line x1="174" y1="44" x2="225" y2="44" stroke="white" stroke-width="2" stroke-linecap="round"/>
</svg>
