<svg width="27" height="15" viewBox="0 0 27 15" fill="none" xmlns="http://www.w3.org/2000/svg">
<path d="M13.5 15C13.697 15 13.8811 14.9642 14.0521 14.8926C14.2232 14.8211 14.3814 14.7137 14.5265 14.5706L26.5802 2.40797C26.8601 2.1319 27 1.79959 27 1.41105C27 1.14519 26.9378 0.90746 26.8133 0.697843C26.689 0.488238 26.5206 0.319529 26.308 0.191718C26.0954 0.0639063 25.8544 -4.24306e-07 25.5848 -4.59657e-07C25.2011 -5.09976e-07 24.8641 0.138035 24.5738 0.414107L13.5 11.5798L2.42628 0.414104C2.13595 0.138032 1.79897 -3.57879e-06 1.41533 -3.6291e-06C1.14574 -3.66445e-06 0.904669 0.063903 0.692111 0.191714C0.479553 0.319526 0.311063 0.488235 0.186639 0.69784C0.0622142 0.907456 1.81684e-06 1.14519 1.78198e-06 1.41104C1.73102e-06 1.79959 0.134794 2.1319 0.40438 2.40797L12.4735 14.5706C12.6187 14.7137 12.7768 14.8211 12.9479 14.8926C13.119 14.9642 13.303 15 13.5 15Z" fill="white"/>
</svg>
