<svg width="46" height="26" viewBox="0 0 46 26" fill="none" xmlns="http://www.w3.org/2000/svg">
<path d="M23 26C23.3357 26 23.6492 25.938 23.9407 25.8139C24.2322 25.6898 24.5016 25.5038 24.7489 25.2556L45.2848 4.17382C45.7616 3.69529 46 3.11929 46 2.44582C46 1.985 45.894 1.57293 45.682 1.2096C45.4702 0.846279 45.1832 0.553852 44.821 0.332312C44.4589 0.110771 44.0482 5.4175e-08 43.5889 -6.05251e-09C42.9352 -9.17801e-08 42.361 0.239261 41.8665 0.717787L23 20.0716L4.13366 0.717782C3.63903 0.239256 3.06491 -5.32013e-06 2.4113 -5.40584e-06C1.952 -5.46607e-06 1.54129 0.110766 1.17915 0.332306C0.817016 0.553846 0.529958 0.846273 0.317977 1.20959C0.105995 1.57293 3.14919e-06 1.985 3.08876e-06 2.44581C3.00044e-06 3.11929 0.22965 3.69529 0.688943 4.17381L21.2512 25.2556C21.4985 25.5038 21.7679 25.6898 22.0594 25.8139C22.3508 25.938 22.6644 26 23 26Z" fill="#58119C"/>
</svg>
