<svg width="484" height="45" viewBox="0 0 484 45" fill="none" xmlns="http://www.w3.org/2000/svg">
<path d="M5.22697 6V22.584L3.81097 21.216H17.371V24H2.05897V6H5.22697ZM28.083 24.336C26.035 24.336 24.235 23.944 22.683 23.16C21.131 22.376 19.923 21.288 19.059 19.896C18.195 18.488 17.763 16.856 17.763 15C17.763 13.144 18.195 11.52 19.059 10.128C19.923 8.72 21.131 7.624 22.683 6.84C24.235 6.056 26.035 5.664 28.083 5.664C30.131 5.664 31.931 6.056 33.483 6.84C35.035 7.624 36.243 8.72 37.107 10.128C37.971 11.52 38.403 13.144 38.403 15C38.403 16.856 37.971 18.488 37.107 19.896C36.243 21.288 35.035 22.376 33.483 23.16C31.931 23.944 30.131 24.336 28.083 24.336ZM28.083 21.504C29.539 21.504 30.795 21.24 31.851 20.712C32.907 20.184 33.723 19.432 34.299 18.456C34.891 17.48 35.187 16.328 35.187 15C35.187 13.672 34.891 12.52 34.299 11.544C33.723 10.568 32.907 9.816 31.851 9.288C30.795 8.76 29.539 8.496 28.083 8.496C26.643 8.496 25.387 8.76 24.315 9.288C23.259 9.816 22.435 10.568 21.843 11.544C21.267 12.52 20.979 13.672 20.979 15C20.979 16.328 21.267 17.48 21.843 18.456C22.435 19.432 23.259 20.184 24.315 20.712C25.387 21.24 26.643 21.504 28.083 21.504ZM40.3768 18.144H43.5928C43.6888 18.864 43.9848 19.496 44.4808 20.04C44.9928 20.584 45.6648 21.008 46.4968 21.312C47.3288 21.6 48.2888 21.744 49.3768 21.744C50.9928 21.744 52.2728 21.496 53.2168 21C54.1608 20.488 54.6328 19.8 54.6328 18.936C54.6328 18.232 54.3608 17.704 53.8168 17.352C53.2728 17 52.2888 16.736 50.8648 16.56L46.9768 16.056C44.8008 15.768 43.2168 15.232 42.2248 14.448C41.2488 13.648 40.7608 12.52 40.7608 11.064C40.7608 9.96 41.0888 9.008 41.7448 8.208C42.4168 7.392 43.3608 6.768 44.5768 6.336C45.7928 5.888 47.2168 5.664 48.8488 5.664C50.4648 5.664 51.8968 5.904 53.1448 6.384C54.3928 6.864 55.3848 7.536 56.1208 8.4C56.8728 9.248 57.2808 10.248 57.3448 11.4H54.1288C54.0488 10.76 53.7768 10.208 53.3128 9.744C52.8648 9.28 52.2568 8.92 51.4888 8.664C50.7208 8.392 49.8168 8.256 48.7768 8.256C47.3048 8.256 46.1288 8.496 45.2488 8.976C44.3688 9.456 43.9288 10.112 43.9288 10.944C43.9288 11.584 44.1848 12.08 44.6968 12.432C45.2248 12.768 46.1368 13.024 47.4328 13.2L51.3688 13.752C52.9848 13.976 54.2568 14.28 55.1848 14.664C56.1288 15.032 56.8008 15.536 57.2008 16.176C57.6008 16.8 57.8008 17.608 57.8008 18.6C57.8008 19.752 57.4488 20.76 56.7448 21.624C56.0408 22.488 55.0488 23.16 53.7688 23.64C52.5048 24.104 51.0248 24.336 49.3288 24.336C47.6008 24.336 46.0728 24.08 44.7448 23.568C43.4328 23.04 42.3928 22.312 41.6248 21.384C40.8568 20.456 40.4408 19.376 40.3768 18.144ZM65.994 18.144H69.21C69.306 18.864 69.602 19.496 70.098 20.04C70.61 20.584 71.282 21.008 72.114 21.312C72.946 21.6 73.906 21.744 74.994 21.744C76.61 21.744 77.89 21.496 78.834 21C79.778 20.488 80.25 19.8 80.25 18.936C80.25 18.232 79.978 17.704 79.434 17.352C78.89 17 77.906 16.736 76.482 16.56L72.594 16.056C70.418 15.768 68.834 15.232 67.842 14.448C66.866 13.648 66.378 12.52 66.378 11.064C66.378 9.96 66.706 9.008 67.362 8.208C68.034 7.392 68.978 6.768 70.194 6.336C71.41 5.888 72.834 5.664 74.466 5.664C76.082 5.664 77.514 5.904 78.762 6.384C80.01 6.864 81.002 7.536 81.738 8.4C82.49 9.248 82.898 10.248 82.962 11.4H79.746C79.666 10.76 79.394 10.208 78.93 9.744C78.482 9.28 77.874 8.92 77.106 8.664C76.338 8.392 75.434 8.256 74.394 8.256C72.922 8.256 71.746 8.496 70.866 8.976C69.986 9.456 69.546 10.112 69.546 10.944C69.546 11.584 69.802 12.08 70.314 12.432C70.842 12.768 71.754 13.024 73.05 13.2L76.986 13.752C78.602 13.976 79.874 14.28 80.802 14.664C81.746 15.032 82.418 15.536 82.818 16.176C83.218 16.8 83.418 17.608 83.418 18.6C83.418 19.752 83.066 20.76 82.362 21.624C81.658 22.488 80.666 23.16 79.386 23.64C78.122 24.104 76.642 24.336 74.946 24.336C73.218 24.336 71.69 24.08 70.362 23.568C69.05 23.04 68.01 22.312 67.242 21.384C66.474 20.456 66.058 19.376 65.994 18.144ZM100.74 13.68V16.32H88.1637V13.68H100.74ZM90.2517 15L88.9797 23.04L87.4677 21.264H101.436V24H85.7397L87.1797 15L85.7397 6H101.316V8.736H87.4677L88.9797 6.96L90.2517 15ZM106.947 14.112H114.267C115.323 14.112 116.155 13.872 116.763 13.392C117.387 12.912 117.699 12.256 117.699 11.424C117.699 10.576 117.387 9.92 116.763 9.456C116.155 8.976 115.323 8.736 114.267 8.736H106.491L107.907 6.96V24H104.739V6H114.555C115.819 6 116.923 6.232 117.867 6.696C118.827 7.144 119.571 7.776 120.099 8.592C120.643 9.392 120.915 10.336 120.915 11.424C120.915 12.48 120.643 13.416 120.099 14.232C119.571 15.032 118.827 15.664 117.867 16.128C116.923 16.576 115.819 16.8 114.555 16.8H106.947V14.112ZM110.499 15.576H114.219L121.371 24H117.579L110.499 15.576ZM132.733 22.656H131.245L138.997 6H142.381L133.693 24H130.165L121.477 6H124.885L132.733 22.656ZM144.559 6H147.727V24H144.559V6ZM170.738 16.872C170.578 18.344 170.058 19.648 169.178 20.784C168.314 21.904 167.178 22.776 165.77 23.4C164.362 24.024 162.754 24.336 160.946 24.336C158.93 24.336 157.162 23.944 155.642 23.16C154.122 22.376 152.938 21.288 152.09 19.896C151.242 18.488 150.818 16.856 150.818 15C150.818 13.144 151.242 11.52 152.09 10.128C152.938 8.72 154.122 7.624 155.642 6.84C157.162 6.056 158.93 5.664 160.946 5.664C162.754 5.664 164.362 5.976 165.77 6.6C167.178 7.224 168.314 8.096 169.178 9.216C170.058 10.336 170.578 11.64 170.738 13.128H167.546C167.37 12.168 166.986 11.344 166.394 10.656C165.818 9.968 165.066 9.44 164.138 9.072C163.21 8.688 162.138 8.496 160.922 8.496C159.514 8.496 158.29 8.76 157.25 9.288C156.226 9.816 155.434 10.568 154.874 11.544C154.314 12.52 154.034 13.672 154.034 15C154.034 16.328 154.314 17.48 154.874 18.456C155.434 19.432 156.226 20.184 157.25 20.712C158.29 21.24 159.514 21.504 160.922 21.504C162.138 21.504 163.21 21.32 164.138 20.952C165.066 20.584 165.818 20.056 166.394 19.368C166.986 18.664 167.37 17.832 167.546 16.872H170.738ZM173.645 6H176.813V24H173.645V6ZM190.2 24.336C188.152 24.336 186.352 23.944 184.8 23.16C183.248 22.376 182.04 21.288 181.176 19.896C180.312 18.488 179.88 16.856 179.88 15C179.88 13.144 180.312 11.52 181.176 10.128C182.04 8.72 183.248 7.624 184.8 6.84C186.352 6.056 188.152 5.664 190.2 5.664C192.248 5.664 194.048 6.056 195.6 6.84C197.152 7.624 198.36 8.72 199.224 10.128C200.088 11.52 200.52 13.144 200.52 15C200.52 16.856 200.088 18.488 199.224 19.896C198.36 21.288 197.152 22.376 195.6 23.16C194.048 23.944 192.248 24.336 190.2 24.336ZM190.2 21.504C191.656 21.504 192.912 21.24 193.968 20.712C195.024 20.184 195.84 19.432 196.416 18.456C197.008 17.48 197.304 16.328 197.304 15C197.304 13.672 197.008 12.52 196.416 11.544C195.84 10.568 195.024 9.816 193.968 9.288C192.912 8.76 191.656 8.496 190.2 8.496C188.76 8.496 187.504 8.76 186.432 9.288C185.376 9.816 184.552 10.568 183.96 11.544C183.384 12.52 183.096 13.672 183.096 15C183.096 16.328 183.384 17.48 183.96 18.456C184.552 19.432 185.376 20.184 186.432 20.712C187.504 21.24 188.76 21.504 190.2 21.504ZM202.494 18.144H205.71C205.806 18.864 206.102 19.496 206.598 20.04C207.11 20.584 207.782 21.008 208.614 21.312C209.446 21.6 210.406 21.744 211.494 21.744C213.11 21.744 214.39 21.496 215.334 21C216.278 20.488 216.75 19.8 216.75 18.936C216.75 18.232 216.478 17.704 215.934 17.352C215.39 17 214.406 16.736 212.982 16.56L209.094 16.056C206.918 15.768 205.334 15.232 204.342 14.448C203.366 13.648 202.878 12.52 202.878 11.064C202.878 9.96 203.206 9.008 203.862 8.208C204.534 7.392 205.478 6.768 206.694 6.336C207.91 5.888 209.334 5.664 210.966 5.664C212.582 5.664 214.014 5.904 215.262 6.384C216.51 6.864 217.502 7.536 218.238 8.4C218.99 9.248 219.398 10.248 219.462 11.4H216.246C216.166 10.76 215.894 10.208 215.43 9.744C214.982 9.28 214.374 8.92 213.606 8.664C212.838 8.392 211.934 8.256 210.894 8.256C209.422 8.256 208.246 8.496 207.366 8.976C206.486 9.456 206.046 10.112 206.046 10.944C206.046 11.584 206.302 12.08 206.814 12.432C207.342 12.768 208.254 13.024 209.55 13.2L213.486 13.752C215.102 13.976 216.374 14.28 217.302 14.664C218.246 15.032 218.918 15.536 219.318 16.176C219.718 16.8 219.918 17.608 219.918 18.6C219.918 19.752 219.566 20.76 218.862 21.624C218.158 22.488 217.166 23.16 215.886 23.64C214.622 24.104 213.142 24.336 211.446 24.336C209.718 24.336 208.19 24.08 206.862 23.568C205.55 23.04 204.51 22.312 203.742 21.384C202.974 20.456 202.558 19.376 202.494 18.144ZM236.295 17.136H240.159L248.151 25.248H244.215L236.295 17.136ZM238.575 24.336C236.527 24.336 234.727 23.944 233.175 23.16C231.623 22.376 230.415 21.288 229.551 19.896C228.687 18.488 228.255 16.856 228.255 15C228.255 13.144 228.687 11.52 229.551 10.128C230.415 8.72 231.623 7.624 233.175 6.84C234.727 6.056 236.527 5.664 238.575 5.664C240.623 5.664 242.423 6.056 243.975 6.84C245.527 7.624 246.735 8.72 247.599 10.128C248.463 11.52 248.895 13.144 248.895 15C248.895 16.856 248.463 18.488 247.599 19.896C246.735 21.288 245.527 22.376 243.975 23.16C242.423 23.944 240.623 24.336 238.575 24.336ZM238.575 21.504C240.031 21.504 241.287 21.24 242.343 20.712C243.399 20.184 244.215 19.432 244.791 18.456C245.383 17.48 245.679 16.328 245.679 15C245.679 13.672 245.383 12.52 244.791 11.544C244.215 10.568 243.399 9.816 242.343 9.288C241.287 8.76 240.031 8.496 238.575 8.496C237.135 8.496 235.879 8.76 234.807 9.288C233.751 9.816 232.927 10.568 232.335 11.544C231.759 12.52 231.471 13.672 231.471 15C231.471 16.328 231.759 17.48 232.335 18.456C232.927 19.432 233.751 20.184 234.807 20.712C235.879 21.24 237.135 21.504 238.575 21.504ZM254.901 16.272C254.901 17.344 255.117 18.272 255.549 19.056C255.981 19.84 256.597 20.448 257.397 20.88C258.213 21.296 259.181 21.504 260.301 21.504C261.437 21.504 262.405 21.296 263.205 20.88C264.005 20.448 264.621 19.84 265.053 19.056C265.485 18.272 265.701 17.344 265.701 16.272V6H268.869V16.392C268.869 17.976 268.509 19.368 267.789 20.568C267.069 21.752 266.069 22.68 264.789 23.352C263.509 24.008 262.013 24.336 260.301 24.336C258.605 24.336 257.109 24.008 255.813 23.352C254.533 22.68 253.533 21.752 252.813 20.568C252.093 19.368 251.733 17.976 251.733 16.392V6H254.901V16.272ZM287.044 13.68V16.32H274.468V13.68H287.044ZM276.556 15L275.284 23.04L273.772 21.264H287.74V24H272.044L273.484 15L272.044 6H287.62V8.736H273.772L275.284 6.96L276.556 15ZM306.755 24.336C304.707 24.336 302.907 23.944 301.355 23.16C299.803 22.376 298.595 21.288 297.731 19.896C296.867 18.488 296.435 16.856 296.435 15C296.435 13.144 296.867 11.52 297.731 10.128C298.595 8.72 299.803 7.624 301.355 6.84C302.907 6.056 304.707 5.664 306.755 5.664C308.803 5.664 310.603 6.056 312.155 6.84C313.707 7.624 314.915 8.72 315.779 10.128C316.643 11.52 317.075 13.144 317.075 15C317.075 16.856 316.643 18.488 315.779 19.896C314.915 21.288 313.707 22.376 312.155 23.16C310.603 23.944 308.803 24.336 306.755 24.336ZM306.755 21.504C308.211 21.504 309.467 21.24 310.523 20.712C311.579 20.184 312.395 19.432 312.971 18.456C313.563 17.48 313.859 16.328 313.859 15C313.859 13.672 313.563 12.52 312.971 11.544C312.395 10.568 311.579 9.816 310.523 9.288C309.467 8.76 308.211 8.496 306.755 8.496C305.315 8.496 304.059 8.76 302.987 9.288C301.931 9.816 301.107 10.568 300.515 11.544C299.939 12.52 299.651 13.672 299.651 15C299.651 16.328 299.939 17.48 300.515 18.456C301.107 19.432 301.931 20.184 302.987 20.712C304.059 21.24 305.315 21.504 306.755 21.504ZM321.689 13.872H334.625V16.656H321.689V13.872ZM335.009 6V8.784H321.593L323.321 6.984V24H320.153V6H335.009ZM340.126 14.112H347.446C348.502 14.112 349.334 13.872 349.942 13.392C350.566 12.912 350.878 12.256 350.878 11.424C350.878 10.576 350.566 9.92 349.942 9.456C349.334 8.976 348.502 8.736 347.446 8.736H339.67L341.086 6.96V24H337.918V6H347.734C348.998 6 350.102 6.232 351.046 6.696C352.006 7.144 352.75 7.776 353.278 8.592C353.822 9.392 354.094 10.336 354.094 11.424C354.094 12.48 353.822 13.416 353.278 14.232C352.75 15.032 352.006 15.664 351.046 16.128C350.102 16.576 348.998 16.8 347.734 16.8H340.126V14.112ZM343.678 15.576H347.398L354.55 24H350.758L343.678 15.576ZM371.747 13.68V16.32H359.171V13.68H371.747ZM361.259 15L359.987 23.04L358.475 21.264H372.443V24H356.747L358.187 15L356.747 6H372.323V8.736H358.475L359.987 6.96L361.259 15ZM394.426 16.872C394.266 18.344 393.746 19.648 392.866 20.784C392.002 21.904 390.866 22.776 389.458 23.4C388.05 24.024 386.442 24.336 384.634 24.336C382.618 24.336 380.85 23.944 379.33 23.16C377.81 22.376 376.626 21.288 375.778 19.896C374.93 18.488 374.506 16.856 374.506 15C374.506 13.144 374.93 11.52 375.778 10.128C376.626 8.72 377.81 7.624 379.33 6.84C380.85 6.056 382.618 5.664 384.634 5.664C386.442 5.664 388.05 5.976 389.458 6.6C390.866 7.224 392.002 8.096 392.866 9.216C393.746 10.336 394.266 11.64 394.426 13.128H391.234C391.058 12.168 390.674 11.344 390.082 10.656C389.506 9.968 388.754 9.44 387.826 9.072C386.898 8.688 385.826 8.496 384.61 8.496C383.202 8.496 381.978 8.76 380.938 9.288C379.914 9.816 379.122 10.568 378.562 11.544C378.002 12.52 377.722 13.672 377.722 15C377.722 16.328 378.002 17.48 378.562 18.456C379.122 19.432 379.914 20.184 380.938 20.712C381.978 21.24 383.202 21.504 384.61 21.504C385.826 21.504 386.898 21.32 387.826 20.952C388.754 20.584 389.506 20.056 390.082 19.368C390.674 18.664 391.058 17.832 391.234 16.872H394.426ZM411.708 13.68V16.32H399.132V13.68H411.708ZM401.22 15L399.948 23.04L398.436 21.264H412.404V24H396.708L398.148 15L396.708 6H412.284V8.736H398.436L399.948 6.96L401.22 15ZM439.923 6V24H436.899V6.96L437.883 7.008L429.507 24H426.123L417.747 7.032L418.731 6.984V24H415.707V6H420.555L428.619 22.632H427.035L435.075 6H439.923ZM453.31 24.336C451.262 24.336 449.462 23.944 447.91 23.16C446.358 22.376 445.15 21.288 444.286 19.896C443.422 18.488 442.99 16.856 442.99 15C442.99 13.144 443.422 11.52 444.286 10.128C445.15 8.72 446.358 7.624 447.91 6.84C449.462 6.056 451.262 5.664 453.31 5.664C455.358 5.664 457.158 6.056 458.71 6.84C460.262 7.624 461.47 8.72 462.334 10.128C463.198 11.52 463.63 13.144 463.63 15C463.63 16.856 463.198 18.488 462.334 19.896C461.47 21.288 460.262 22.376 458.71 23.16C457.158 23.944 455.358 24.336 453.31 24.336ZM453.31 21.504C454.766 21.504 456.022 21.24 457.078 20.712C458.134 20.184 458.95 19.432 459.526 18.456C460.118 17.48 460.414 16.328 460.414 15C460.414 13.672 460.118 12.52 459.526 11.544C458.95 10.568 458.134 9.816 457.078 9.288C456.022 8.76 454.766 8.496 453.31 8.496C451.87 8.496 450.614 8.76 449.542 9.288C448.486 9.816 447.662 10.568 447.07 11.544C446.494 12.52 446.206 13.672 446.206 15C446.206 16.328 446.494 17.48 447.07 18.456C447.662 19.432 448.486 20.184 449.542 20.712C450.614 21.24 451.87 21.504 453.31 21.504ZM465.603 18.144H468.819C468.915 18.864 469.211 19.496 469.707 20.04C470.219 20.584 470.891 21.008 471.723 21.312C472.555 21.6 473.515 21.744 474.603 21.744C476.219 21.744 477.499 21.496 478.443 21C479.387 20.488 479.859 19.8 479.859 18.936C479.859 18.232 479.587 17.704 479.043 17.352C478.499 17 477.515 16.736 476.091 16.56L472.203 16.056C470.027 15.768 468.443 15.232 467.451 14.448C466.475 13.648 465.987 12.52 465.987 11.064C465.987 9.96 466.315 9.008 466.971 8.208C467.643 7.392 468.587 6.768 469.803 6.336C471.019 5.888 472.443 5.664 474.075 5.664C475.691 5.664 477.123 5.904 478.371 6.384C479.619 6.864 480.611 7.536 481.347 8.4C482.099 9.248 482.507 10.248 482.571 11.4H479.355C479.275 10.76 479.003 10.208 478.539 9.744C478.091 9.28 477.483 8.92 476.715 8.664C475.947 8.392 475.043 8.256 474.003 8.256C472.531 8.256 471.355 8.496 470.475 8.976C469.595 9.456 469.155 10.112 469.155 10.944C469.155 11.584 469.411 12.08 469.923 12.432C470.451 12.768 471.363 13.024 472.659 13.2L476.595 13.752C478.211 13.976 479.483 14.28 480.411 14.664C481.355 15.032 482.027 15.536 482.427 16.176C482.827 16.8 483.027 17.608 483.027 18.6C483.027 19.752 482.675 20.76 481.971 21.624C481.267 22.488 480.275 23.16 478.995 23.64C477.731 24.104 476.251 24.336 474.555 24.336C472.827 24.336 471.299 24.08 469.971 23.568C468.659 23.04 467.619 22.312 466.851 21.384C466.083 20.456 465.667 19.376 465.603 18.144Z" fill="#431C6B"/>
<line x1="215" y1="44" x2="268" y2="44" stroke="#431C6B" stroke-width="2" stroke-linecap="round"/>
</svg>
