<svg width="589" height="90" viewBox="0 0 589 90" fill="none" xmlns="http://www.w3.org/2000/svg">
<path d="M2.29334 11H5.46134V29H2.29334V11ZM8.36347 15.416H11.4835L12.2995 20.312V29H9.17947V19.856L8.36347 15.416ZM17.6995 15.08C18.9795 15.08 20.0675 15.336 20.9635 15.848C21.8595 16.36 22.5395 17.096 23.0035 18.056C23.4835 19 23.7235 20.144 23.7235 21.488V29H20.6035V21.992C20.6035 20.568 20.2675 19.496 19.5955 18.776C18.9395 18.04 17.9715 17.672 16.6915 17.672C15.8115 17.672 15.0355 17.872 14.3635 18.272C13.7075 18.656 13.1955 19.2 12.8275 19.904C12.4755 20.608 12.2995 21.432 12.2995 22.376L11.1955 21.776C11.3395 20.368 11.7075 19.168 12.2995 18.176C12.8915 17.184 13.6515 16.424 14.5795 15.896C15.5075 15.352 16.5475 15.08 17.6995 15.08ZM26.8474 15.32L28.4074 15.608L29.9674 15.32V29H26.8474V15.32ZM28.4074 13.616C27.8154 13.616 27.3274 13.456 26.9434 13.136C26.5594 12.8 26.3674 12.368 26.3674 11.84C26.3674 11.312 26.5594 10.888 26.9434 10.568C27.3274 10.232 27.8154 10.064 28.4074 10.064C29.0154 10.064 29.5034 10.232 29.8714 10.568C30.2554 10.888 30.4474 11.312 30.4474 11.84C30.4474 12.368 30.2554 12.8 29.8714 13.136C29.5034 13.456 29.0154 13.616 28.4074 13.616ZM48.2693 23.648C48.1093 24.768 47.6693 25.76 46.9493 26.624C46.2293 27.472 45.3093 28.136 44.1893 28.616C43.0693 29.096 41.8213 29.336 40.4453 29.336C38.8773 29.336 37.4933 29.04 36.2933 28.448C35.1093 27.84 34.1813 27 33.5093 25.928C32.8373 24.856 32.5013 23.616 32.5013 22.208C32.5013 20.8 32.8373 19.56 33.5093 18.488C34.1813 17.416 35.1093 16.584 36.2933 15.992C37.4933 15.384 38.8773 15.08 40.4453 15.08C41.8213 15.08 43.0693 15.32 44.1893 15.8C45.3093 16.28 46.2293 16.952 46.9493 17.816C47.6693 18.664 48.1093 19.656 48.2693 20.792H45.1253C44.9013 19.768 44.3653 18.968 43.5173 18.392C42.6693 17.816 41.6453 17.528 40.4453 17.528C39.4853 17.528 38.6453 17.72 37.9253 18.104C37.2053 18.472 36.6453 19.008 36.2453 19.712C35.8613 20.4 35.6693 21.232 35.6693 22.208C35.6693 23.168 35.8613 24 36.2453 24.704C36.6453 25.408 37.2053 25.952 37.9253 26.336C38.6453 26.704 39.4853 26.888 40.4453 26.888C41.6613 26.888 42.6933 26.592 43.5413 26C44.3893 25.408 44.9173 24.624 45.1253 23.648H48.2693ZM50.6365 15.32L52.1965 15.608L53.7565 15.32V29H50.6365V15.32ZM52.1965 13.616C51.6045 13.616 51.1165 13.456 50.7325 13.136C50.3485 12.8 50.1565 12.368 50.1565 11.84C50.1565 11.312 50.3485 10.888 50.7325 10.568C51.1165 10.232 51.6045 10.064 52.1965 10.064C52.8045 10.064 53.2925 10.232 53.6605 10.568C54.0445 10.888 54.2365 11.312 54.2365 11.84C54.2365 12.368 54.0445 12.8 53.6605 13.136C53.2925 13.456 52.8045 13.616 52.1965 13.616ZM69.7303 29L69.2023 23.96L69.8263 22.208L69.2023 20.48L69.7303 15.416H72.9463L72.2263 22.208L72.9463 29H69.7303ZM70.6903 22.208C70.3863 23.632 69.8823 24.88 69.1783 25.952C68.4743 27.024 67.6023 27.856 66.5623 28.448C65.5383 29.04 64.3943 29.336 63.1303 29.336C61.8023 29.336 60.6263 29.04 59.6023 28.448C58.5783 27.84 57.7783 27 57.2023 25.928C56.6263 24.856 56.3383 23.616 56.3383 22.208C56.3383 20.784 56.6263 19.544 57.2023 18.488C57.7783 17.416 58.5783 16.584 59.6023 15.992C60.6263 15.384 61.8023 15.08 63.1303 15.08C64.3943 15.08 65.5383 15.376 66.5623 15.968C67.6023 16.56 68.4743 17.392 69.1783 18.464C69.8983 19.52 70.4023 20.768 70.6903 22.208ZM59.5063 22.208C59.5063 23.12 59.6903 23.928 60.0583 24.632C60.4423 25.32 60.9623 25.864 61.6183 26.264C62.2743 26.648 63.0263 26.84 63.8743 26.84C64.7383 26.84 65.5383 26.648 66.2743 26.264C67.0103 25.864 67.6583 25.32 68.2183 24.632C68.7943 23.928 69.2503 23.12 69.5863 22.208C69.2503 21.296 68.7943 20.496 68.2183 19.808C67.6583 19.104 67.0103 18.56 66.2743 18.176C65.5383 17.776 64.7383 17.576 63.8743 17.576C63.0263 17.576 62.2743 17.776 61.6183 18.176C60.9623 18.56 60.4423 19.104 60.0583 19.808C59.6903 20.496 59.5063 21.296 59.5063 22.208ZM80.202 17.816V16.4L83.106 15.656L84.402 11.864H86.226V15.416H92.538V17.816H86.226V23.696C86.226 24.832 86.466 25.632 86.946 26.096C87.442 26.544 88.242 26.768 89.346 26.768C90.05 26.768 90.674 26.696 91.218 26.552C91.762 26.392 92.282 26.168 92.778 25.88V28.448C92.362 28.656 91.77 28.856 91.002 29.048C90.25 29.24 89.474 29.336 88.674 29.336C87.346 29.336 86.274 29.12 85.458 28.688C84.642 28.24 84.042 27.632 83.658 26.864C83.29 26.08 83.106 25.184 83.106 24.176V17.816H80.202ZM100.739 29.336C99.4905 29.336 98.4265 29.08 97.5465 28.568C96.6825 28.056 96.0185 27.32 95.5545 26.36C95.0905 25.4 94.8585 24.256 94.8585 22.928V15.416H97.9785V22.448C97.9785 23.856 98.2985 24.928 98.9385 25.664C99.5945 26.384 100.531 26.744 101.747 26.744C102.627 26.744 103.379 26.552 104.003 26.168C104.643 25.784 105.139 25.24 105.491 24.536C105.843 23.816 106.019 22.984 106.019 22.04L107.099 22.64C106.971 24.032 106.619 25.232 106.043 26.24C105.467 27.232 104.723 28 103.811 28.544C102.899 29.072 101.875 29.336 100.739 29.336ZM106.811 29L106.019 24.104V15.416H109.139V24.584L109.931 29H106.811ZM126.693 24.872C126.693 25.784 126.437 26.576 125.925 27.248C125.413 27.92 124.637 28.44 123.597 28.808C122.557 29.16 121.253 29.336 119.685 29.336C118.069 29.336 116.669 29.136 115.485 28.736C114.301 28.32 113.381 27.744 112.725 27.008C112.085 26.256 111.741 25.392 111.693 24.416H114.861C114.957 24.928 115.213 25.384 115.629 25.784C116.061 26.168 116.621 26.464 117.309 26.672C118.013 26.88 118.813 26.984 119.709 26.984C121.005 26.984 121.981 26.832 122.637 26.528C123.293 26.208 123.621 25.728 123.621 25.088C123.621 24.656 123.397 24.328 122.949 24.104C122.517 23.88 121.693 23.712 120.477 23.6L117.813 23.36C116.373 23.232 115.237 22.976 114.405 22.592C113.573 22.192 112.981 21.712 112.629 21.152C112.277 20.576 112.101 19.968 112.101 19.328C112.101 18.4 112.389 17.624 112.965 17C113.541 16.376 114.341 15.904 115.365 15.584C116.389 15.248 117.581 15.08 118.941 15.08C120.349 15.08 121.605 15.28 122.709 15.68C123.813 16.064 124.693 16.608 125.349 17.312C126.005 18 126.373 18.8 126.453 19.712H123.285C123.221 19.344 123.029 18.992 122.709 18.656C122.405 18.304 121.933 18.016 121.293 17.792C120.669 17.552 119.829 17.432 118.773 17.432C117.653 17.432 116.773 17.576 116.133 17.864C115.509 18.152 115.197 18.576 115.197 19.136C115.197 19.488 115.389 19.792 115.773 20.048C116.157 20.288 116.869 20.456 117.909 20.552L121.341 20.864C122.717 20.992 123.789 21.24 124.557 21.608C125.341 21.96 125.893 22.416 126.213 22.976C126.533 23.536 126.693 24.168 126.693 24.872ZM149.638 24.872C149.638 25.784 149.382 26.576 148.87 27.248C148.358 27.92 147.582 28.44 146.542 28.808C145.502 29.16 144.198 29.336 142.63 29.336C141.014 29.336 139.614 29.136 138.43 28.736C137.246 28.32 136.326 27.744 135.67 27.008C135.03 26.256 134.686 25.392 134.638 24.416H137.806C137.902 24.928 138.158 25.384 138.574 25.784C139.006 26.168 139.566 26.464 140.254 26.672C140.958 26.88 141.758 26.984 142.654 26.984C143.95 26.984 144.926 26.832 145.582 26.528C146.238 26.208 146.566 25.728 146.566 25.088C146.566 24.656 146.342 24.328 145.894 24.104C145.462 23.88 144.638 23.712 143.422 23.6L140.758 23.36C139.318 23.232 138.182 22.976 137.35 22.592C136.518 22.192 135.926 21.712 135.574 21.152C135.222 20.576 135.046 19.968 135.046 19.328C135.046 18.4 135.334 17.624 135.91 17C136.486 16.376 137.286 15.904 138.31 15.584C139.334 15.248 140.526 15.08 141.886 15.08C143.294 15.08 144.55 15.28 145.654 15.68C146.758 16.064 147.638 16.608 148.294 17.312C148.95 18 149.318 18.8 149.398 19.712H146.23C146.166 19.344 145.974 18.992 145.654 18.656C145.35 18.304 144.878 18.016 144.238 17.792C143.614 17.552 142.774 17.432 141.718 17.432C140.598 17.432 139.718 17.576 139.078 17.864C138.454 18.152 138.142 18.576 138.142 19.136C138.142 19.488 138.334 19.792 138.718 20.048C139.102 20.288 139.814 20.456 140.854 20.552L144.286 20.864C145.662 20.992 146.734 21.24 147.502 21.608C148.286 21.96 148.838 22.416 149.158 22.976C149.478 23.536 149.638 24.168 149.638 24.872ZM159.584 29.336C158 29.336 156.592 29.04 155.36 28.448C154.128 27.84 153.16 27 152.456 25.928C151.752 24.856 151.4 23.608 151.4 22.184C151.4 20.776 151.728 19.544 152.384 18.488C153.056 17.416 153.976 16.584 155.144 15.992C156.328 15.384 157.68 15.08 159.2 15.08C160.72 15.08 162.032 15.424 163.136 16.112C164.256 16.784 165.12 17.736 165.728 18.968C166.336 20.2 166.64 21.648 166.64 23.312H153.848V20.936H165.08L163.52 21.824C163.472 20.928 163.256 20.16 162.872 19.52C162.504 18.88 162 18.392 161.36 18.056C160.736 17.704 159.992 17.528 159.128 17.528C158.216 17.528 157.416 17.712 156.728 18.08C156.056 18.448 155.528 18.968 155.144 19.64C154.76 20.296 154.568 21.08 154.568 21.992C154.568 23 154.792 23.872 155.24 24.608C155.704 25.344 156.352 25.912 157.184 26.312C158.032 26.696 159.032 26.888 160.184 26.888C161.224 26.888 162.288 26.728 163.376 26.408C164.464 26.072 165.424 25.608 166.256 25.016V27.272C165.424 27.912 164.408 28.416 163.208 28.784C162.024 29.152 160.816 29.336 159.584 29.336ZM183.271 24.872C183.271 25.784 183.015 26.576 182.503 27.248C181.991 27.92 181.215 28.44 180.175 28.808C179.135 29.16 177.831 29.336 176.263 29.336C174.647 29.336 173.247 29.136 172.063 28.736C170.879 28.32 169.959 27.744 169.303 27.008C168.663 26.256 168.319 25.392 168.271 24.416H171.439C171.535 24.928 171.791 25.384 172.207 25.784C172.639 26.168 173.199 26.464 173.887 26.672C174.591 26.88 175.391 26.984 176.287 26.984C177.583 26.984 178.559 26.832 179.215 26.528C179.871 26.208 180.199 25.728 180.199 25.088C180.199 24.656 179.975 24.328 179.527 24.104C179.095 23.88 178.271 23.712 177.055 23.6L174.391 23.36C172.951 23.232 171.815 22.976 170.983 22.592C170.151 22.192 169.559 21.712 169.207 21.152C168.855 20.576 168.679 19.968 168.679 19.328C168.679 18.4 168.967 17.624 169.543 17C170.119 16.376 170.919 15.904 171.943 15.584C172.967 15.248 174.159 15.08 175.519 15.08C176.927 15.08 178.183 15.28 179.287 15.68C180.391 16.064 181.271 16.608 181.927 17.312C182.583 18 182.951 18.8 183.031 19.712H179.863C179.799 19.344 179.607 18.992 179.287 18.656C178.983 18.304 178.511 18.016 177.871 17.792C177.247 17.552 176.407 17.432 175.351 17.432C174.231 17.432 173.351 17.576 172.711 17.864C172.087 18.152 171.775 18.576 171.775 19.136C171.775 19.488 171.967 19.792 172.351 20.048C172.735 20.288 173.447 20.456 174.487 20.552L177.919 20.864C179.295 20.992 180.367 21.24 181.135 21.608C181.919 21.96 182.471 22.416 182.791 22.976C183.111 23.536 183.271 24.168 183.271 24.872ZM185.801 15.32L187.361 15.608L188.921 15.32V29H185.801V15.32ZM187.361 13.616C186.769 13.616 186.281 13.456 185.897 13.136C185.513 12.8 185.321 12.368 185.321 11.84C185.321 11.312 185.513 10.888 185.897 10.568C186.281 10.232 186.769 10.064 187.361 10.064C187.969 10.064 188.457 10.232 188.825 10.568C189.209 10.888 189.401 11.312 189.401 11.84C189.401 12.368 189.209 12.8 188.825 13.136C188.457 13.456 187.969 13.616 187.361 13.616ZM199.734 29.336C198.086 29.336 196.638 29.04 195.39 28.448C194.158 27.84 193.19 27 192.486 25.928C191.798 24.856 191.454 23.616 191.454 22.208C191.454 20.784 191.798 19.544 192.486 18.488C193.19 17.416 194.158 16.584 195.39 15.992C196.638 15.384 198.086 15.08 199.734 15.08C201.382 15.08 202.822 15.384 204.054 15.992C205.302 16.584 206.27 17.416 206.958 18.488C207.662 19.544 208.014 20.784 208.014 22.208C208.014 23.616 207.662 24.856 206.958 25.928C206.27 27 205.302 27.84 204.054 28.448C202.822 29.04 201.382 29.336 199.734 29.336ZM199.734 26.888C200.79 26.888 201.694 26.696 202.446 26.312C203.214 25.928 203.806 25.392 204.222 24.704C204.638 24 204.846 23.168 204.846 22.208C204.846 21.248 204.638 20.424 204.222 19.736C203.806 19.032 203.214 18.488 202.446 18.104C201.694 17.72 200.79 17.528 199.734 17.528C198.694 17.528 197.79 17.72 197.022 18.104C196.254 18.488 195.662 19.032 195.246 19.736C194.83 20.424 194.622 21.248 194.622 22.208C194.622 23.168 194.83 24 195.246 24.704C195.662 25.392 196.254 25.928 197.022 26.312C197.79 26.696 198.694 26.888 199.734 26.888ZM209.903 15.416H213.023L213.839 20.312V29H210.719V19.856L209.903 15.416ZM219.239 15.08C220.519 15.08 221.607 15.336 222.503 15.848C223.399 16.36 224.079 17.096 224.543 18.056C225.023 19 225.263 20.144 225.263 21.488V29H222.143V21.992C222.143 20.568 221.807 19.496 221.135 18.776C220.479 18.04 219.511 17.672 218.231 17.672C217.351 17.672 216.575 17.872 215.903 18.272C215.247 18.656 214.735 19.2 214.367 19.904C214.015 20.608 213.839 21.432 213.839 22.376L212.735 21.776C212.879 20.368 213.247 19.168 213.839 18.176C214.431 17.184 215.191 16.424 216.119 15.896C217.047 15.352 218.087 15.08 219.239 15.08ZM235.802 29.336C234.218 29.336 232.81 29.04 231.578 28.448C230.346 27.84 229.378 27 228.674 25.928C227.97 24.856 227.618 23.608 227.618 22.184C227.618 20.776 227.946 19.544 228.602 18.488C229.274 17.416 230.194 16.584 231.362 15.992C232.546 15.384 233.898 15.08 235.418 15.08C236.938 15.08 238.25 15.424 239.354 16.112C240.474 16.784 241.338 17.736 241.946 18.968C242.554 20.2 242.858 21.648 242.858 23.312H230.066V20.936H241.298L239.738 21.824C239.69 20.928 239.474 20.16 239.09 19.52C238.722 18.88 238.218 18.392 237.578 18.056C236.954 17.704 236.21 17.528 235.346 17.528C234.434 17.528 233.634 17.712 232.946 18.08C232.274 18.448 231.746 18.968 231.362 19.64C230.978 20.296 230.786 21.08 230.786 21.992C230.786 23 231.01 23.872 231.458 24.608C231.922 25.344 232.57 25.912 233.402 26.312C234.25 26.696 235.25 26.888 236.402 26.888C237.442 26.888 238.506 26.728 239.594 26.408C240.682 26.072 241.642 25.608 242.474 25.016V27.272C241.642 27.912 240.626 28.416 239.426 28.784C238.242 29.152 237.034 29.336 235.802 29.336ZM259.49 24.872C259.49 25.784 259.234 26.576 258.722 27.248C258.21 27.92 257.434 28.44 256.394 28.808C255.354 29.16 254.05 29.336 252.482 29.336C250.866 29.336 249.466 29.136 248.282 28.736C247.098 28.32 246.178 27.744 245.522 27.008C244.882 26.256 244.538 25.392 244.49 24.416H247.658C247.754 24.928 248.01 25.384 248.426 25.784C248.858 26.168 249.418 26.464 250.106 26.672C250.81 26.88 251.61 26.984 252.506 26.984C253.802 26.984 254.778 26.832 255.434 26.528C256.09 26.208 256.418 25.728 256.418 25.088C256.418 24.656 256.194 24.328 255.746 24.104C255.314 23.88 254.49 23.712 253.274 23.6L250.61 23.36C249.17 23.232 248.034 22.976 247.202 22.592C246.37 22.192 245.778 21.712 245.426 21.152C245.074 20.576 244.898 19.968 244.898 19.328C244.898 18.4 245.186 17.624 245.762 17C246.338 16.376 247.138 15.904 248.162 15.584C249.186 15.248 250.378 15.08 251.738 15.08C253.146 15.08 254.402 15.28 255.506 15.68C256.61 16.064 257.49 16.608 258.146 17.312C258.802 18 259.17 18.8 259.25 19.712H256.082C256.018 19.344 255.826 18.992 255.506 18.656C255.202 18.304 254.73 18.016 254.09 17.792C253.466 17.552 252.626 17.432 251.57 17.432C250.45 17.432 249.57 17.576 248.93 17.864C248.306 18.152 247.994 18.576 247.994 19.136C247.994 19.488 248.186 19.792 248.57 20.048C248.954 20.288 249.666 20.456 250.706 20.552L254.138 20.864C255.514 20.992 256.586 21.24 257.354 21.608C258.138 21.96 258.69 22.416 259.01 22.976C259.33 23.536 259.49 24.168 259.49 24.872ZM275.883 29.336C274.235 29.336 272.787 29.04 271.539 28.448C270.307 27.84 269.339 27 268.635 25.928C267.947 24.856 267.603 23.616 267.603 22.208C267.603 20.784 267.947 19.544 268.635 18.488C269.339 17.416 270.307 16.584 271.539 15.992C272.787 15.384 274.235 15.08 275.883 15.08C277.531 15.08 278.971 15.384 280.203 15.992C281.451 16.584 282.419 17.416 283.107 18.488C283.811 19.544 284.163 20.784 284.163 22.208C284.163 23.616 283.811 24.856 283.107 25.928C282.419 27 281.451 27.84 280.203 28.448C278.971 29.04 277.531 29.336 275.883 29.336ZM275.883 26.888C276.939 26.888 277.843 26.696 278.595 26.312C279.363 25.928 279.955 25.392 280.371 24.704C280.787 24 280.995 23.168 280.995 22.208C280.995 21.248 280.787 20.424 280.371 19.736C279.955 19.032 279.363 18.488 278.595 18.104C277.843 17.72 276.939 17.528 275.883 17.528C274.843 17.528 273.939 17.72 273.171 18.104C272.403 18.488 271.811 19.032 271.395 19.736C270.979 20.424 270.771 21.248 270.771 22.208C270.771 23.168 270.979 24 271.395 24.704C271.811 25.392 272.403 25.928 273.171 26.312C273.939 26.696 274.843 26.888 275.883 26.888ZM286.051 15.416H289.171L289.987 20.312V29H286.867V19.856L286.051 15.416ZM295.387 15.08C296.667 15.08 297.755 15.336 298.651 15.848C299.547 16.36 300.227 17.096 300.691 18.056C301.171 19 301.411 20.144 301.411 21.488V29H298.291V21.992C298.291 20.568 297.955 19.496 297.283 18.776C296.627 18.04 295.659 17.672 294.379 17.672C293.499 17.672 292.723 17.872 292.051 18.272C291.395 18.656 290.883 19.2 290.515 19.904C290.163 20.608 289.987 21.432 289.987 22.376L288.883 21.776C289.027 20.368 289.395 19.168 289.987 18.176C290.579 17.184 291.339 16.424 292.267 15.896C293.195 15.352 294.235 15.08 295.387 15.08ZM304.535 10.52H307.655V29H304.535V10.52ZM310.957 15.32L312.517 15.608L314.077 15.32V29H310.957V15.32ZM312.517 13.616C311.925 13.616 311.437 13.456 311.053 13.136C310.669 12.8 310.477 12.368 310.477 11.84C310.477 11.312 310.669 10.888 311.053 10.568C311.437 10.232 311.925 10.064 312.517 10.064C313.125 10.064 313.613 10.232 313.981 10.568C314.365 10.888 314.557 11.312 314.557 11.84C314.557 12.368 314.365 12.8 313.981 13.136C313.613 13.456 313.125 13.616 312.517 13.616ZM316.731 15.416H319.851L320.667 20.312V29H317.547V19.856L316.731 15.416ZM326.067 15.08C327.347 15.08 328.435 15.336 329.331 15.848C330.227 16.36 330.907 17.096 331.371 18.056C331.851 19 332.091 20.144 332.091 21.488V29H328.971V21.992C328.971 20.568 328.635 19.496 327.963 18.776C327.307 18.04 326.339 17.672 325.059 17.672C324.179 17.672 323.403 17.872 322.731 18.272C322.075 18.656 321.563 19.2 321.195 19.904C320.843 20.608 320.667 21.432 320.667 22.376L319.563 21.776C319.707 20.368 320.075 19.168 320.667 18.176C321.259 17.184 322.019 16.424 322.947 15.896C323.875 15.352 324.915 15.08 326.067 15.08ZM342.631 29.336C341.047 29.336 339.639 29.04 338.407 28.448C337.175 27.84 336.207 27 335.503 25.928C334.799 24.856 334.447 23.608 334.447 22.184C334.447 20.776 334.775 19.544 335.431 18.488C336.103 17.416 337.023 16.584 338.191 15.992C339.375 15.384 340.727 15.08 342.247 15.08C343.767 15.08 345.079 15.424 346.183 16.112C347.303 16.784 348.167 17.736 348.775 18.968C349.383 20.2 349.687 21.648 349.687 23.312H336.895V20.936H348.127L346.567 21.824C346.519 20.928 346.303 20.16 345.919 19.52C345.551 18.88 345.047 18.392 344.407 18.056C343.783 17.704 343.039 17.528 342.175 17.528C341.263 17.528 340.463 17.712 339.775 18.08C339.103 18.448 338.575 18.968 338.191 19.64C337.807 20.296 337.615 21.08 337.615 21.992C337.615 23 337.839 23.872 338.287 24.608C338.751 25.344 339.399 25.912 340.231 26.312C341.079 26.696 342.079 26.888 343.231 26.888C344.271 26.888 345.335 26.728 346.423 26.408C347.511 26.072 348.471 25.608 349.303 25.016V27.272C348.471 27.912 347.455 28.416 346.255 28.784C345.071 29.152 343.863 29.336 342.631 29.336ZM373.605 23.648C373.445 24.768 373.005 25.76 372.285 26.624C371.565 27.472 370.645 28.136 369.525 28.616C368.405 29.096 367.157 29.336 365.781 29.336C364.213 29.336 362.829 29.04 361.629 28.448C360.445 27.84 359.517 27 358.845 25.928C358.173 24.856 357.837 23.616 357.837 22.208C357.837 20.8 358.173 19.56 358.845 18.488C359.517 17.416 360.445 16.584 361.629 15.992C362.829 15.384 364.213 15.08 365.781 15.08C367.157 15.08 368.405 15.32 369.525 15.8C370.645 16.28 371.565 16.952 372.285 17.816C373.005 18.664 373.445 19.656 373.605 20.792H370.461C370.237 19.768 369.701 18.968 368.853 18.392C368.005 17.816 366.981 17.528 365.781 17.528C364.821 17.528 363.981 17.72 363.261 18.104C362.541 18.472 361.981 19.008 361.581 19.712C361.197 20.4 361.005 21.232 361.005 22.208C361.005 23.168 361.197 24 361.581 24.704C361.981 25.408 362.541 25.952 363.261 26.336C363.981 26.704 364.821 26.888 365.781 26.888C366.997 26.888 368.029 26.592 368.877 26C369.725 25.408 370.253 24.624 370.461 23.648H373.605ZM383.484 29.336C381.836 29.336 380.388 29.04 379.14 28.448C377.908 27.84 376.94 27 376.236 25.928C375.548 24.856 375.204 23.616 375.204 22.208C375.204 20.784 375.548 19.544 376.236 18.488C376.94 17.416 377.908 16.584 379.14 15.992C380.388 15.384 381.836 15.08 383.484 15.08C385.132 15.08 386.572 15.384 387.804 15.992C389.052 16.584 390.02 17.416 390.708 18.488C391.412 19.544 391.764 20.784 391.764 22.208C391.764 23.616 391.412 24.856 390.708 25.928C390.02 27 389.052 27.84 387.804 28.448C386.572 29.04 385.132 29.336 383.484 29.336ZM383.484 26.888C384.54 26.888 385.444 26.696 386.196 26.312C386.964 25.928 387.556 25.392 387.972 24.704C388.388 24 388.596 23.168 388.596 22.208C388.596 21.248 388.388 20.424 387.972 19.736C387.556 19.032 386.964 18.488 386.196 18.104C385.444 17.72 384.54 17.528 383.484 17.528C382.444 17.528 381.54 17.72 380.772 18.104C380.004 18.488 379.412 19.032 378.996 19.736C378.58 20.424 378.372 21.248 378.372 22.208C378.372 23.168 378.58 24 378.996 24.704C379.412 25.392 380.004 25.928 380.772 26.312C381.54 26.696 382.444 26.888 383.484 26.888ZM393.653 15.416H396.773L397.589 20.312V29H394.469V19.856L393.653 15.416ZM402.989 15.08C404.269 15.08 405.357 15.336 406.253 15.848C407.149 16.36 407.829 17.096 408.293 18.056C408.773 19 409.013 20.144 409.013 21.488V29H405.893V21.992C405.893 20.568 405.557 19.496 404.885 18.776C404.229 18.04 403.261 17.672 401.981 17.672C401.101 17.672 400.325 17.872 399.653 18.272C398.997 18.656 398.485 19.2 398.117 19.904C397.765 20.608 397.589 21.432 397.589 22.376L396.485 21.776C396.629 20.368 396.997 19.168 397.589 18.176C398.181 17.184 398.941 16.424 399.869 15.896C400.797 15.352 401.837 15.08 402.989 15.08ZM417.84 15.416H420.96L421.776 20.312V29H418.656V19.856L417.84 15.416ZM427.176 15.08C428.456 15.08 429.544 15.336 430.44 15.848C431.336 16.36 432.016 17.096 432.48 18.056C432.96 19 433.2 20.144 433.2 21.488V29H430.08V21.992C430.08 20.568 429.744 19.496 429.072 18.776C428.416 18.04 427.448 17.672 426.168 17.672C425.288 17.672 424.512 17.872 423.84 18.272C423.184 18.656 422.672 19.2 422.304 19.904C421.952 20.608 421.776 21.432 421.776 22.376L420.672 21.776C420.816 20.368 421.184 19.168 421.776 18.176C422.368 17.184 423.128 16.424 424.056 15.896C424.984 15.352 426.024 15.08 427.176 15.08ZM443.836 29.336C442.188 29.336 440.74 29.04 439.492 28.448C438.26 27.84 437.292 27 436.588 25.928C435.9 24.856 435.556 23.616 435.556 22.208C435.556 20.784 435.9 19.544 436.588 18.488C437.292 17.416 438.26 16.584 439.492 15.992C440.74 15.384 442.188 15.08 443.836 15.08C445.484 15.08 446.924 15.384 448.156 15.992C449.404 16.584 450.372 17.416 451.06 18.488C451.764 19.544 452.116 20.784 452.116 22.208C452.116 23.616 451.764 24.856 451.06 25.928C450.372 27 449.404 27.84 448.156 28.448C446.924 29.04 445.484 29.336 443.836 29.336ZM443.836 26.888C444.892 26.888 445.796 26.696 446.548 26.312C447.316 25.928 447.908 25.392 448.324 24.704C448.74 24 448.948 23.168 448.948 22.208C448.948 21.248 448.74 20.424 448.324 19.736C447.908 19.032 447.316 18.488 446.548 18.104C445.796 17.72 444.892 17.528 443.836 17.528C442.796 17.528 441.892 17.72 441.124 18.104C440.356 18.488 439.764 19.032 439.348 19.736C438.932 20.424 438.724 21.248 438.724 22.208C438.724 23.168 438.932 24 439.348 24.704C439.764 25.392 440.356 25.928 441.124 26.312C441.892 26.696 442.796 26.888 443.836 26.888ZM468.716 24.872C468.716 25.784 468.46 26.576 467.948 27.248C467.436 27.92 466.66 28.44 465.62 28.808C464.58 29.16 463.276 29.336 461.708 29.336C460.092 29.336 458.692 29.136 457.508 28.736C456.324 28.32 455.404 27.744 454.748 27.008C454.108 26.256 453.764 25.392 453.716 24.416H456.884C456.98 24.928 457.236 25.384 457.652 25.784C458.084 26.168 458.644 26.464 459.332 26.672C460.036 26.88 460.836 26.984 461.732 26.984C463.028 26.984 464.004 26.832 464.66 26.528C465.316 26.208 465.644 25.728 465.644 25.088C465.644 24.656 465.42 24.328 464.972 24.104C464.54 23.88 463.716 23.712 462.5 23.6L459.836 23.36C458.396 23.232 457.26 22.976 456.428 22.592C455.596 22.192 455.004 21.712 454.652 21.152C454.3 20.576 454.124 19.968 454.124 19.328C454.124 18.4 454.412 17.624 454.988 17C455.564 16.376 456.364 15.904 457.388 15.584C458.412 15.248 459.604 15.08 460.964 15.08C462.372 15.08 463.628 15.28 464.732 15.68C465.836 16.064 466.716 16.608 467.372 17.312C468.028 18 468.396 18.8 468.476 19.712H465.308C465.244 19.344 465.052 18.992 464.732 18.656C464.428 18.304 463.956 18.016 463.316 17.792C462.692 17.552 461.852 17.432 460.796 17.432C459.676 17.432 458.796 17.576 458.156 17.864C457.532 18.152 457.22 18.576 457.22 19.136C457.22 19.488 457.412 19.792 457.796 20.048C458.18 20.288 458.892 20.456 459.932 20.552L463.364 20.864C464.74 20.992 465.812 21.24 466.58 21.608C467.364 21.96 467.916 22.416 468.236 22.976C468.556 23.536 468.716 24.168 468.716 24.872ZM478.758 29.336C477.11 29.336 475.662 29.04 474.414 28.448C473.182 27.84 472.214 27 471.51 25.928C470.822 24.856 470.478 23.616 470.478 22.208C470.478 20.784 470.822 19.544 471.51 18.488C472.214 17.416 473.182 16.584 474.414 15.992C475.662 15.384 477.11 15.08 478.758 15.08C480.406 15.08 481.846 15.384 483.078 15.992C484.326 16.584 485.294 17.416 485.982 18.488C486.686 19.544 487.038 20.784 487.038 22.208C487.038 23.616 486.686 24.856 485.982 25.928C485.294 27 484.326 27.84 483.078 28.448C481.846 29.04 480.406 29.336 478.758 29.336ZM478.758 26.888C479.814 26.888 480.718 26.696 481.47 26.312C482.238 25.928 482.83 25.392 483.246 24.704C483.662 24 483.87 23.168 483.87 22.208C483.87 21.248 483.662 20.424 483.246 19.736C482.83 19.032 482.238 18.488 481.47 18.104C480.718 17.72 479.814 17.528 478.758 17.528C477.718 17.528 476.814 17.72 476.046 18.104C475.278 18.488 474.686 19.032 474.27 19.736C473.854 20.424 473.646 21.248 473.646 22.208C473.646 23.168 473.854 24 474.27 24.704C474.686 25.392 475.278 25.928 476.046 26.312C476.814 26.696 477.718 26.888 478.758 26.888ZM487.78 17.816V16.4L490.684 15.656L491.98 11.864H493.804V15.416H500.116V17.816H493.804V23.696C493.804 24.832 494.044 25.632 494.524 26.096C495.02 26.544 495.82 26.768 496.924 26.768C497.628 26.768 498.252 26.696 498.796 26.552C499.34 26.392 499.86 26.168 500.356 25.88V28.448C499.94 28.656 499.348 28.856 498.58 29.048C497.828 29.24 497.052 29.336 496.252 29.336C494.924 29.336 493.852 29.12 493.036 28.688C492.22 28.24 491.62 27.632 491.236 26.864C490.868 26.08 490.684 25.184 490.684 24.176V17.816H487.78ZM501.981 15.416H505.101L505.917 20.36V29H502.797V19.76L501.981 15.416ZM512.805 15.32V18.056C512.453 17.96 512.069 17.888 511.653 17.84C511.237 17.792 510.845 17.768 510.477 17.768C509.597 17.768 508.813 17.96 508.125 18.344C507.437 18.728 506.893 19.304 506.493 20.072C506.109 20.824 505.917 21.752 505.917 22.856L505.197 21.968C505.261 21.008 505.421 20.112 505.677 19.28C505.949 18.432 506.317 17.696 506.781 17.072C507.261 16.448 507.845 15.96 508.533 15.608C509.221 15.256 510.021 15.08 510.933 15.08C511.253 15.08 511.581 15.104 511.917 15.152C512.253 15.184 512.549 15.24 512.805 15.32ZM521.742 29.336C520.094 29.336 518.646 29.04 517.398 28.448C516.166 27.84 515.198 27 514.494 25.928C513.806 24.856 513.462 23.616 513.462 22.208C513.462 20.784 513.806 19.544 514.494 18.488C515.198 17.416 516.166 16.584 517.398 15.992C518.646 15.384 520.094 15.08 521.742 15.08C523.39 15.08 524.83 15.384 526.062 15.992C527.31 16.584 528.278 17.416 528.966 18.488C529.67 19.544 530.022 20.784 530.022 22.208C530.022 23.616 529.67 24.856 528.966 25.928C528.278 27 527.31 27.84 526.062 28.448C524.83 29.04 523.39 29.336 521.742 29.336ZM521.742 26.888C522.798 26.888 523.702 26.696 524.454 26.312C525.222 25.928 525.814 25.392 526.23 24.704C526.646 24 526.854 23.168 526.854 22.208C526.854 21.248 526.646 20.424 526.23 19.736C525.814 19.032 525.222 18.488 524.454 18.104C523.702 17.72 522.798 17.528 521.742 17.528C520.702 17.528 519.798 17.72 519.03 18.104C518.262 18.488 517.67 19.032 517.254 19.736C516.838 20.424 516.63 21.248 516.63 22.208C516.63 23.168 516.838 24 517.254 24.704C517.67 25.392 518.262 25.928 519.03 26.312C519.798 26.696 520.702 26.888 521.742 26.888ZM546.622 24.872C546.622 25.784 546.366 26.576 545.854 27.248C545.342 27.92 544.566 28.44 543.526 28.808C542.486 29.16 541.182 29.336 539.614 29.336C537.998 29.336 536.598 29.136 535.414 28.736C534.23 28.32 533.31 27.744 532.654 27.008C532.014 26.256 531.67 25.392 531.622 24.416H534.79C534.886 24.928 535.142 25.384 535.558 25.784C535.99 26.168 536.55 26.464 537.238 26.672C537.942 26.88 538.742 26.984 539.638 26.984C540.934 26.984 541.91 26.832 542.566 26.528C543.222 26.208 543.55 25.728 543.55 25.088C543.55 24.656 543.326 24.328 542.878 24.104C542.446 23.88 541.622 23.712 540.406 23.6L537.742 23.36C536.302 23.232 535.166 22.976 534.334 22.592C533.502 22.192 532.91 21.712 532.558 21.152C532.206 20.576 532.03 19.968 532.03 19.328C532.03 18.4 532.318 17.624 532.894 17C533.47 16.376 534.27 15.904 535.294 15.584C536.318 15.248 537.51 15.08 538.87 15.08C540.278 15.08 541.534 15.28 542.638 15.68C543.742 16.064 544.622 16.608 545.278 17.312C545.934 18 546.302 18.8 546.382 19.712H543.214C543.15 19.344 542.958 18.992 542.638 18.656C542.334 18.304 541.862 18.016 541.222 17.792C540.598 17.552 539.758 17.432 538.702 17.432C537.582 17.432 536.702 17.576 536.062 17.864C535.438 18.152 535.126 18.576 535.126 19.136C535.126 19.488 535.318 19.792 535.702 20.048C536.086 20.288 536.798 20.456 537.838 20.552L541.27 20.864C542.646 20.992 543.718 21.24 544.486 21.608C545.27 21.96 545.822 22.416 546.142 22.976C546.462 23.536 546.622 24.168 546.622 24.872ZM562.92 29.336C561.336 29.336 559.928 29.04 558.696 28.448C557.464 27.84 556.496 27 555.792 25.928C555.088 24.856 554.736 23.608 554.736 22.184C554.736 20.776 555.064 19.544 555.72 18.488C556.392 17.416 557.312 16.584 558.48 15.992C559.664 15.384 561.016 15.08 562.536 15.08C564.056 15.08 565.368 15.424 566.472 16.112C567.592 16.784 568.456 17.736 569.064 18.968C569.672 20.2 569.976 21.648 569.976 23.312H557.184V20.936H568.416L566.856 21.824C566.808 20.928 566.592 20.16 566.208 19.52C565.84 18.88 565.336 18.392 564.696 18.056C564.072 17.704 563.328 17.528 562.464 17.528C561.552 17.528 560.752 17.712 560.064 18.08C559.392 18.448 558.864 18.968 558.48 19.64C558.096 20.296 557.904 21.08 557.904 21.992C557.904 23 558.128 23.872 558.576 24.608C559.04 25.344 559.688 25.912 560.52 26.312C561.368 26.696 562.368 26.888 563.52 26.888C564.56 26.888 565.624 26.728 566.712 26.408C567.8 26.072 568.76 25.608 569.592 25.016V27.272C568.76 27.912 567.744 28.416 566.544 28.784C565.36 29.152 564.152 29.336 562.92 29.336ZM571.895 15.416H575.015L575.831 20.312V29H572.711V19.856L571.895 15.416ZM581.231 15.08C582.511 15.08 583.599 15.336 584.495 15.848C585.391 16.36 586.071 17.096 586.535 18.056C587.015 19 587.255 20.144 587.255 21.488V29H584.135V21.992C584.135 20.568 583.799 19.496 583.127 18.776C582.471 18.04 581.503 17.672 580.223 17.672C579.343 17.672 578.567 17.872 577.895 18.272C577.239 18.656 576.727 19.2 576.359 19.904C576.007 20.608 575.831 21.432 575.831 22.376L574.727 21.776C574.871 20.368 575.239 19.168 575.831 18.176C576.423 17.184 577.183 16.424 578.111 15.896C579.039 15.352 580.079 15.08 581.231 15.08ZM65.9989 57.816V56.4L68.9029 55.656L70.1989 51.864H72.0229V55.416H78.3349V57.816H72.0229V63.696C72.0229 64.832 72.2629 65.632 72.7429 66.096C73.2389 66.544 74.0389 66.768 75.1429 66.768C75.8469 66.768 76.4709 66.696 77.0149 66.552C77.5589 66.392 78.0789 66.168 78.5749 65.88V68.448C78.1589 68.656 77.5669 68.856 76.7989 69.048C76.0469 69.24 75.2709 69.336 74.4709 69.336C73.1429 69.336 72.0709 69.12 71.2549 68.688C70.4389 68.24 69.8389 67.632 69.4549 66.864C69.0869 66.08 68.9029 65.184 68.9029 64.176V57.816H65.9989ZM80.1994 55.416H83.3194L84.1354 60.36V69H81.0154V59.76L80.1994 55.416ZM91.0234 55.32V58.056C90.6714 57.96 90.2874 57.888 89.8714 57.84C89.4554 57.792 89.0634 57.768 88.6954 57.768C87.8154 57.768 87.0314 57.96 86.3434 58.344C85.6554 58.728 85.1114 59.304 84.7114 60.072C84.3274 60.824 84.1354 61.752 84.1354 62.856L83.4154 61.968C83.4794 61.008 83.6394 60.112 83.8954 59.28C84.1674 58.432 84.5354 57.696 84.9994 57.072C85.4794 56.448 86.0634 55.96 86.7514 55.608C87.4394 55.256 88.2394 55.08 89.1514 55.08C89.4714 55.08 89.7994 55.104 90.1354 55.152C90.4714 55.184 90.7674 55.24 91.0234 55.32ZM99.865 69.336C98.281 69.336 96.873 69.04 95.641 68.448C94.409 67.84 93.441 67 92.737 65.928C92.033 64.856 91.681 63.608 91.681 62.184C91.681 60.776 92.009 59.544 92.665 58.488C93.337 57.416 94.257 56.584 95.425 55.992C96.609 55.384 97.961 55.08 99.481 55.08C101.001 55.08 102.313 55.424 103.417 56.112C104.537 56.784 105.401 57.736 106.009 58.968C106.617 60.2 106.921 61.648 106.921 63.312H94.129V60.936H105.361L103.801 61.824C103.753 60.928 103.537 60.16 103.153 59.52C102.785 58.88 102.281 58.392 101.641 58.056C101.017 57.704 100.273 57.528 99.409 57.528C98.497 57.528 97.697 57.712 97.009 58.08C96.337 58.448 95.809 58.968 95.425 59.64C95.041 60.296 94.849 61.08 94.849 61.992C94.849 63 95.073 63.872 95.521 64.608C95.985 65.344 96.633 65.912 97.465 66.312C98.313 66.696 99.313 66.888 100.465 66.888C101.505 66.888 102.569 66.728 103.657 66.408C104.745 66.072 105.705 65.608 106.537 65.016V67.272C105.705 67.912 104.689 68.416 103.489 68.784C102.305 69.152 101.097 69.336 99.865 69.336ZM123.552 64.872C123.552 65.784 123.296 66.576 122.784 67.248C122.272 67.92 121.496 68.44 120.456 68.808C119.416 69.16 118.112 69.336 116.544 69.336C114.928 69.336 113.528 69.136 112.344 68.736C111.16 68.32 110.24 67.744 109.584 67.008C108.944 66.256 108.6 65.392 108.552 64.416H111.72C111.816 64.928 112.072 65.384 112.488 65.784C112.92 66.168 113.48 66.464 114.168 66.672C114.872 66.88 115.672 66.984 116.568 66.984C117.864 66.984 118.84 66.832 119.496 66.528C120.152 66.208 120.48 65.728 120.48 65.088C120.48 64.656 120.256 64.328 119.808 64.104C119.376 63.88 118.552 63.712 117.336 63.6L114.672 63.36C113.232 63.232 112.096 62.976 111.264 62.592C110.432 62.192 109.84 61.712 109.488 61.152C109.136 60.576 108.96 59.968 108.96 59.328C108.96 58.4 109.248 57.624 109.824 57C110.4 56.376 111.2 55.904 112.224 55.584C113.248 55.248 114.44 55.08 115.8 55.08C117.208 55.08 118.464 55.28 119.568 55.68C120.672 56.064 121.552 56.608 122.208 57.312C122.864 58 123.232 58.8 123.312 59.712H120.144C120.08 59.344 119.888 58.992 119.568 58.656C119.264 58.304 118.792 58.016 118.152 57.792C117.528 57.552 116.688 57.432 115.632 57.432C114.512 57.432 113.632 57.576 112.992 57.864C112.368 58.152 112.056 58.576 112.056 59.136C112.056 59.488 112.248 59.792 112.632 60.048C113.016 60.288 113.728 60.456 114.768 60.552L118.2 60.864C119.576 60.992 120.648 61.24 121.416 61.608C122.2 61.96 122.752 62.416 123.072 62.976C123.392 63.536 123.552 64.168 123.552 64.872ZM132.433 55.416H135.553V60.144L135.409 60.624V63.36L135.553 64.2V72.96H132.433V55.416ZM134.353 62.208C134.657 60.768 135.161 59.52 135.865 58.464C136.569 57.392 137.433 56.56 138.457 55.968C139.497 55.376 140.649 55.08 141.913 55.08C143.241 55.08 144.417 55.384 145.441 55.992C146.465 56.584 147.265 57.416 147.841 58.488C148.417 59.544 148.705 60.784 148.705 62.208C148.705 63.616 148.417 64.856 147.841 65.928C147.265 67 146.465 67.84 145.441 68.448C144.417 69.04 143.241 69.336 141.913 69.336C140.649 69.336 139.505 69.04 138.481 68.448C137.457 67.856 136.585 67.024 135.865 65.952C135.161 64.88 134.657 63.632 134.353 62.208ZM145.537 62.208C145.537 61.296 145.345 60.496 144.961 59.808C144.593 59.104 144.081 58.56 143.425 58.176C142.769 57.776 142.017 57.576 141.169 57.576C140.321 57.576 139.521 57.776 138.769 58.176C138.033 58.56 137.385 59.104 136.825 59.808C136.265 60.496 135.809 61.296 135.457 62.208C135.809 63.12 136.265 63.928 136.825 64.632C137.385 65.32 138.033 65.864 138.769 66.264C139.521 66.648 140.321 66.84 141.169 66.84C142.017 66.84 142.769 66.648 143.425 66.264C144.081 65.864 144.593 65.32 144.961 64.632C145.345 63.928 145.537 63.12 145.537 62.208ZM163.973 69L163.445 63.96L164.069 62.208L163.445 60.48L163.973 55.416H167.189L166.469 62.208L167.189 69H163.973ZM164.933 62.208C164.629 63.632 164.125 64.88 163.421 65.952C162.717 67.024 161.845 67.856 160.805 68.448C159.781 69.04 158.637 69.336 157.373 69.336C156.045 69.336 154.869 69.04 153.845 68.448C152.821 67.84 152.021 67 151.445 65.928C150.869 64.856 150.581 63.616 150.581 62.208C150.581 60.784 150.869 59.544 151.445 58.488C152.021 57.416 152.821 56.584 153.845 55.992C154.869 55.384 156.045 55.08 157.373 55.08C158.637 55.08 159.781 55.376 160.805 55.968C161.845 56.56 162.717 57.392 163.421 58.464C164.141 59.52 164.645 60.768 164.933 62.208ZM153.749 62.208C153.749 63.12 153.933 63.928 154.301 64.632C154.685 65.32 155.205 65.864 155.861 66.264C156.517 66.648 157.269 66.84 158.117 66.84C158.981 66.84 159.781 66.648 160.517 66.264C161.253 65.864 161.901 65.32 162.461 64.632C163.037 63.928 163.493 63.12 163.829 62.208C163.493 61.296 163.037 60.496 162.461 59.808C161.901 59.104 161.253 58.56 160.517 58.176C159.781 57.776 158.981 57.576 158.117 57.576C157.269 57.576 156.517 57.776 155.861 58.176C155.205 58.56 154.685 59.104 154.301 59.808C153.933 60.496 153.749 61.296 153.749 62.208ZM184.255 64.872C184.255 65.784 183.999 66.576 183.487 67.248C182.975 67.92 182.199 68.44 181.159 68.808C180.119 69.16 178.815 69.336 177.247 69.336C175.631 69.336 174.231 69.136 173.047 68.736C171.863 68.32 170.943 67.744 170.287 67.008C169.647 66.256 169.303 65.392 169.255 64.416H172.423C172.519 64.928 172.775 65.384 173.191 65.784C173.623 66.168 174.183 66.464 174.871 66.672C175.575 66.88 176.375 66.984 177.271 66.984C178.567 66.984 179.543 66.832 180.199 66.528C180.855 66.208 181.183 65.728 181.183 65.088C181.183 64.656 180.959 64.328 180.511 64.104C180.079 63.88 179.255 63.712 178.039 63.6L175.375 63.36C173.935 63.232 172.799 62.976 171.967 62.592C171.135 62.192 170.543 61.712 170.191 61.152C169.839 60.576 169.663 59.968 169.663 59.328C169.663 58.4 169.951 57.624 170.527 57C171.103 56.376 171.903 55.904 172.927 55.584C173.951 55.248 175.143 55.08 176.503 55.08C177.911 55.08 179.167 55.28 180.271 55.68C181.375 56.064 182.255 56.608 182.911 57.312C183.567 58 183.935 58.8 184.015 59.712H180.847C180.783 59.344 180.591 58.992 180.271 58.656C179.967 58.304 179.495 58.016 178.855 57.792C178.231 57.552 177.391 57.432 176.335 57.432C175.215 57.432 174.335 57.576 173.695 57.864C173.071 58.152 172.759 58.576 172.759 59.136C172.759 59.488 172.951 59.792 173.335 60.048C173.719 60.288 174.431 60.456 175.471 60.552L178.903 60.864C180.279 60.992 181.351 61.24 182.119 61.608C182.903 61.96 183.455 62.416 183.775 62.976C184.095 63.536 184.255 64.168 184.255 64.872ZM194.297 69.336C192.649 69.336 191.201 69.04 189.953 68.448C188.721 67.84 187.753 67 187.049 65.928C186.361 64.856 186.017 63.616 186.017 62.208C186.017 60.784 186.361 59.544 187.049 58.488C187.753 57.416 188.721 56.584 189.953 55.992C191.201 55.384 192.649 55.08 194.297 55.08C195.945 55.08 197.385 55.384 198.617 55.992C199.865 56.584 200.833 57.416 201.521 58.488C202.225 59.544 202.577 60.784 202.577 62.208C202.577 63.616 202.225 64.856 201.521 65.928C200.833 67 199.865 67.84 198.617 68.448C197.385 69.04 195.945 69.336 194.297 69.336ZM194.297 66.888C195.353 66.888 196.257 66.696 197.009 66.312C197.777 65.928 198.369 65.392 198.785 64.704C199.201 64 199.409 63.168 199.409 62.208C199.409 61.248 199.201 60.424 198.785 59.736C198.369 59.032 197.777 58.488 197.009 58.104C196.257 57.72 195.353 57.528 194.297 57.528C193.257 57.528 192.353 57.72 191.585 58.104C190.817 58.488 190.225 59.032 189.809 59.736C189.393 60.424 189.185 61.248 189.185 62.208C189.185 63.168 189.393 64 189.809 64.704C190.225 65.392 190.817 65.928 191.585 66.312C192.353 66.696 193.257 66.888 194.297 66.888ZM219.177 64.872C219.177 65.784 218.921 66.576 218.409 67.248C217.897 67.92 217.121 68.44 216.081 68.808C215.041 69.16 213.737 69.336 212.169 69.336C210.553 69.336 209.153 69.136 207.969 68.736C206.785 68.32 205.865 67.744 205.209 67.008C204.569 66.256 204.225 65.392 204.177 64.416H207.345C207.441 64.928 207.697 65.384 208.113 65.784C208.545 66.168 209.105 66.464 209.793 66.672C210.497 66.88 211.297 66.984 212.193 66.984C213.489 66.984 214.465 66.832 215.121 66.528C215.777 66.208 216.105 65.728 216.105 65.088C216.105 64.656 215.881 64.328 215.433 64.104C215.001 63.88 214.177 63.712 212.961 63.6L210.297 63.36C208.857 63.232 207.721 62.976 206.889 62.592C206.057 62.192 205.465 61.712 205.113 61.152C204.761 60.576 204.585 59.968 204.585 59.328C204.585 58.4 204.873 57.624 205.449 57C206.025 56.376 206.825 55.904 207.849 55.584C208.873 55.248 210.065 55.08 211.425 55.08C212.833 55.08 214.089 55.28 215.193 55.68C216.297 56.064 217.177 56.608 217.833 57.312C218.489 58 218.857 58.8 218.937 59.712H215.769C215.705 59.344 215.513 58.992 215.193 58.656C214.889 58.304 214.417 58.016 213.777 57.792C213.153 57.552 212.313 57.432 211.257 57.432C210.137 57.432 209.257 57.576 208.617 57.864C207.993 58.152 207.681 58.576 207.681 59.136C207.681 59.488 207.873 59.792 208.257 60.048C208.641 60.288 209.353 60.456 210.393 60.552L213.825 60.864C215.201 60.992 216.273 61.24 217.041 61.608C217.825 61.96 218.377 62.416 218.697 62.976C219.017 63.536 219.177 64.168 219.177 64.872ZM230.572 73.296C229.772 73.296 229.044 73.192 228.388 72.984C227.748 72.792 227.148 72.52 226.588 72.168V69.792C227.196 70.176 227.772 70.456 228.316 70.632C228.876 70.808 229.5 70.896 230.188 70.896C230.844 70.896 231.428 70.744 231.94 70.44C232.452 70.152 232.876 69.64 233.212 68.904L239.332 55.416H242.644L235.612 69.96C235.228 70.76 234.772 71.4 234.244 71.88C233.732 72.376 233.164 72.736 232.54 72.96C231.932 73.184 231.276 73.296 230.572 73.296ZM232.132 68.568L225.892 55.416H229.324L235.228 68.568H232.132ZM262.786 69L262.258 63.84L262.954 62.232L262.282 60.384L263.29 50.52H266.506L265.282 62.016L265.978 69H262.786ZM263.698 62.208C263.394 63.632 262.89 64.88 262.186 65.952C261.482 67.024 260.61 67.856 259.57 68.448C258.546 69.04 257.402 69.336 256.138 69.336C254.81 69.336 253.634 69.04 252.61 68.448C251.586 67.84 250.786 67 250.21 65.928C249.634 64.856 249.346 63.616 249.346 62.208C249.346 60.784 249.634 59.544 250.21 58.488C250.786 57.416 251.586 56.584 252.61 55.992C253.634 55.384 254.81 55.08 256.138 55.08C257.402 55.08 258.546 55.376 259.57 55.968C260.61 56.56 261.482 57.392 262.186 58.464C262.906 59.52 263.41 60.768 263.698 62.208ZM252.514 62.208C252.514 63.12 252.698 63.928 253.066 64.632C253.45 65.32 253.97 65.864 254.626 66.264C255.282 66.648 256.034 66.84 256.882 66.84C257.746 66.84 258.546 66.648 259.282 66.264C260.018 65.864 260.666 65.32 261.226 64.632C261.802 63.928 262.258 63.12 262.594 62.208C262.258 61.296 261.802 60.496 261.226 59.808C260.666 59.104 260.018 58.56 259.282 58.176C258.546 57.776 257.746 57.576 256.882 57.576C256.034 57.576 255.282 57.776 254.626 58.176C253.97 58.56 253.45 59.104 253.066 59.808C252.698 60.496 252.514 61.296 252.514 62.208ZM276.396 69.336C274.812 69.336 273.404 69.04 272.172 68.448C270.94 67.84 269.972 67 269.268 65.928C268.564 64.856 268.212 63.608 268.212 62.184C268.212 60.776 268.54 59.544 269.196 58.488C269.868 57.416 270.788 56.584 271.956 55.992C273.14 55.384 274.492 55.08 276.012 55.08C277.532 55.08 278.844 55.424 279.948 56.112C281.068 56.784 281.932 57.736 282.54 58.968C283.148 60.2 283.452 61.648 283.452 63.312H270.66V60.936H281.892L280.332 61.824C280.284 60.928 280.068 60.16 279.684 59.52C279.316 58.88 278.812 58.392 278.172 58.056C277.548 57.704 276.804 57.528 275.94 57.528C275.028 57.528 274.228 57.712 273.54 58.08C272.868 58.448 272.34 58.968 271.956 59.64C271.572 60.296 271.38 61.08 271.38 61.992C271.38 63 271.604 63.872 272.052 64.608C272.516 65.344 273.164 65.912 273.996 66.312C274.844 66.696 275.844 66.888 276.996 66.888C278.036 66.888 279.1 66.728 280.188 66.408C281.276 66.072 282.236 65.608 283.068 65.016V67.272C282.236 67.912 281.22 68.416 280.02 68.784C278.836 69.152 277.628 69.336 276.396 69.336ZM291.723 55.416H294.843L295.659 60.312V69H292.539V59.856L291.723 55.416ZM300.675 55.08C301.875 55.08 302.891 55.336 303.723 55.848C304.571 56.36 305.211 57.096 305.643 58.056C306.091 59 306.315 60.144 306.315 61.488V69H303.195V61.992C303.195 60.568 302.891 59.496 302.283 58.776C301.691 58.04 300.819 57.672 299.667 57.672C298.851 57.672 298.139 57.872 297.531 58.272C296.939 58.656 296.475 59.2 296.139 59.904C295.819 60.608 295.659 61.432 295.659 62.376L294.555 61.776C294.699 60.368 295.043 59.168 295.587 58.176C296.147 57.184 296.859 56.424 297.723 55.896C298.603 55.352 299.587 55.08 300.675 55.08ZM311.307 55.08C312.507 55.08 313.531 55.336 314.379 55.848C315.227 56.36 315.867 57.096 316.299 58.056C316.747 59 316.971 60.144 316.971 61.488V69H313.851V61.992C313.851 60.568 313.547 59.496 312.939 58.776C312.347 58.04 311.475 57.672 310.323 57.672C309.507 57.672 308.795 57.872 308.187 58.272C307.595 58.656 307.131 59.2 306.795 59.904C306.475 60.608 306.315 61.432 306.315 62.376L305.211 61.776C305.355 60.368 305.699 59.168 306.243 58.176C306.803 57.184 307.515 56.424 308.379 55.896C309.259 55.352 310.235 55.08 311.307 55.08ZM332.769 69L332.241 63.96L332.865 62.208L332.241 60.48L332.769 55.416H335.985L335.265 62.208L335.985 69H332.769ZM333.729 62.208C333.425 63.632 332.921 64.88 332.217 65.952C331.513 67.024 330.641 67.856 329.601 68.448C328.577 69.04 327.433 69.336 326.169 69.336C324.841 69.336 323.665 69.04 322.641 68.448C321.617 67.84 320.817 67 320.241 65.928C319.665 64.856 319.377 63.616 319.377 62.208C319.377 60.784 319.665 59.544 320.241 58.488C320.817 57.416 321.617 56.584 322.641 55.992C323.665 55.384 324.841 55.08 326.169 55.08C327.433 55.08 328.577 55.376 329.601 55.968C330.641 56.56 331.513 57.392 332.217 58.464C332.937 59.52 333.441 60.768 333.729 62.208ZM322.545 62.208C322.545 63.12 322.729 63.928 323.097 64.632C323.481 65.32 324.001 65.864 324.657 66.264C325.313 66.648 326.065 66.84 326.913 66.84C327.777 66.84 328.577 66.648 329.313 66.264C330.049 65.864 330.697 65.32 331.257 64.632C331.833 63.928 332.289 63.12 332.625 62.208C332.289 61.296 331.833 60.496 331.257 59.808C330.697 59.104 330.049 58.56 329.313 58.176C328.577 57.776 327.777 57.576 326.913 57.576C326.065 57.576 325.313 57.776 324.657 58.176C324.001 58.56 323.481 59.104 323.097 59.808C322.729 60.496 322.545 61.296 322.545 62.208ZM338.34 55.416H341.46L342.276 60.312V69H339.156V59.856L338.34 55.416ZM347.676 55.08C348.956 55.08 350.044 55.336 350.94 55.848C351.836 56.36 352.516 57.096 352.98 58.056C353.46 59 353.7 60.144 353.7 61.488V69H350.58V61.992C350.58 60.568 350.244 59.496 349.572 58.776C348.916 58.04 347.948 57.672 346.668 57.672C345.788 57.672 345.012 57.872 344.34 58.272C343.684 58.656 343.172 59.2 342.804 59.904C342.452 60.608 342.276 61.432 342.276 62.376L341.172 61.776C341.316 60.368 341.684 59.168 342.276 58.176C342.868 57.184 343.628 56.424 344.556 55.896C345.484 55.352 346.524 55.08 347.676 55.08ZM364.24 69.336C362.656 69.336 361.248 69.04 360.016 68.448C358.784 67.84 357.816 67 357.112 65.928C356.408 64.856 356.056 63.608 356.056 62.184C356.056 60.776 356.384 59.544 357.04 58.488C357.712 57.416 358.632 56.584 359.8 55.992C360.984 55.384 362.336 55.08 363.856 55.08C365.376 55.08 366.688 55.424 367.792 56.112C368.912 56.784 369.776 57.736 370.384 58.968C370.992 60.2 371.296 61.648 371.296 63.312H358.504V60.936H369.736L368.176 61.824C368.128 60.928 367.912 60.16 367.528 59.52C367.16 58.88 366.656 58.392 366.016 58.056C365.392 57.704 364.648 57.528 363.784 57.528C362.872 57.528 362.072 57.712 361.384 58.08C360.712 58.448 360.184 58.968 359.8 59.64C359.416 60.296 359.224 61.08 359.224 61.992C359.224 63 359.448 63.872 359.896 64.608C360.36 65.344 361.008 65.912 361.84 66.312C362.688 66.696 363.688 66.888 364.84 66.888C365.88 66.888 366.944 66.728 368.032 66.408C369.12 66.072 370.08 65.608 370.912 65.016V67.272C370.08 67.912 369.064 68.416 367.864 68.784C366.68 69.152 365.472 69.336 364.24 69.336ZM373.215 55.416H376.335L377.151 60.36V69H374.031V59.76L373.215 55.416ZM384.039 55.32V58.056C383.687 57.96 383.303 57.888 382.887 57.84C382.471 57.792 382.079 57.768 381.711 57.768C380.831 57.768 380.047 57.96 379.359 58.344C378.671 58.728 378.127 59.304 377.727 60.072C377.343 60.824 377.151 61.752 377.151 62.856L376.431 61.968C376.495 61.008 376.655 60.112 376.911 59.28C377.183 58.432 377.551 57.696 378.015 57.072C378.495 56.448 379.079 55.96 379.767 55.608C380.455 55.256 381.255 55.08 382.167 55.08C382.487 55.08 382.815 55.104 383.151 55.152C383.487 55.184 383.783 55.24 384.039 55.32ZM398.16 69L397.632 63.96L398.256 62.208L397.632 60.48L398.16 55.416H401.376L400.656 62.208L401.376 69H398.16ZM399.12 62.208C398.816 63.632 398.312 64.88 397.608 65.952C396.904 67.024 396.032 67.856 394.992 68.448C393.968 69.04 392.824 69.336 391.56 69.336C390.232 69.336 389.056 69.04 388.032 68.448C387.008 67.84 386.208 67 385.632 65.928C385.056 64.856 384.768 63.616 384.768 62.208C384.768 60.784 385.056 59.544 385.632 58.488C386.208 57.416 387.008 56.584 388.032 55.992C389.056 55.384 390.232 55.08 391.56 55.08C392.824 55.08 393.968 55.376 394.992 55.968C396.032 56.56 396.904 57.392 397.608 58.464C398.328 59.52 398.832 60.768 399.12 62.208ZM387.936 62.208C387.936 63.12 388.12 63.928 388.488 64.632C388.872 65.32 389.392 65.864 390.048 66.264C390.704 66.648 391.456 66.84 392.304 66.84C393.168 66.84 393.968 66.648 394.704 66.264C395.44 65.864 396.088 65.32 396.648 64.632C397.224 63.928 397.68 63.12 398.016 62.208C397.68 61.296 397.224 60.496 396.648 59.808C396.088 59.104 395.44 58.56 394.704 58.176C393.968 57.776 393.168 57.576 392.304 57.576C391.456 57.576 390.704 57.776 390.048 58.176C389.392 58.56 388.872 59.104 388.488 59.808C388.12 60.496 387.936 61.296 387.936 62.208ZM424.794 64.872C424.794 65.784 424.538 66.576 424.026 67.248C423.514 67.92 422.738 68.44 421.698 68.808C420.658 69.16 419.354 69.336 417.786 69.336C416.17 69.336 414.77 69.136 413.586 68.736C412.402 68.32 411.482 67.744 410.826 67.008C410.186 66.256 409.842 65.392 409.794 64.416H412.962C413.058 64.928 413.314 65.384 413.73 65.784C414.162 66.168 414.722 66.464 415.41 66.672C416.114 66.88 416.914 66.984 417.81 66.984C419.106 66.984 420.082 66.832 420.738 66.528C421.394 66.208 421.722 65.728 421.722 65.088C421.722 64.656 421.498 64.328 421.05 64.104C420.618 63.88 419.794 63.712 418.578 63.6L415.914 63.36C414.474 63.232 413.338 62.976 412.506 62.592C411.674 62.192 411.082 61.712 410.73 61.152C410.378 60.576 410.202 59.968 410.202 59.328C410.202 58.4 410.49 57.624 411.066 57C411.642 56.376 412.442 55.904 413.466 55.584C414.49 55.248 415.682 55.08 417.042 55.08C418.45 55.08 419.706 55.28 420.81 55.68C421.914 56.064 422.794 56.608 423.45 57.312C424.106 58 424.474 58.8 424.554 59.712H421.386C421.322 59.344 421.13 58.992 420.81 58.656C420.506 58.304 420.034 58.016 419.394 57.792C418.77 57.552 417.93 57.432 416.874 57.432C415.754 57.432 414.874 57.576 414.234 57.864C413.61 58.152 413.298 58.576 413.298 59.136C413.298 59.488 413.49 59.792 413.874 60.048C414.258 60.288 414.97 60.456 416.01 60.552L419.442 60.864C420.818 60.992 421.89 61.24 422.658 61.608C423.442 61.96 423.994 62.416 424.314 62.976C424.634 63.536 424.794 64.168 424.794 64.872ZM434.74 69.336C433.156 69.336 431.748 69.04 430.516 68.448C429.284 67.84 428.316 67 427.612 65.928C426.908 64.856 426.556 63.608 426.556 62.184C426.556 60.776 426.884 59.544 427.54 58.488C428.212 57.416 429.132 56.584 430.3 55.992C431.484 55.384 432.836 55.08 434.356 55.08C435.876 55.08 437.188 55.424 438.292 56.112C439.412 56.784 440.276 57.736 440.884 58.968C441.492 60.2 441.796 61.648 441.796 63.312H429.004V60.936H440.236L438.676 61.824C438.628 60.928 438.412 60.16 438.028 59.52C437.66 58.88 437.156 58.392 436.516 58.056C435.892 57.704 435.148 57.528 434.284 57.528C433.372 57.528 432.572 57.712 431.884 58.08C431.212 58.448 430.684 58.968 430.3 59.64C429.916 60.296 429.724 61.08 429.724 61.992C429.724 63 429.948 63.872 430.396 64.608C430.86 65.344 431.508 65.912 432.34 66.312C433.188 66.696 434.188 66.888 435.34 66.888C436.38 66.888 437.444 66.728 438.532 66.408C439.62 66.072 440.58 65.608 441.412 65.016V67.272C440.58 67.912 439.564 68.416 438.364 68.784C437.18 69.152 435.972 69.336 434.74 69.336ZM443.715 55.416H446.835L447.651 60.312V69H444.531V59.856L443.715 55.416ZM453.051 55.08C454.331 55.08 455.419 55.336 456.315 55.848C457.211 56.36 457.891 57.096 458.355 58.056C458.835 59 459.075 60.144 459.075 61.488V69H455.955V61.992C455.955 60.568 455.619 59.496 454.947 58.776C454.291 58.04 453.323 57.672 452.043 57.672C451.163 57.672 450.387 57.872 449.715 58.272C449.059 58.656 448.547 59.2 448.179 59.904C447.827 60.608 447.651 61.432 447.651 62.376L446.547 61.776C446.691 60.368 447.059 59.168 447.651 58.176C448.243 57.184 449.003 56.424 449.931 55.896C450.859 55.352 451.899 55.08 453.051 55.08ZM477.199 63.648C477.039 64.768 476.599 65.76 475.879 66.624C475.159 67.472 474.239 68.136 473.119 68.616C471.999 69.096 470.751 69.336 469.375 69.336C467.807 69.336 466.423 69.04 465.223 68.448C464.039 67.84 463.111 67 462.439 65.928C461.767 64.856 461.431 63.616 461.431 62.208C461.431 60.8 461.767 59.56 462.439 58.488C463.111 57.416 464.039 56.584 465.223 55.992C466.423 55.384 467.807 55.08 469.375 55.08C470.751 55.08 471.999 55.32 473.119 55.8C474.239 56.28 475.159 56.952 475.879 57.816C476.599 58.664 477.039 59.656 477.199 60.792H474.055C473.831 59.768 473.295 58.968 472.447 58.392C471.599 57.816 470.575 57.528 469.375 57.528C468.415 57.528 467.575 57.72 466.855 58.104C466.135 58.472 465.575 59.008 465.175 59.712C464.791 60.4 464.599 61.232 464.599 62.208C464.599 63.168 464.791 64 465.175 64.704C465.575 65.408 466.135 65.952 466.855 66.336C467.575 66.704 468.415 66.888 469.375 66.888C470.591 66.888 471.623 66.592 472.471 66C473.319 65.408 473.847 64.624 474.055 63.648H477.199ZM479.566 55.32L481.126 55.608L482.686 55.32V69H479.566V55.32ZM481.126 53.616C480.534 53.616 480.046 53.456 479.662 53.136C479.278 52.8 479.086 52.368 479.086 51.84C479.086 51.312 479.278 50.888 479.662 50.568C480.046 50.232 480.534 50.064 481.126 50.064C481.734 50.064 482.222 50.232 482.59 50.568C482.974 50.888 483.166 51.312 483.166 51.84C483.166 52.368 482.974 52.8 482.59 53.136C482.222 53.456 481.734 53.616 481.126 53.616ZM485.988 50.52H489.108V69H485.988V50.52ZM492.41 50.52H495.53V69H492.41V50.52ZM511.504 69L510.976 63.96L511.6 62.208L510.976 60.48L511.504 55.416H514.72L514 62.208L514.72 69H511.504ZM512.464 62.208C512.16 63.632 511.656 64.88 510.952 65.952C510.248 67.024 509.376 67.856 508.336 68.448C507.312 69.04 506.168 69.336 504.904 69.336C503.576 69.336 502.4 69.04 501.376 68.448C500.352 67.84 499.552 67 498.976 65.928C498.4 64.856 498.112 63.616 498.112 62.208C498.112 60.784 498.4 59.544 498.976 58.488C499.552 57.416 500.352 56.584 501.376 55.992C502.4 55.384 503.576 55.08 504.904 55.08C506.168 55.08 507.312 55.376 508.336 55.968C509.376 56.56 510.248 57.392 510.952 58.464C511.672 59.52 512.176 60.768 512.464 62.208ZM501.28 62.208C501.28 63.12 501.464 63.928 501.832 64.632C502.216 65.32 502.736 65.864 503.392 66.264C504.048 66.648 504.8 66.84 505.648 66.84C506.512 66.84 507.312 66.648 508.048 66.264C508.784 65.864 509.432 65.32 509.992 64.632C510.568 63.928 511.024 63.12 511.36 62.208C511.024 61.296 510.568 60.496 509.992 59.808C509.432 59.104 508.784 58.56 508.048 58.176C507.312 57.776 506.512 57.576 505.648 57.576C504.8 57.576 504.048 57.776 503.392 58.176C502.736 58.56 502.216 59.104 501.832 59.808C501.464 60.496 501.28 61.296 501.28 62.208ZM519.594 69.192C519.05 69.192 518.586 69 518.202 68.616C517.818 68.232 517.626 67.768 517.626 67.224C517.626 66.664 517.818 66.2 518.202 65.832C518.586 65.448 519.05 65.256 519.594 65.256C520.154 65.256 520.618 65.448 520.986 65.832C521.37 66.2 521.562 66.664 521.562 67.224C521.562 67.768 521.37 68.232 520.986 68.616C520.618 69 520.154 69.192 519.594 69.192ZM519.594 60.36C519.05 60.36 518.586 60.168 518.202 59.784C517.818 59.4 517.626 58.936 517.626 58.392C517.626 57.832 517.818 57.368 518.202 57C518.586 56.616 519.05 56.424 519.594 56.424C520.154 56.424 520.618 56.616 520.986 57C521.37 57.368 521.562 57.832 521.562 58.392C521.562 58.936 521.37 59.4 520.986 59.784C520.618 60.168 520.154 60.36 519.594 60.36Z" fill="white"/>
<line x1="264" y1="89" x2="317" y2="89" stroke="white" stroke-width="2" stroke-linecap="round"/>
</svg>
