<svg width="421" height="45" viewBox="0 0 421 45" fill="none" xmlns="http://www.w3.org/2000/svg">
<path d="M21.4648 16.872C21.3048 18.344 20.7848 19.648 19.9048 20.784C19.0408 21.904 17.9048 22.776 16.4968 23.4C15.0888 24.024 13.4808 24.336 11.6728 24.336C9.65684 24.336 7.88884 23.944 6.36884 23.16C4.84884 22.376 3.66484 21.288 2.81684 19.896C1.96884 18.488 1.54484 16.856 1.54484 15C1.54484 13.144 1.96884 11.52 2.81684 10.128C3.66484 8.72 4.84884 7.624 6.36884 6.84C7.88884 6.056 9.65684 5.664 11.6728 5.664C13.4808 5.664 15.0888 5.976 16.4968 6.6C17.9048 7.224 19.0408 8.096 19.9048 9.216C20.7848 10.336 21.3048 11.64 21.4648 13.128H18.2728C18.0968 12.168 17.7128 11.344 17.1208 10.656C16.5448 9.968 15.7928 9.44 14.8648 9.072C13.9368 8.688 12.8648 8.496 11.6488 8.496C10.2408 8.496 9.01684 8.76 7.97684 9.288C6.95284 9.816 6.16084 10.568 5.60084 11.544C5.04084 12.52 4.76084 13.672 4.76084 15C4.76084 16.328 5.04084 17.48 5.60084 18.456C6.16084 19.432 6.95284 20.184 7.97684 20.712C9.01684 21.24 10.2408 21.504 11.6488 21.504C12.8648 21.504 13.9368 21.32 14.8648 20.952C15.7928 20.584 16.5448 20.056 17.1208 19.368C17.7128 18.664 18.0968 17.832 18.2728 16.872H21.4648ZM33.7315 24.336C31.6835 24.336 29.8835 23.944 28.3315 23.16C26.7795 22.376 25.5715 21.288 24.7075 19.896C23.8435 18.488 23.4115 16.856 23.4115 15C23.4115 13.144 23.8435 11.52 24.7075 10.128C25.5715 8.72 26.7795 7.624 28.3315 6.84C29.8835 6.056 31.6835 5.664 33.7315 5.664C35.7795 5.664 37.5795 6.056 39.1315 6.84C40.6835 7.624 41.8915 8.72 42.7555 10.128C43.6195 11.52 44.0515 13.144 44.0515 15C44.0515 16.856 43.6195 18.488 42.7555 19.896C41.8915 21.288 40.6835 22.376 39.1315 23.16C37.5795 23.944 35.7795 24.336 33.7315 24.336ZM33.7315 21.504C35.1875 21.504 36.4435 21.24 37.4995 20.712C38.5555 20.184 39.3715 19.432 39.9475 18.456C40.5395 17.48 40.8355 16.328 40.8355 15C40.8355 13.672 40.5395 12.52 39.9475 11.544C39.3715 10.568 38.5555 9.816 37.4995 9.288C36.4435 8.76 35.1875 8.496 33.7315 8.496C32.2915 8.496 31.0355 8.76 29.9635 9.288C28.9075 9.816 28.0835 10.568 27.4915 11.544C26.9155 12.52 26.6275 13.672 26.6275 15C26.6275 16.328 26.9155 17.48 27.4915 18.456C28.0835 19.432 28.9075 20.184 29.9635 20.712C31.0355 21.24 32.2915 21.504 33.7315 21.504ZM63.8093 22.08L62.5133 22.224V6H65.5853V24H61.5533L48.9293 7.776L50.2013 7.632V24H47.1293V6H51.2573L63.8093 22.08ZM78.9658 24.336C76.9178 24.336 75.1178 23.944 73.5658 23.16C72.0138 22.376 70.8058 21.288 69.9418 19.896C69.0778 18.488 68.6458 16.856 68.6458 15C68.6458 13.144 69.0778 11.52 69.9418 10.128C70.8058 8.72 72.0138 7.624 73.5658 6.84C75.1178 6.056 76.9178 5.664 78.9658 5.664C81.0138 5.664 82.8138 6.056 84.3658 6.84C85.9178 7.624 87.1258 8.72 87.9898 10.128C88.8538 11.52 89.2858 13.144 89.2858 15C89.2858 16.856 88.8538 18.488 87.9898 19.896C87.1258 21.288 85.9178 22.376 84.3658 23.16C82.8138 23.944 81.0138 24.336 78.9658 24.336ZM78.9658 21.504C80.4218 21.504 81.6778 21.24 82.7338 20.712C83.7898 20.184 84.6058 19.432 85.1818 18.456C85.7738 17.48 86.0698 16.328 86.0698 15C86.0698 13.672 85.7738 12.52 85.1818 11.544C84.6058 10.568 83.7898 9.816 82.7338 9.288C81.6778 8.76 80.4218 8.496 78.9658 8.496C77.5258 8.496 76.2698 8.76 75.1978 9.288C74.1418 9.816 73.3178 10.568 72.7258 11.544C72.1498 12.52 71.8618 13.672 71.8618 15C71.8618 16.328 72.1498 17.48 72.7258 18.456C73.3178 19.432 74.1418 20.184 75.1978 20.712C76.2698 21.24 77.5258 21.504 78.9658 21.504ZM111.348 16.872C111.188 18.344 110.668 19.648 109.788 20.784C108.924 21.904 107.788 22.776 106.38 23.4C104.972 24.024 103.364 24.336 101.556 24.336C99.5397 24.336 97.7717 23.944 96.2517 23.16C94.7317 22.376 93.5477 21.288 92.6997 19.896C91.8517 18.488 91.4277 16.856 91.4277 15C91.4277 13.144 91.8517 11.52 92.6997 10.128C93.5477 8.72 94.7317 7.624 96.2517 6.84C97.7717 6.056 99.5397 5.664 101.556 5.664C103.364 5.664 104.972 5.976 106.38 6.6C107.788 7.224 108.924 8.096 109.788 9.216C110.668 10.336 111.188 11.64 111.348 13.128H108.156C107.98 12.168 107.596 11.344 107.004 10.656C106.428 9.968 105.676 9.44 104.748 9.072C103.82 8.688 102.748 8.496 101.532 8.496C100.124 8.496 98.8997 8.76 97.8597 9.288C96.8357 9.816 96.0437 10.568 95.4837 11.544C94.9237 12.52 94.6437 13.672 94.6437 15C94.6437 16.328 94.9237 17.48 95.4837 18.456C96.0437 19.432 96.8357 20.184 97.8597 20.712C98.8997 21.24 100.124 21.504 101.532 21.504C102.748 21.504 103.82 21.32 104.748 20.952C105.676 20.584 106.428 20.056 107.004 19.368C107.596 18.664 107.98 17.832 108.156 16.872H111.348ZM128.63 13.68V16.32H116.054V13.68H128.63ZM118.142 15L116.87 23.04L115.358 21.264H129.326V24H113.63L115.07 15L113.63 6H129.206V8.736H115.358L116.87 6.96L118.142 15ZM140.443 19.872V17.256H153.019V19.872H140.443ZM148.795 6L157.435 24H154.051L146.203 7.2H147.427L139.579 24H136.195L144.835 6H148.795ZM181.723 22.08L180.427 22.224V6H183.499V24H179.467L166.843 7.776L168.115 7.632V24H165.043V6H169.171L181.723 22.08ZM190.448 16.272C190.448 17.344 190.664 18.272 191.096 19.056C191.528 19.84 192.144 20.448 192.944 20.88C193.76 21.296 194.728 21.504 195.848 21.504C196.984 21.504 197.952 21.296 198.752 20.88C199.552 20.448 200.168 19.84 200.6 19.056C201.032 18.272 201.248 17.344 201.248 16.272V6H204.416V16.392C204.416 17.976 204.056 19.368 203.336 20.568C202.616 21.752 201.616 22.68 200.336 23.352C199.056 24.008 197.56 24.336 195.848 24.336C194.152 24.336 192.656 24.008 191.36 23.352C190.08 22.68 189.08 21.752 188.36 20.568C187.64 19.368 187.28 17.976 187.28 16.392V6H190.448V16.272ZM222.591 13.68V16.32H210.015V13.68H222.591ZM212.103 15L210.831 23.04L209.319 21.264H223.287V24H207.591L209.031 15L207.591 6H223.167V8.736H209.319L210.831 6.96L212.103 15ZM225.486 18.144H228.702C228.798 18.864 229.094 19.496 229.59 20.04C230.102 20.584 230.774 21.008 231.606 21.312C232.438 21.6 233.398 21.744 234.486 21.744C236.102 21.744 237.382 21.496 238.326 21C239.27 20.488 239.742 19.8 239.742 18.936C239.742 18.232 239.47 17.704 238.926 17.352C238.382 17 237.398 16.736 235.974 16.56L232.086 16.056C229.91 15.768 228.326 15.232 227.334 14.448C226.358 13.648 225.87 12.52 225.87 11.064C225.87 9.96 226.198 9.008 226.854 8.208C227.526 7.392 228.47 6.768 229.686 6.336C230.902 5.888 232.326 5.664 233.958 5.664C235.574 5.664 237.006 5.904 238.254 6.384C239.502 6.864 240.494 7.536 241.23 8.4C241.982 9.248 242.39 10.248 242.454 11.4H239.238C239.158 10.76 238.886 10.208 238.422 9.744C237.974 9.28 237.366 8.92 236.598 8.664C235.83 8.392 234.926 8.256 233.886 8.256C232.414 8.256 231.238 8.496 230.358 8.976C229.478 9.456 229.038 10.112 229.038 10.944C229.038 11.584 229.294 12.08 229.806 12.432C230.334 12.768 231.246 13.024 232.542 13.2L236.478 13.752C238.094 13.976 239.366 14.28 240.294 14.664C241.238 15.032 241.91 15.536 242.31 16.176C242.71 16.8 242.91 17.608 242.91 18.6C242.91 19.752 242.558 20.76 241.854 21.624C241.15 22.488 240.158 23.16 238.878 23.64C237.614 24.104 236.134 24.336 234.438 24.336C232.71 24.336 231.182 24.08 229.854 23.568C228.542 23.04 227.502 22.312 226.734 21.384C225.966 20.456 225.55 19.376 225.486 18.144ZM250.937 7.464H254.105V24H250.937V7.464ZM243.497 6H261.545V8.784H243.497V6ZM266.158 14.112H273.478C274.534 14.112 275.366 13.872 275.974 13.392C276.598 12.912 276.91 12.256 276.91 11.424C276.91 10.576 276.598 9.92 275.974 9.456C275.366 8.976 274.534 8.736 273.478 8.736H265.702L267.118 6.96V24H263.95V6H273.766C275.03 6 276.134 6.232 277.078 6.696C278.038 7.144 278.782 7.776 279.31 8.592C279.854 9.392 280.126 10.336 280.126 11.424C280.126 12.48 279.854 13.416 279.31 14.232C278.782 15.032 278.038 15.664 277.078 16.128C276.134 16.576 275.03 16.8 273.766 16.8H266.158V14.112ZM269.71 15.576H273.43L280.582 24H276.79L269.71 15.576ZM292.622 24.336C290.574 24.336 288.774 23.944 287.222 23.16C285.67 22.376 284.462 21.288 283.598 19.896C282.734 18.488 282.302 16.856 282.302 15C282.302 13.144 282.734 11.52 283.598 10.128C284.462 8.72 285.67 7.624 287.222 6.84C288.774 6.056 290.574 5.664 292.622 5.664C294.67 5.664 296.47 6.056 298.022 6.84C299.574 7.624 300.782 8.72 301.646 10.128C302.51 11.52 302.942 13.144 302.942 15C302.942 16.856 302.51 18.488 301.646 19.896C300.782 21.288 299.574 22.376 298.022 23.16C296.47 23.944 294.67 24.336 292.622 24.336ZM292.622 21.504C294.078 21.504 295.334 21.24 296.39 20.712C297.446 20.184 298.262 19.432 298.838 18.456C299.43 17.48 299.726 16.328 299.726 15C299.726 13.672 299.43 12.52 298.838 11.544C298.262 10.568 297.446 9.816 296.39 9.288C295.334 8.76 294.078 8.496 292.622 8.496C291.182 8.496 289.926 8.76 288.854 9.288C287.798 9.816 286.974 10.568 286.382 11.544C285.806 12.52 285.518 13.672 285.518 15C285.518 16.328 285.806 17.48 286.382 18.456C286.974 19.432 287.798 20.184 288.854 20.712C289.926 21.24 291.182 21.504 292.622 21.504ZM326.747 13.68V16.32H314.171V13.68H326.747ZM316.259 15L314.987 23.04L313.475 21.264H327.443V24H311.747L313.187 15L311.747 6H327.323V8.736H313.475L314.987 6.96L316.259 15ZM337.522 17.136H341.386L349.378 25.248H345.442L337.522 17.136ZM339.802 24.336C337.754 24.336 335.954 23.944 334.402 23.16C332.85 22.376 331.642 21.288 330.778 19.896C329.914 18.488 329.482 16.856 329.482 15C329.482 13.144 329.914 11.52 330.778 10.128C331.642 8.72 332.85 7.624 334.402 6.84C335.954 6.056 337.754 5.664 339.802 5.664C341.85 5.664 343.65 6.056 345.202 6.84C346.754 7.624 347.962 8.72 348.826 10.128C349.69 11.52 350.122 13.144 350.122 15C350.122 16.856 349.69 18.488 348.826 19.896C347.962 21.288 346.754 22.376 345.202 23.16C343.65 23.944 341.85 24.336 339.802 24.336ZM339.802 21.504C341.258 21.504 342.514 21.24 343.57 20.712C344.626 20.184 345.442 19.432 346.018 18.456C346.61 17.48 346.906 16.328 346.906 15C346.906 13.672 346.61 12.52 346.018 11.544C345.442 10.568 344.626 9.816 343.57 9.288C342.514 8.76 341.258 8.496 339.802 8.496C338.362 8.496 337.106 8.76 336.034 9.288C334.978 9.816 334.154 10.568 333.562 11.544C332.986 12.52 332.698 13.672 332.698 15C332.698 16.328 332.986 17.48 333.562 18.456C334.154 19.432 334.978 20.184 336.034 20.712C337.106 21.24 338.362 21.504 339.802 21.504ZM356.128 16.272C356.128 17.344 356.344 18.272 356.776 19.056C357.208 19.84 357.824 20.448 358.624 20.88C359.44 21.296 360.408 21.504 361.528 21.504C362.664 21.504 363.632 21.296 364.432 20.88C365.232 20.448 365.848 19.84 366.28 19.056C366.712 18.272 366.928 17.344 366.928 16.272V6H370.096V16.392C370.096 17.976 369.736 19.368 369.016 20.568C368.296 21.752 367.296 22.68 366.016 23.352C364.736 24.008 363.24 24.336 361.528 24.336C359.832 24.336 358.336 24.008 357.04 23.352C355.76 22.68 354.76 21.752 354.04 20.568C353.32 19.368 352.96 17.976 352.96 16.392V6H356.128V16.272ZM373.895 6H377.063V24H373.895V6ZM390.618 6C391.962 6 393.122 6.24 394.098 6.72C395.09 7.2 395.85 7.872 396.378 8.736C396.922 9.584 397.194 10.568 397.194 11.688C397.194 12.808 396.922 13.8 396.378 14.664C395.85 15.512 395.09 16.176 394.098 16.656C393.122 17.136 391.962 17.376 390.618 17.376H382.53V14.64H390.498C391.586 14.64 392.434 14.376 393.042 13.848C393.666 13.32 393.978 12.6 393.978 11.688C393.978 10.776 393.666 10.056 393.042 9.528C392.434 9 391.586 8.736 390.498 8.736H382.842L384.258 7.152V24H381.09V6H390.618ZM409.153 24.336C407.105 24.336 405.305 23.944 403.753 23.16C402.201 22.376 400.993 21.288 400.129 19.896C399.265 18.488 398.833 16.856 398.833 15C398.833 13.144 399.265 11.52 400.129 10.128C400.993 8.72 402.201 7.624 403.753 6.84C405.305 6.056 407.105 5.664 409.153 5.664C411.201 5.664 413.001 6.056 414.553 6.84C416.105 7.624 417.313 8.72 418.177 10.128C419.041 11.52 419.473 13.144 419.473 15C419.473 16.856 419.041 18.488 418.177 19.896C417.313 21.288 416.105 22.376 414.553 23.16C413.001 23.944 411.201 24.336 409.153 24.336ZM409.153 21.504C410.609 21.504 411.865 21.24 412.921 20.712C413.977 20.184 414.793 19.432 415.369 18.456C415.961 17.48 416.257 16.328 416.257 15C416.257 13.672 415.961 12.52 415.369 11.544C414.793 10.568 413.977 9.816 412.921 9.288C411.865 8.76 410.609 8.496 409.153 8.496C407.713 8.496 406.457 8.76 405.385 9.288C404.329 9.816 403.505 10.568 402.913 11.544C402.337 12.52 402.049 13.672 402.049 15C402.049 16.328 402.337 17.48 402.913 18.456C403.505 19.432 404.329 20.184 405.385 20.712C406.457 21.24 407.713 21.504 409.153 21.504Z" fill="#431C6B"/>
<line x1="183" y1="44" x2="236" y2="44" stroke="#431C6B" stroke-width="2" stroke-linecap="round"/>
</svg>
