<svg width="677" height="128" viewBox="0 0 677 128" fill="none" xmlns="http://www.w3.org/2000/svg">
<path d="M3.96 33.36V53.84H7.88V33.36H3.96ZM3.6 24.64V29.52H8.24V24.64H3.6ZM24.5559 46V19.52H28.4759V46H24.5559ZM15.6759 20.32V16.8H37.3559V20.32H15.6759ZM50.5678 46.72C48.7011 46.72 47.0878 46.4 45.7278 45.76C44.3678 45.12 43.2611 44.28 42.4078 43.24C41.5545 42.1733 40.9145 40.9867 40.4878 39.68C40.0878 38.3733 39.8878 37.04 39.8878 35.68V34.96C39.8878 33.5733 40.0878 32.2267 40.4878 30.92C40.9145 29.6133 41.5545 28.44 42.4078 27.4C43.2611 26.3333 44.3411 25.4933 45.6478 24.88C46.9811 24.24 48.5411 23.92 50.3278 23.92C52.6478 23.92 54.5545 24.4267 56.0478 25.44C57.5678 26.4267 58.6878 27.7067 59.4078 29.28C60.1545 30.8533 60.5278 32.5333 60.5278 34.32V36.04H41.5678V33.16H57.7278L56.8478 34.72C56.8478 33.2 56.6078 31.8933 56.1278 30.8C55.6478 29.68 54.9278 28.8133 53.9678 28.2C53.0078 27.5867 51.7945 27.28 50.3278 27.28C48.8078 27.28 47.5411 27.6267 46.5278 28.32C45.5411 29.0133 44.7945 29.96 44.2878 31.16C43.8078 32.36 43.5678 33.7467 43.5678 35.32C43.5678 36.84 43.8078 38.2133 44.2878 39.44C44.7945 40.64 45.5678 41.6 46.6078 42.32C47.6478 43.0133 48.9678 43.36 50.5678 43.36C52.2478 43.36 53.6078 42.9867 54.6478 42.24C55.7145 41.4933 56.3545 40.6267 56.5678 39.64H60.1678C59.8745 41.1067 59.2878 42.3733 58.4078 43.44C57.5278 44.5067 56.4211 45.32 55.0878 45.88C53.7545 46.44 52.2478 46.72 50.5678 46.72ZM88.0016 46.72C86.4816 46.72 85.0816 46.44 83.8016 45.88C82.5216 45.32 81.4016 44.5333 80.4416 43.52C79.5082 42.5067 78.7749 41.3333 78.2416 40C77.7349 38.6667 77.4816 37.2267 77.4816 35.68V34.96C77.4816 33.44 77.7349 32.0133 78.2416 30.68C78.7482 29.3467 79.4549 28.1733 80.3616 27.16C81.2949 26.1467 82.3882 25.36 83.6416 24.8C84.9216 24.2133 86.3349 23.92 87.8816 23.92C89.5082 23.92 90.9882 24.2667 92.3216 24.96C93.6549 25.6267 94.7482 26.68 95.6016 28.12C96.4549 29.56 96.9349 31.4267 97.0416 33.72L95.4416 31.16V16.8H99.2816V46H96.2416V36.52H97.3616C97.2549 38.9467 96.7482 40.92 95.8416 42.44C94.9349 43.9333 93.7882 45.0267 92.4016 45.72C91.0416 46.3867 89.5749 46.72 88.0016 46.72ZM88.5216 43.36C89.8282 43.36 91.0149 43.0667 92.0816 42.48C93.1482 41.8933 94.0016 41.0533 94.6416 39.96C95.2816 38.84 95.6016 37.5333 95.6016 36.04V34.2C95.6016 32.7333 95.2682 31.4933 94.6016 30.48C93.9616 29.44 93.0949 28.6533 92.0016 28.12C90.9349 27.56 89.7616 27.28 88.4816 27.28C87.0682 27.28 85.8149 27.6133 84.7216 28.28C83.6549 28.9467 82.8149 29.88 82.2016 31.08C81.6149 32.28 81.3216 33.6933 81.3216 35.32C81.3216 36.9467 81.6282 38.3733 82.2416 39.6C82.8549 40.8 83.7082 41.7333 84.8016 42.4C85.8949 43.04 87.1349 43.36 88.5216 43.36ZM121.58 46V39.6H120.94V32.2C120.94 30.7333 120.553 29.6267 119.78 28.88C119.033 28.1333 117.926 27.76 116.46 27.76C115.633 27.76 114.78 27.7733 113.9 27.8C113.02 27.8267 112.18 27.8533 111.38 27.88C110.58 27.9067 109.886 27.9467 109.3 28V24.64C109.886 24.5867 110.5 24.5467 111.14 24.52C111.806 24.4667 112.486 24.44 113.18 24.44C113.873 24.4133 114.54 24.4 115.18 24.4C117.366 24.4 119.153 24.6667 120.54 25.2C121.926 25.7067 122.953 26.5467 123.62 27.72C124.286 28.8933 124.62 30.48 124.62 32.48V46H121.58ZM114.58 46.56C112.98 46.56 111.593 46.2933 110.42 45.76C109.273 45.2 108.38 44.4 107.74 43.36C107.126 42.32 106.82 41.0667 106.82 39.6C106.82 38.08 107.153 36.8133 107.82 35.8C108.513 34.7867 109.513 34.0267 110.82 33.52C112.126 32.9867 113.7 32.72 115.54 32.72H121.34V35.6H115.38C113.833 35.6 112.646 35.9733 111.82 36.72C110.993 37.4667 110.58 38.4267 110.58 39.6C110.58 40.7733 110.993 41.72 111.82 42.44C112.646 43.16 113.833 43.52 115.38 43.52C116.286 43.52 117.153 43.36 117.98 43.04C118.806 42.6933 119.486 42.1333 120.02 41.36C120.58 40.56 120.886 39.4667 120.94 38.08L121.98 39.6C121.846 41.12 121.473 42.4 120.86 43.44C120.273 44.4533 119.446 45.2267 118.38 45.76C117.34 46.2933 116.073 46.56 114.58 46.56ZM133.668 46V24.64H136.708V33.8H136.228C136.228 31.72 136.494 29.96 137.028 28.52C137.588 27.0533 138.414 25.9333 139.508 25.16C140.601 24.3867 141.988 24 143.668 24H143.828C145.508 24 146.894 24.3867 147.988 25.16C149.108 25.9333 149.934 27.0533 150.468 28.52C151.001 29.96 151.268 31.72 151.268 33.8H150.148C150.148 31.72 150.428 29.96 150.988 28.52C151.548 27.0533 152.374 25.9333 153.468 25.16C154.588 24.3867 155.988 24 157.668 24H157.828C159.508 24 160.908 24.3867 162.028 25.16C163.148 25.9333 163.974 27.0533 164.508 28.52C165.068 29.96 165.348 31.72 165.348 33.8V46H161.508V32.96C161.508 31.2267 161.081 29.8933 160.228 28.96C159.374 28 158.188 27.52 156.668 27.52C155.094 27.52 153.828 28.0267 152.868 29.04C151.908 30.0267 151.428 31.4133 151.428 33.2V46H147.588V32.96C147.588 31.2267 147.161 29.8933 146.308 28.96C145.454 28 144.268 27.52 142.748 27.52C141.174 27.52 139.908 28.0267 138.948 29.04C137.988 30.0267 137.508 31.4133 137.508 33.2V46H133.668ZM184.218 46.72C182.352 46.72 180.712 46.4 179.298 45.76C177.885 45.12 176.685 44.28 175.698 43.24C174.738 42.1733 174.005 40.9867 173.498 39.68C173.018 38.3733 172.778 37.04 172.778 35.68V34.96C172.778 33.6 173.032 32.2667 173.538 30.96C174.045 29.6267 174.792 28.44 175.778 27.4C176.765 26.3333 177.965 25.4933 179.378 24.88C180.792 24.24 182.405 23.92 184.218 23.92C186.032 23.92 187.645 24.24 189.058 24.88C190.472 25.4933 191.672 26.3333 192.658 27.4C193.645 28.44 194.392 29.6267 194.898 30.96C195.405 32.2667 195.658 33.6 195.658 34.96V35.68C195.658 37.04 195.405 38.3733 194.898 39.68C194.418 40.9867 193.685 42.1733 192.698 43.24C191.738 44.28 190.552 45.12 189.138 45.76C187.725 46.4 186.085 46.72 184.218 46.72ZM184.218 43.28C185.818 43.28 187.178 42.9333 188.298 42.24C189.445 41.52 190.312 40.56 190.898 39.36C191.512 38.16 191.818 36.8133 191.818 35.32C191.818 33.8 191.512 32.44 190.898 31.24C190.285 30.04 189.405 29.0933 188.258 28.4C187.138 27.7067 185.792 27.36 184.218 27.36C182.672 27.36 181.325 27.7067 180.178 28.4C179.032 29.0933 178.152 30.04 177.538 31.24C176.925 32.44 176.618 33.8 176.618 35.32C176.618 36.8133 176.912 38.16 177.498 39.36C178.112 40.56 178.978 41.52 180.098 42.24C181.245 42.9333 182.618 43.28 184.218 43.28ZM210.41 46.64C207.61 46.64 205.436 46.04 203.89 44.84C202.37 43.64 201.583 42 201.53 39.92H205.13C205.183 40.7467 205.596 41.5333 206.37 42.28C207.17 43 208.516 43.36 210.41 43.36C212.116 43.36 213.423 43.0267 214.33 42.36C215.236 41.6667 215.69 40.8267 215.69 39.84C215.69 38.96 215.356 38.28 214.69 37.8C214.023 37.2933 212.943 36.96 211.45 36.8L209.13 36.56C207.103 36.3467 205.45 35.7467 204.17 34.76C202.89 33.7467 202.25 32.3333 202.25 30.52C202.25 29.16 202.596 28 203.29 27.04C203.983 26.0533 204.943 25.3067 206.17 24.8C207.396 24.2667 208.81 24 210.41 24C212.81 24 214.756 24.5333 216.25 25.6C217.743 26.6667 218.516 28.2533 218.57 30.36H214.97C214.943 29.5067 214.543 28.7867 213.77 28.2C213.023 27.5867 211.903 27.28 210.41 27.28C208.916 27.28 207.783 27.5867 207.01 28.2C206.236 28.8133 205.85 29.5867 205.85 30.52C205.85 31.32 206.116 31.96 206.65 32.44C207.21 32.92 208.116 33.2267 209.37 33.36L211.69 33.6C213.983 33.84 215.823 34.48 217.21 35.52C218.596 36.5333 219.29 37.9733 219.29 39.84C219.29 41.1733 218.903 42.36 218.13 43.4C217.383 44.4133 216.343 45.2133 215.01 45.8C213.676 46.36 212.143 46.64 210.41 46.64ZM238.197 46V16.8H242.037V46H238.197ZM235.237 19.84V16.8H242.037V19.84H235.237ZM264.322 46V39.6H263.682V32.2C263.682 30.7333 263.295 29.6267 262.522 28.88C261.775 28.1333 260.669 27.76 259.202 27.76C258.375 27.76 257.522 27.7733 256.642 27.8C255.762 27.8267 254.922 27.8533 254.122 27.88C253.322 27.9067 252.629 27.9467 252.042 28V24.64C252.629 24.5867 253.242 24.5467 253.882 24.52C254.549 24.4667 255.229 24.44 255.922 24.44C256.615 24.4133 257.282 24.4 257.922 24.4C260.109 24.4 261.895 24.6667 263.282 25.2C264.669 25.7067 265.695 26.5467 266.362 27.72C267.029 28.8933 267.362 30.48 267.362 32.48V46H264.322ZM257.322 46.56C255.722 46.56 254.335 46.2933 253.162 45.76C252.015 45.2 251.122 44.4 250.482 43.36C249.869 42.32 249.562 41.0667 249.562 39.6C249.562 38.08 249.895 36.8133 250.562 35.8C251.255 34.7867 252.255 34.0267 253.562 33.52C254.869 32.9867 256.442 32.72 258.282 32.72H264.082V35.6H258.122C256.575 35.6 255.389 35.9733 254.562 36.72C253.735 37.4667 253.322 38.4267 253.322 39.6C253.322 40.7733 253.735 41.72 254.562 42.44C255.389 43.16 256.575 43.52 258.122 43.52C259.029 43.52 259.895 43.36 260.722 43.04C261.549 42.6933 262.229 42.1333 262.762 41.36C263.322 40.56 263.629 39.4667 263.682 38.08L264.722 39.6C264.589 41.12 264.215 42.4 263.602 43.44C263.015 44.4533 262.189 45.2267 261.122 45.76C260.082 46.2933 258.815 46.56 257.322 46.56ZM298.791 46.72C297.031 46.72 295.458 46.3333 294.071 45.56C292.711 44.7867 291.631 43.6667 290.831 42.2C290.031 40.7067 289.591 38.92 289.511 36.84H290.551V46H287.511V16.8H291.351V31L289.991 33.92C290.098 31.6 290.565 29.7067 291.391 28.24C292.218 26.7733 293.298 25.6933 294.631 25C295.991 24.28 297.485 23.92 299.111 23.92C300.631 23.92 302.018 24.2133 303.271 24.8C304.525 25.36 305.605 26.1467 306.511 27.16C307.418 28.1467 308.111 29.3067 308.591 30.64C309.071 31.9467 309.311 33.36 309.311 34.88V35.6C309.311 37.12 309.058 38.5467 308.551 39.88C308.071 41.2133 307.365 42.4 306.431 43.44C305.498 44.4533 304.378 45.2533 303.071 45.84C301.791 46.4267 300.365 46.72 298.791 46.72ZM298.351 43.36C299.791 43.36 301.045 43.0133 302.111 42.32C303.178 41.6267 304.005 40.68 304.591 39.48C305.178 38.2533 305.471 36.84 305.471 35.24C305.471 33.64 305.165 32.24 304.551 31.04C303.965 29.84 303.138 28.92 302.071 28.28C301.005 27.6133 299.765 27.28 298.351 27.28C297.071 27.28 295.885 27.5733 294.791 28.16C293.698 28.72 292.818 29.5467 292.151 30.64C291.511 31.7067 291.191 33 291.191 34.52V36.36C291.191 37.8267 291.525 39.08 292.191 40.12C292.858 41.16 293.738 41.96 294.831 42.52C295.925 43.08 297.098 43.36 298.351 43.36ZM318.129 46V24.64H321.969V46H318.129ZM314.849 27.68V24.64H321.969V27.68H314.849ZM319.209 21.2C318.356 21.2 317.716 20.9733 317.289 20.52C316.889 20.0667 316.689 19.4933 316.689 18.8C316.689 18.1067 316.889 17.5333 317.289 17.08C317.716 16.6267 318.356 16.4 319.209 16.4C320.063 16.4 320.689 16.6267 321.089 17.08C321.516 17.5333 321.729 18.1067 321.729 18.8C321.729 19.4933 321.516 20.0667 321.089 20.52C320.689 20.9733 320.063 21.2 319.209 21.2ZM340.474 46.72C338.607 46.72 336.994 46.4 335.634 45.76C334.274 45.12 333.167 44.28 332.314 43.24C331.461 42.1733 330.821 40.9867 330.394 39.68C329.994 38.3733 329.794 37.04 329.794 35.68V34.96C329.794 33.5733 329.994 32.2267 330.394 30.92C330.821 29.6133 331.461 28.44 332.314 27.4C333.167 26.3333 334.247 25.4933 335.554 24.88C336.887 24.24 338.447 23.92 340.234 23.92C342.554 23.92 344.461 24.4267 345.954 25.44C347.474 26.4267 348.594 27.7067 349.314 29.28C350.061 30.8533 350.434 32.5333 350.434 34.32V36.04H331.474V33.16H347.634L346.754 34.72C346.754 33.2 346.514 31.8933 346.034 30.8C345.554 29.68 344.834 28.8133 343.874 28.2C342.914 27.5867 341.701 27.28 340.234 27.28C338.714 27.28 337.447 27.6267 336.434 28.32C335.447 29.0133 334.701 29.96 334.194 31.16C333.714 32.36 333.474 33.7467 333.474 35.32C333.474 36.84 333.714 38.2133 334.194 39.44C334.701 40.64 335.474 41.6 336.514 42.32C337.554 43.0133 338.874 43.36 340.474 43.36C342.154 43.36 343.514 42.9867 344.554 42.24C345.621 41.4933 346.261 40.6267 346.474 39.64H350.074C349.781 41.1067 349.194 42.3733 348.314 43.44C347.434 44.5067 346.327 45.32 344.994 45.88C343.661 46.44 342.154 46.72 340.474 46.72ZM357.886 46V24.64H360.926V33.8H360.446C360.446 31.6933 360.726 29.92 361.286 28.48C361.873 27.0133 362.753 25.9067 363.926 25.16C365.1 24.3867 366.58 24 368.366 24H368.526C371.22 24 373.206 24.84 374.486 26.52C375.793 28.2 376.446 30.6267 376.446 33.8V46H372.606V33C372.606 31.3467 372.14 30.0267 371.206 29.04C370.273 28.0267 368.993 27.52 367.366 27.52C365.686 27.52 364.326 28.04 363.286 29.08C362.246 30.12 361.726 31.5067 361.726 33.24V46H357.886ZM389.876 46L382.596 24.64H386.596L393.716 46H389.876ZM390.836 46V42.96H395.476V46H390.836ZM392.676 46L398.876 24.64H402.636L396.316 46H392.676ZM418.349 46.72C416.482 46.72 414.869 46.4 413.509 45.76C412.149 45.12 411.042 44.28 410.189 43.24C409.336 42.1733 408.696 40.9867 408.269 39.68C407.869 38.3733 407.669 37.04 407.669 35.68V34.96C407.669 33.5733 407.869 32.2267 408.269 30.92C408.696 29.6133 409.336 28.44 410.189 27.4C411.042 26.3333 412.122 25.4933 413.429 24.88C414.762 24.24 416.322 23.92 418.109 23.92C420.429 23.92 422.336 24.4267 423.829 25.44C425.349 26.4267 426.469 27.7067 427.189 29.28C427.936 30.8533 428.309 32.5333 428.309 34.32V36.04H409.349V33.16H425.509L424.629 34.72C424.629 33.2 424.389 31.8933 423.909 30.8C423.429 29.68 422.709 28.8133 421.749 28.2C420.789 27.5867 419.576 27.28 418.109 27.28C416.589 27.28 415.322 27.6267 414.309 28.32C413.322 29.0133 412.576 29.96 412.069 31.16C411.589 32.36 411.349 33.7467 411.349 35.32C411.349 36.84 411.589 38.2133 412.069 39.44C412.576 40.64 413.349 41.6 414.389 42.32C415.429 43.0133 416.749 43.36 418.349 43.36C420.029 43.36 421.389 42.9867 422.429 42.24C423.496 41.4933 424.136 40.6267 424.349 39.64H427.949C427.656 41.1067 427.069 42.3733 426.189 43.44C425.309 44.5067 424.202 45.32 422.869 45.88C421.536 46.44 420.029 46.72 418.349 46.72ZM435.761 46V24.64H438.801V33.8H438.321C438.321 31.6933 438.601 29.92 439.161 28.48C439.748 27.0133 440.628 25.9067 441.801 25.16C442.975 24.3867 444.455 24 446.241 24H446.401C449.095 24 451.081 24.84 452.361 26.52C453.668 28.2 454.321 30.6267 454.321 33.8V46H450.481V33C450.481 31.3467 450.015 30.0267 449.081 29.04C448.148 28.0267 446.868 27.52 445.241 27.52C443.561 27.52 442.201 28.04 441.161 29.08C440.121 30.12 439.601 31.5067 439.601 33.24V46H435.761ZM464.387 46V24.64H468.227V46H464.387ZM461.107 27.68V24.64H468.227V27.68H461.107ZM465.467 21.2C464.614 21.2 463.974 20.9733 463.547 20.52C463.147 20.0667 462.947 19.4933 462.947 18.8C462.947 18.1067 463.147 17.5333 463.547 17.08C463.974 16.6267 464.614 16.4 465.467 16.4C466.321 16.4 466.947 16.6267 467.347 17.08C467.774 17.5333 467.987 18.1067 467.987 18.8C467.987 19.4933 467.774 20.0667 467.347 20.52C466.947 20.9733 466.321 21.2 465.467 21.2ZM486.572 46.72C485.052 46.72 483.652 46.44 482.372 45.88C481.092 45.32 479.972 44.5333 479.012 43.52C478.079 42.5067 477.345 41.3333 476.812 40C476.305 38.6667 476.052 37.2267 476.052 35.68V34.96C476.052 33.44 476.305 32.0133 476.812 30.68C477.319 29.3467 478.025 28.1733 478.932 27.16C479.865 26.1467 480.959 25.36 482.212 24.8C483.492 24.2133 484.905 23.92 486.452 23.92C488.079 23.92 489.559 24.2667 490.892 24.96C492.225 25.6267 493.319 26.68 494.172 28.12C495.025 29.56 495.505 31.4267 495.612 33.72L494.012 31.16V16.8H497.852V46H494.812V36.52H495.932C495.825 38.9467 495.319 40.92 494.412 42.44C493.505 43.9333 492.359 45.0267 490.972 45.72C489.612 46.3867 488.145 46.72 486.572 46.72ZM487.092 43.36C488.399 43.36 489.585 43.0667 490.652 42.48C491.719 41.8933 492.572 41.0533 493.212 39.96C493.852 38.84 494.172 37.5333 494.172 36.04V34.2C494.172 32.7333 493.839 31.4933 493.172 30.48C492.532 29.44 491.665 28.6533 490.572 28.12C489.505 27.56 488.332 27.28 487.052 27.28C485.639 27.28 484.385 27.6133 483.292 28.28C482.225 28.9467 481.385 29.88 480.772 31.08C480.185 32.28 479.892 33.6933 479.892 35.32C479.892 36.9467 480.199 38.3733 480.812 39.6C481.425 40.8 482.279 41.7333 483.372 42.4C484.465 43.04 485.705 43.36 487.092 43.36ZM520.15 46V39.6H519.51V32.2C519.51 30.7333 519.123 29.6267 518.35 28.88C517.603 28.1333 516.497 27.76 515.03 27.76C514.203 27.76 513.35 27.7733 512.47 27.8C511.59 27.8267 510.75 27.8533 509.95 27.88C509.15 27.9067 508.457 27.9467 507.87 28V24.64C508.457 24.5867 509.07 24.5467 509.71 24.52C510.377 24.4667 511.057 24.44 511.75 24.44C512.443 24.4133 513.11 24.4 513.75 24.4C515.937 24.4 517.723 24.6667 519.11 25.2C520.497 25.7067 521.523 26.5467 522.19 27.72C522.857 28.8933 523.19 30.48 523.19 32.48V46H520.15ZM513.15 46.56C511.55 46.56 510.163 46.2933 508.99 45.76C507.843 45.2 506.95 44.4 506.31 43.36C505.697 42.32 505.39 41.0667 505.39 39.6C505.39 38.08 505.723 36.8133 506.39 35.8C507.083 34.7867 508.083 34.0267 509.39 33.52C510.697 32.9867 512.27 32.72 514.11 32.72H519.91V35.6H513.95C512.403 35.6 511.217 35.9733 510.39 36.72C509.563 37.4667 509.15 38.4267 509.15 39.6C509.15 40.7733 509.563 41.72 510.39 42.44C511.217 43.16 512.403 43.52 513.95 43.52C514.857 43.52 515.723 43.36 516.55 43.04C517.377 42.6933 518.057 42.1333 518.59 41.36C519.15 40.56 519.457 39.4667 519.51 38.08L520.55 39.6C520.417 41.12 520.043 42.4 519.43 43.44C518.843 44.4533 518.017 45.2267 516.95 45.76C515.91 46.2933 514.643 46.56 513.15 46.56ZM556.259 46V39.6H555.619V32.2C555.619 30.7333 555.233 29.6267 554.459 28.88C553.713 28.1333 552.606 27.76 551.139 27.76C550.313 27.76 549.459 27.7733 548.579 27.8C547.699 27.8267 546.859 27.8533 546.059 27.88C545.259 27.9067 544.566 27.9467 543.979 28V24.64C544.566 24.5867 545.179 24.5467 545.819 24.52C546.486 24.4667 547.166 24.44 547.859 24.44C548.553 24.4133 549.219 24.4 549.859 24.4C552.046 24.4 553.833 24.6667 555.219 25.2C556.606 25.7067 557.633 26.5467 558.299 27.72C558.966 28.8933 559.299 30.48 559.299 32.48V46H556.259ZM549.259 46.56C547.659 46.56 546.273 46.2933 545.099 45.76C543.953 45.2 543.059 44.4 542.419 43.36C541.806 42.32 541.499 41.0667 541.499 39.6C541.499 38.08 541.833 36.8133 542.499 35.8C543.193 34.7867 544.193 34.0267 545.499 33.52C546.806 32.9867 548.379 32.72 550.219 32.72H556.019V35.6H550.059C548.513 35.6 547.326 35.9733 546.499 36.72C545.673 37.4667 545.259 38.4267 545.259 39.6C545.259 40.7733 545.673 41.72 546.499 42.44C547.326 43.16 548.513 43.52 550.059 43.52C550.966 43.52 551.833 43.36 552.659 43.04C553.486 42.6933 554.166 42.1333 554.699 41.36C555.259 40.56 555.566 39.4667 555.619 38.08L556.659 39.6C556.526 41.12 556.153 42.4 555.539 43.44C554.953 44.4533 554.126 45.2267 553.059 45.76C552.019 46.2933 550.753 46.56 549.259 46.56ZM10.396 101.386V94.854H16.422C17.5873 94.854 18.584 94.624 19.412 94.164C20.2707 93.704 20.93 93.06 21.39 92.232C21.85 91.3733 22.08 90.392 22.08 89.288C22.08 88.1227 21.85 87.126 21.39 86.298C20.93 85.4393 20.2707 84.7953 19.412 84.366C18.584 83.906 17.5873 83.676 16.422 83.676H10.396V77.144H16.054C18.906 77.144 21.344 77.6193 23.368 78.57C25.4227 79.5207 26.9867 80.87 28.06 82.618C29.164 84.366 29.716 86.4667 29.716 88.92V89.656C29.716 92.048 29.164 94.1333 28.06 95.912C26.9867 97.66 25.4227 99.0093 23.368 99.96C21.344 100.911 18.906 101.386 16.054 101.386H10.396ZM3.772 111V77.144H11.316V111H3.772ZM49.2678 111.874C46.2318 111.874 43.6711 111.399 41.5858 110.448C39.5005 109.467 37.9211 108.148 36.8478 106.492C35.7745 104.805 35.2378 102.873 35.2378 100.696H42.5518C42.5518 101.555 42.7818 102.352 43.2418 103.088C43.7325 103.824 44.4685 104.422 45.4498 104.882C46.4311 105.311 47.7038 105.526 49.2678 105.526C50.6785 105.526 51.8591 105.342 52.8098 104.974C53.7605 104.606 54.4811 104.1 54.9718 103.456C55.4625 102.781 55.7078 102.015 55.7078 101.156C55.7078 100.083 55.2478 99.2393 54.3278 98.626C53.4078 97.982 51.9205 97.568 49.8658 97.384L47.3358 97.154C43.9931 96.878 41.3251 95.8353 39.3318 94.026C37.3385 92.2167 36.3418 89.8247 36.3418 86.85C36.3418 84.7033 36.8478 82.848 37.8598 81.284C38.9025 79.72 40.3438 78.524 42.1838 77.696C44.0238 76.8373 46.2011 76.408 48.7158 76.408C51.3531 76.408 53.6071 76.868 55.4778 77.788C57.3791 78.6773 58.8358 79.95 59.8478 81.606C60.8598 83.2313 61.3658 85.148 61.3658 87.356H54.0058C54.0058 86.528 53.8065 85.7767 53.4078 85.102C53.0091 84.3967 52.4111 83.8293 51.6138 83.4C50.8471 82.9707 49.8811 82.756 48.7158 82.756C47.6118 82.756 46.6765 82.94 45.9098 83.308C45.1738 83.676 44.6218 84.182 44.2538 84.826C43.8858 85.4393 43.7018 86.114 43.7018 86.85C43.7018 87.8007 44.0391 88.6287 44.7138 89.334C45.3885 90.0393 46.4925 90.4533 48.0258 90.576L50.6018 90.806C53.0551 91.0207 55.2171 91.5573 57.0878 92.416C58.9585 93.244 60.4151 94.394 61.4578 95.866C62.5311 97.3073 63.0678 99.0707 63.0678 101.156C63.0678 103.303 62.5005 105.189 61.3658 106.814C60.2618 108.409 58.6825 109.651 56.6278 110.54C54.5731 111.429 52.1198 111.874 49.2678 111.874ZM71.5774 111V77.42H79.1214V111H71.5774ZM105.389 111.874C102.353 111.874 99.7462 111.353 97.5689 110.31C95.3915 109.237 93.6129 107.841 92.2329 106.124C90.8529 104.376 89.8255 102.505 89.1509 100.512C88.5069 98.488 88.1849 96.5253 88.1849 94.624V93.612C88.1849 91.5267 88.5222 89.472 89.1969 87.448C89.8715 85.3933 90.8989 83.538 92.2789 81.882C93.6895 80.226 95.4529 78.9073 97.5689 77.926C99.7155 76.914 102.246 76.408 105.159 76.408C108.195 76.408 110.878 76.9753 113.209 78.11C115.54 79.2447 117.395 80.824 118.775 82.848C120.186 84.8413 121.014 87.1873 121.259 89.886H113.669C113.454 88.5367 112.964 87.3867 112.197 86.436C111.43 85.4853 110.434 84.7493 109.207 84.228C108.011 83.7067 106.662 83.446 105.159 83.446C103.656 83.446 102.322 83.7067 101.157 84.228C99.9915 84.7493 99.0102 85.4853 98.2129 86.436C97.4462 87.3867 96.8482 88.5213 96.4189 89.84C96.0202 91.128 95.8209 92.5693 95.8209 94.164C95.8209 95.728 96.0202 97.1693 96.4189 98.488C96.8482 99.776 97.4615 100.911 98.2589 101.892C99.0869 102.843 100.099 103.579 101.295 104.1C102.491 104.591 103.856 104.836 105.389 104.836C107.72 104.836 109.682 104.269 111.277 103.134C112.902 101.999 113.884 100.435 114.221 98.442H121.765C121.489 100.895 120.661 103.149 119.281 105.204C117.932 107.228 116.076 108.853 113.715 110.08C111.384 111.276 108.609 111.874 105.389 111.874ZM146.09 111.874C143.054 111.874 140.401 111.353 138.132 110.31C135.893 109.237 134.038 107.841 132.566 106.124C131.094 104.376 129.99 102.49 129.254 100.466C128.549 98.442 128.196 96.4947 128.196 94.624V93.612C128.196 91.5267 128.564 89.472 129.3 87.448C130.067 85.3933 131.201 83.538 132.704 81.882C134.207 80.226 136.077 78.9073 138.316 77.926C140.555 76.914 143.146 76.408 146.09 76.408C149.034 76.408 151.625 76.914 153.864 77.926C156.103 78.9073 157.973 80.226 159.476 81.882C160.979 83.538 162.113 85.3933 162.88 87.448C163.647 89.472 164.03 91.5267 164.03 93.612V94.624C164.03 96.4947 163.662 98.442 162.926 100.466C162.19 102.49 161.086 104.376 159.614 106.124C158.142 107.841 156.271 109.237 154.002 110.31C151.763 111.353 149.126 111.874 146.09 111.874ZM146.09 104.836C147.685 104.836 149.111 104.56 150.368 104.008C151.656 103.456 152.745 102.689 153.634 101.708C154.554 100.727 155.244 99.592 155.704 98.304C156.164 97.016 156.394 95.636 156.394 94.164C156.394 92.6 156.149 91.174 155.658 89.886C155.198 88.5673 154.508 87.4327 153.588 86.482C152.699 85.5007 151.625 84.7493 150.368 84.228C149.111 83.7067 147.685 83.446 146.09 83.446C144.495 83.446 143.069 83.7067 141.812 84.228C140.555 84.7493 139.466 85.5007 138.546 86.482C137.657 87.4327 136.982 88.5673 136.522 89.886C136.062 91.174 135.832 92.6 135.832 94.164C135.832 95.636 136.062 97.016 136.522 98.304C136.982 99.592 137.657 100.727 138.546 101.708C139.466 102.689 140.555 103.456 141.812 104.008C143.069 104.56 144.495 104.836 146.09 104.836ZM178.692 111V83.078H186.236V111H178.692ZM169.262 83.998V77.42H195.712V83.998H169.262ZM203.678 111V77.42H211.038V111H203.678ZM210.118 111V104.744H224.792V111H210.118ZM210.118 97.062V90.806H223.734V97.062H210.118ZM210.118 83.676V77.42H224.47V83.676H210.118ZM234.21 111V77.144H241.754V111H234.21ZM254.588 111L244.744 96.556H253.024L263.328 111H254.588ZM239.73 100.236V94.302H248.01C249.114 94.302 250.065 94.0873 250.862 93.658C251.69 93.198 252.319 92.5693 252.748 91.772C253.208 90.944 253.438 89.9933 253.438 88.92C253.438 87.8467 253.208 86.9113 252.748 86.114C252.319 85.286 251.69 84.6573 250.862 84.228C250.065 83.768 249.114 83.538 248.01 83.538H239.73V77.144H247.412C250.203 77.144 252.626 77.5733 254.68 78.432C256.735 79.26 258.314 80.502 259.418 82.158C260.522 83.814 261.074 85.8993 261.074 88.414V89.15C261.074 91.634 260.507 93.704 259.372 95.36C258.268 96.9853 256.689 98.212 254.634 99.04C252.61 99.8373 250.203 100.236 247.412 100.236H239.73ZM267.858 111L278.944 77.42H291.134L302.634 111H294.814L285.522 82.618L287.914 83.584H281.98L284.464 82.618L275.402 111H267.858ZM276.276 102.674L278.576 96.418H291.732L294.078 102.674H276.276ZM316.858 101.386V94.854H322.884C324.05 94.854 325.046 94.624 325.874 94.164C326.733 93.704 327.392 93.06 327.852 92.232C328.312 91.3733 328.542 90.392 328.542 89.288C328.542 88.1227 328.312 87.126 327.852 86.298C327.392 85.4393 326.733 84.7953 325.874 84.366C325.046 83.906 324.05 83.676 322.884 83.676H316.858V77.144H322.516C325.368 77.144 327.806 77.6193 329.83 78.57C331.885 79.5207 333.449 80.87 334.522 82.618C335.626 84.366 336.178 86.4667 336.178 88.92V89.656C336.178 92.048 335.626 94.1333 334.522 95.912C333.449 97.66 331.885 99.0093 329.83 99.96C327.806 100.911 325.368 101.386 322.516 101.386H316.858ZM310.234 111V77.144H317.778V111H310.234ZM344.228 111V77.42H351.772V111H344.228ZM359.456 111L370.542 77.42H382.732L394.232 111H386.412L377.12 82.618L379.512 83.584H373.578L376.062 82.618L367 111H359.456ZM367.874 102.674L370.174 96.418H383.33L385.676 102.674H367.874ZM430.81 111.874C427.774 111.874 425.121 111.353 422.852 110.31C420.613 109.237 418.758 107.841 417.286 106.124C415.814 104.376 414.71 102.49 413.974 100.466C413.269 98.442 412.916 96.4947 412.916 94.624V93.612C412.916 91.5267 413.284 89.472 414.02 87.448C414.787 85.3933 415.921 83.538 417.424 81.882C418.927 80.226 420.797 78.9073 423.036 77.926C425.275 76.914 427.866 76.408 430.81 76.408C433.754 76.408 436.345 76.914 438.584 77.926C440.823 78.9073 442.693 80.226 444.196 81.882C445.699 83.538 446.833 85.3933 447.6 87.448C448.367 89.472 448.75 91.5267 448.75 93.612V94.624C448.75 96.4947 448.382 98.442 447.646 100.466C446.91 102.49 445.806 104.376 444.334 106.124C442.862 107.841 440.991 109.237 438.722 110.31C436.483 111.353 433.846 111.874 430.81 111.874ZM430.81 104.836C432.405 104.836 433.831 104.56 435.088 104.008C436.376 103.456 437.465 102.689 438.354 101.708C439.274 100.727 439.964 99.592 440.424 98.304C440.884 97.016 441.114 95.636 441.114 94.164C441.114 92.6 440.869 91.174 440.378 89.886C439.918 88.5673 439.228 87.4327 438.308 86.482C437.419 85.5007 436.345 84.7493 435.088 84.228C433.831 83.7067 432.405 83.446 430.81 83.446C429.215 83.446 427.789 83.7067 426.532 84.228C425.275 84.7493 424.186 85.5007 423.266 86.482C422.377 87.4327 421.702 88.5673 421.242 89.886C420.782 91.174 420.552 92.6 420.552 94.164C420.552 95.636 420.782 97.016 421.242 98.304C421.702 99.592 422.377 100.727 423.266 101.708C424.186 102.689 425.275 103.456 426.532 104.008C427.789 104.56 429.215 104.836 430.81 104.836ZM457.686 111V77.42H470.06L482.71 104.882H484.274L483.354 105.71V77.42H490.438V111H477.972L465.322 83.538H463.758L464.678 82.71V111H457.686ZM501.201 111V77.42H508.745V111H501.201ZM507.825 111V104.376H521.901V111H507.825ZM530.163 111V77.42H537.707V111H530.163ZM548.565 111V77.42H560.939L573.589 104.882H575.153L574.233 105.71V77.42H581.317V111H568.851L556.201 83.538H554.637L555.557 82.71V111H548.565ZM592.08 111V77.42H599.44V111H592.08ZM598.52 111V104.744H613.194V111H598.52ZM598.52 97.062V90.806H612.136V97.062H598.52ZM598.52 83.676V77.42H612.872V83.676H598.52ZM622.382 99.638V77.42H629.926V99.638H622.382ZM621.83 111V103.594H630.478V111H621.83Z" fill="#431C6B"/>
</svg>
